<svg width="26" height="27" viewBox="0 0 26 27" fill="none" xmlns="http://www.w3.org/2000/svg">
<rect x="0.3125" y="0.932495" width="25.2075" height="25.2075" rx="6" fill="#606060"/>
<path d="M6.98926 9.90649L13.1482 13.4707L19.2653 9.9274" stroke="white" stroke-linecap="round" stroke-linejoin="round"/>
<path d="M13.1484 19.7901V13.4637" stroke="white" stroke-linecap="round" stroke-linejoin="round"/>
<path d="M19.8513 13.6661V11.1132C19.8513 10.1506 19.1608 8.97882 18.3168 8.51149L14.5922 6.44686C13.797 6.00046 12.4996 6.00046 11.7045 6.44686L7.97981 8.51149C7.13583 8.97882 6.44531 10.1506 6.44531 11.1132V15.0611C6.44531 16.0236 7.13583 17.1954 7.97981 17.6627L11.7045 19.7274C12.1021 19.9506 12.6252 20.0621 13.1483 20.0621C13.6714 20.0621 14.1946 19.9506 14.5922 19.7274" stroke="white" stroke-linecap="round" stroke-linejoin="round"/>
<path d="M18.1705 19.6436C19.4032 19.6436 20.4025 18.6443 20.4025 17.4116C20.4025 16.1789 19.4032 15.1796 18.1705 15.1796C16.9378 15.1796 15.9385 16.1789 15.9385 17.4116C15.9385 18.6443 16.9378 19.6436 18.1705 19.6436Z" stroke="white" stroke-linecap="round" stroke-linejoin="round"/>
<path d="M20.821 20.0621L20.1235 19.3646" stroke="white" stroke-linecap="round" stroke-linejoin="round"/>
</svg>
