<svg width="25" height="25" viewBox="0 0 25 25" fill="none" xmlns="http://www.w3.org/2000/svg">
<path d="M9.3388 24.6483H16.5131C22.4917 24.6483 24.8832 22.2569 24.8832 16.2783V9.10393C24.8832 3.12533 22.4917 0.733887 16.5131 0.733887H9.3388C3.36019 0.733887 0.96875 3.12533 0.96875 9.10393V16.2783C0.96875 22.2569 3.36019 24.6483 9.3388 24.6483Z" fill="#606060"/>
<path d="M19.0792 12.1513V9.17998C19.0792 6.36904 18.4236 5.66455 15.787 5.66455H10.5139C7.87733 5.66455 7.22168 6.36904 7.22168 9.17998V17.0339C7.22168 18.8892 8.24004 19.3287 9.47462 18.0034L9.48159 17.9964C10.0535 17.3896 10.9254 17.4384 11.4206 18.101L12.1251 19.0427" stroke="white" stroke-linecap="round" stroke-linejoin="round"/>
<path d="M10.3604 9.1521H15.9404" stroke="white" stroke-linecap="round" stroke-linejoin="round"/>
<path d="M11.0576 11.942H15.2426" stroke="white" stroke-linecap="round" stroke-linejoin="round"/>
<path d="M17.4823 14.5719L15.0132 17.041C14.9155 17.1387 14.8249 17.32 14.8039 17.4526L14.6714 18.3942C14.6226 18.736 14.8597 18.9731 15.2015 18.9243L16.1432 18.7918C16.2757 18.7708 16.464 18.6802 16.5547 18.5825L19.0238 16.1134C19.4493 15.6879 19.6516 15.1926 19.0238 14.5649C18.4031 13.9441 17.9078 14.1464 17.4823 14.5719Z" fill="white"/>
<path d="M17.1255 14.9276C17.3347 15.6809 17.9206 16.2668 18.6739 16.4761L17.1255 14.9276Z" fill="white"/>
<path d="M17.1255 14.9276C17.3347 15.6809 17.9206 16.2668 18.6739 16.4761" stroke="#606060" stroke-width="0.6" stroke-miterlimit="10" stroke-linecap="round" stroke-linejoin="round"/>
</svg>
