<svg width="25" height="25" viewBox="0 0 25 25" fill="none" xmlns="http://www.w3.org/2000/svg">
<path d="M9.3388 24.5931H16.5131C22.4917 24.5931 24.8832 22.2017 24.8832 16.2231V9.04876C24.8832 3.07015 22.4917 0.678711 16.5131 0.678711H9.3388C3.36019 0.678711 0.96875 3.07015 0.96875 9.04876V16.2231C0.96875 22.2017 3.36019 24.5931 9.3388 24.5931Z" fill="#E3A507"/>
<path d="M19.1756 16.4823C19.1756 16.6901 19.1294 16.9035 19.0314 17.1112C18.9333 17.3189 18.8064 17.5151 18.639 17.6997C18.3563 18.0113 18.0448 18.2363 17.6928 18.3805C17.3467 18.5248 16.9716 18.5998 16.5678 18.5998C15.9793 18.5998 15.3504 18.4613 14.6869 18.1786C14.0234 17.8959 13.3599 17.5151 12.7022 17.0362C12.0387 16.5516 11.4098 16.015 10.8098 15.4207C10.2155 14.8207 9.67892 14.1918 9.20005 13.5341C8.72695 12.8764 8.34615 12.2186 8.06922 11.5667C7.79228 10.909 7.65381 10.2801 7.65381 9.68005C7.65381 9.28772 7.72304 8.9127 7.86151 8.56652C7.99998 8.21458 8.21922 7.89148 8.52501 7.60301C8.89426 7.23953 9.29813 7.06067 9.72508 7.06067C9.88663 7.06067 10.0482 7.09529 10.1924 7.16452C10.3424 7.23376 10.4751 7.33761 10.579 7.48762L11.9175 9.37426C12.0214 9.5185 12.0964 9.6512 12.1483 9.77813C12.2002 9.89929 12.2291 10.0204 12.2291 10.1301C12.2291 10.2685 12.1887 10.407 12.1079 10.5397C12.0329 10.6724 11.9233 10.8109 11.7848 10.9493L11.3463 11.4051C11.2829 11.4686 11.254 11.5436 11.254 11.6359C11.254 11.6821 11.2598 11.7225 11.2713 11.7686C11.2886 11.8148 11.3059 11.8494 11.3175 11.884C11.4213 12.0744 11.6002 12.3225 11.854 12.6225C12.1137 12.9225 12.3906 13.2283 12.6906 13.5341C13.0022 13.8399 13.3022 14.1226 13.608 14.3822C13.908 14.6361 14.1561 14.8092 14.3523 14.913C14.3811 14.9246 14.4157 14.9419 14.4561 14.9592C14.5023 14.9765 14.5484 14.9823 14.6003 14.9823C14.6984 14.9823 14.7734 14.9476 14.8369 14.8842L15.2754 14.4515C15.4196 14.3072 15.5581 14.1976 15.6908 14.1284C15.8235 14.0476 15.9562 14.0072 16.1004 14.0072C16.2101 14.0072 16.3254 14.0303 16.4524 14.0822C16.5793 14.1341 16.712 14.2091 16.8562 14.3072L18.766 15.6631C18.916 15.7669 19.0198 15.8881 19.0833 16.0323C19.141 16.1766 19.1756 16.3208 19.1756 16.4823Z" stroke="white" stroke-miterlimit="10"/>
</svg>
