<svg width="26" height="26" viewBox="0 0 26 26" fill="none" xmlns="http://www.w3.org/2000/svg">
<rect x="0.308594" y="0.333008" width="25.2075" height="25.2075" rx="6" fill="#606060"/>
<path d="M17.4277 19.3562C16.8138 19.5376 16.0884 19.6213 15.2375 19.6213H11.0525C10.2015 19.6213 9.47611 19.5376 8.8623 19.3562C9.01576 17.5427 10.8781 16.1128 13.145 16.1128C15.4119 16.1128 17.2742 17.5427 17.4277 19.3562Z" stroke="white" stroke-linecap="round" stroke-linejoin="round"/>
<path d="M15.2375 5.67114H11.0524C7.56493 5.67114 6.16992 7.06615 6.16992 10.5537V14.7387C6.16992 17.3753 6.96508 18.8191 8.86229 19.3562C9.01574 17.5427 10.8781 16.1128 13.145 16.1128C15.4118 16.1128 17.2742 17.5427 17.4276 19.3562C19.3248 18.8191 20.12 17.3753 20.12 14.7387V10.5537C20.12 7.06615 18.725 5.67114 15.2375 5.67114ZM13.145 14.1598C11.7639 14.1598 10.6479 13.0368 10.6479 11.6557C10.6479 10.2747 11.7639 9.15866 13.145 9.15866C14.526 9.15866 15.642 10.2747 15.642 11.6557C15.642 13.0368 14.526 14.1598 13.145 14.1598Z" stroke="white" stroke-linecap="round" stroke-linejoin="round"/>
<path d="M15.6421 11.6558C15.6421 13.0368 14.5261 14.1598 13.145 14.1598C11.764 14.1598 10.6479 13.0368 10.6479 11.6558C10.6479 10.2747 11.764 9.15869 13.145 9.15869C14.5261 9.15869 15.6421 10.2747 15.6421 11.6558Z" stroke="white" stroke-linecap="round" stroke-linejoin="round"/>
</svg>
