<svg width="20" height="19" viewBox="0 0 20 19" fill="none" xmlns="http://www.w3.org/2000/svg">
<path d="M13.0391 10.2534V13.4937C13.0391 16.1938 11.959 17.2739 9.25879 17.2739H6.01855C3.31836 17.2739 2.23828 16.1938 2.23828 13.4937V10.2534C2.23828 7.55322 3.31836 6.47314 6.01855 6.47314H9.25879C11.959 6.47314 13.0391 7.55322 13.0391 10.2534Z" stroke="#5E7DBE" stroke-width="1.2" stroke-linecap="round" stroke-linejoin="round"/>
<path d="M17.668 5.62451V8.86475C17.668 11.5649 16.5879 12.645 13.8877 12.645H13.0391V10.2534C13.0391 7.55322 11.959 6.47314 9.25879 6.47314H6.86719V5.62451C6.86719 2.92432 7.94727 1.84424 10.6475 1.84424H13.8877C16.5879 1.84424 17.668 2.92432 17.668 5.62451Z" stroke="#5E7DBE" stroke-width="1.2" stroke-linecap="round" stroke-linejoin="round"/>
</svg>
