<svg width="28" height="22" viewBox="0 0 28 22" fill="none" xmlns="http://www.w3.org/2000/svg">
<path d="M2.18312 21.0117H6.557V10.3894L0.308594 5.70312V19.1372C0.308594 20.1744 1.149 21.0117 2.18312 21.0117Z" fill="#D85240"/>
<path d="M21.5527 21.0117H25.9266C26.9639 21.0117 27.8011 20.1713 27.8011 19.1372V5.70312L21.5527 10.3894" fill="#D85240"/>
<path d="M21.5527 2.26656V10.3895L27.8011 5.70318V3.20382C27.8011 0.88566 25.1549 -0.435877 23.3023 0.954393" fill="#D85240"/>
<path d="M6.55664 10.3895V2.2666L14.0547 7.89017L21.5528 2.2666V10.3895L14.0547 16.0131" fill="#D85240"/>
<path d="M0.308594 3.20382V5.70318L6.557 10.3895V2.26656L4.80745 0.954393C2.95167 -0.435877 0.308594 0.88566 0.308594 3.20382Z" fill="#D85240"/>
</svg>
