<svg width="24" height="24" viewBox="0 0 24 24" fill="none" xmlns="http://www.w3.org/2000/svg">
<path d="M8.13954 11.9813C8.13954 9.80661 9.90149 8.04321 12.0756 8.04321C14.2496 8.04321 16.0125 9.80661 16.0125 11.9813C16.0125 14.156 14.2496 15.9194 12.0756 15.9194C9.90149 15.9194 8.13954 14.156 8.13954 11.9813ZM6.0113 11.9813C6.0113 15.3316 8.72626 18.0473 12.0756 18.0473C15.4248 18.0473 18.1398 15.3316 18.1398 11.9813C18.1398 8.63104 15.4248 5.9153 12.0756 5.9153C8.72626 5.9153 6.0113 8.63104 6.0113 11.9813ZM16.9627 5.67478C16.9626 5.95515 17.0456 6.22927 17.2012 6.46245C17.3568 6.69564 17.5781 6.87742 17.837 6.98482C18.0959 7.09222 18.3809 7.12041 18.6558 7.06582C18.9307 7.01123 19.1833 6.87632 19.3816 6.67814C19.5799 6.47997 19.7149 6.22743 19.7697 5.95246C19.8245 5.6775 19.7966 5.39245 19.6894 5.13338C19.5822 4.8743 19.4007 4.65283 19.1677 4.49697C18.9347 4.34111 18.6607 4.25786 18.3804 4.25775H18.3799C18.0042 4.25792 17.6439 4.40725 17.3782 4.67294C17.1124 4.93864 16.963 5.29896 16.9627 5.67478ZM7.30434 21.5971C6.15292 21.5446 5.52709 21.3528 5.11119 21.1907C4.55981 20.976 4.1664 20.7202 3.75277 20.3071C3.33913 19.8939 3.0831 19.5007 2.86938 18.9492C2.70726 18.5334 2.51546 17.9072 2.46312 16.7554C2.40587 15.5102 2.39444 15.1361 2.39444 11.9814C2.39444 8.82667 2.40681 8.45365 2.46312 7.20739C2.51556 6.05564 2.70877 5.43067 2.86938 5.01361C3.08404 4.46207 3.3397 4.06854 3.75277 3.65479C4.16583 3.24104 4.55886 2.98493 5.11119 2.77116C5.5269 2.60898 6.15292 2.41713 7.30434 2.36478C8.5492 2.30751 8.92315 2.29607 12.0756 2.29607C15.228 2.29607 15.6023 2.30845 16.8482 2.36478C17.9996 2.41723 18.6244 2.61049 19.0413 2.77116C19.5927 2.98493 19.9861 3.24161 20.3998 3.65479C20.8134 4.06798 21.0685 4.46207 21.2831 5.01361C21.4453 5.42944 21.6371 6.05564 21.6894 7.20739C21.7467 8.45365 21.7581 8.82667 21.7581 11.9814C21.7581 15.1361 21.7467 15.5091 21.6894 16.7554C21.637 17.9072 21.4442 18.5332 21.2831 18.9492C21.0685 19.5007 20.8128 19.8943 20.3998 20.3071C19.9867 20.7199 19.5927 20.976 19.0413 21.1907C18.6256 21.3529 17.9996 21.5447 16.8482 21.5971C15.6033 21.6543 15.2294 21.6658 12.0756 21.6658C8.92173 21.6658 8.54882 21.6543 7.30434 21.5971ZM7.20656 0.23951C5.94932 0.296781 5.09022 0.49619 4.33996 0.788216C3.56296 1.08979 2.90519 1.49437 2.2479 2.15081C1.5906 2.80726 1.18718 3.46625 0.885693 4.24348C0.593752 4.99443 0.3944 5.8533 0.337146 7.1109C0.278947 8.37049 0.265625 8.77318 0.265625 11.9813C0.265625 15.1894 0.278947 15.5921 0.337146 16.8517C0.3944 18.1094 0.593752 18.9682 0.885693 19.7191C1.18718 20.4959 1.5907 21.1556 2.2479 21.8118C2.9051 22.468 3.56296 22.872 4.33996 23.1744C5.09163 23.4664 5.94932 23.6658 7.20656 23.7231C8.46644 23.7804 8.86835 23.7946 12.0756 23.7946C15.2828 23.7946 15.6853 23.7813 16.9445 23.7231C18.2019 23.6658 19.0604 23.4664 19.8111 23.1744C20.5877 22.872 21.2459 22.4682 21.9032 21.8118C22.5605 21.1554 22.9631 20.4959 23.2654 19.7191C23.5574 18.9682 23.7576 18.1093 23.814 16.8517C23.8712 15.5912 23.8845 15.1894 23.8845 11.9813C23.8845 8.77318 23.8712 8.37049 23.814 7.1109C23.7567 5.85321 23.5574 4.99395 23.2654 4.24348C22.9631 3.46672 22.5595 2.8083 21.9032 2.15081C21.247 1.49333 20.5877 1.08979 19.8121 0.788216C19.0604 0.49619 18.2018 0.295836 16.9455 0.23951C15.6863 0.182239 15.2837 0.167969 12.0765 0.167969C8.8693 0.167969 8.46644 0.181294 7.20656 0.23951Z" fill="url(#paint0_linear_479_2729)"/>
<path d="M8.13954 11.9813C8.13954 9.80661 9.90149 8.04321 12.0756 8.04321C14.2496 8.04321 16.0125 9.80661 16.0125 11.9813C16.0125 14.156 14.2496 15.9194 12.0756 15.9194C9.90149 15.9194 8.13954 14.156 8.13954 11.9813ZM6.0113 11.9813C6.0113 15.3316 8.72626 18.0473 12.0756 18.0473C15.4248 18.0473 18.1398 15.3316 18.1398 11.9813C18.1398 8.63104 15.4248 5.9153 12.0756 5.9153C8.72626 5.9153 6.0113 8.63104 6.0113 11.9813ZM16.9627 5.67478C16.9626 5.95515 17.0456 6.22927 17.2012 6.46245C17.3568 6.69564 17.5781 6.87742 17.837 6.98482C18.0959 7.09222 18.3809 7.12041 18.6558 7.06582C18.9307 7.01123 19.1833 6.87632 19.3816 6.67814C19.5799 6.47997 19.7149 6.22743 19.7697 5.95246C19.8245 5.6775 19.7966 5.39245 19.6894 5.13338C19.5822 4.8743 19.4007 4.65283 19.1677 4.49697C18.9347 4.34111 18.6607 4.25786 18.3804 4.25775H18.3799C18.0042 4.25792 17.6439 4.40725 17.3782 4.67294C17.1124 4.93864 16.963 5.29896 16.9627 5.67478ZM7.30434 21.5971C6.15292 21.5446 5.52709 21.3528 5.11119 21.1907C4.55981 20.976 4.1664 20.7202 3.75277 20.3071C3.33913 19.8939 3.0831 19.5007 2.86938 18.9492C2.70726 18.5334 2.51546 17.9072 2.46312 16.7554C2.40587 15.5102 2.39444 15.1361 2.39444 11.9814C2.39444 8.82667 2.40681 8.45365 2.46312 7.20739C2.51556 6.05564 2.70877 5.43067 2.86938 5.01361C3.08404 4.46207 3.3397 4.06854 3.75277 3.65479C4.16583 3.24104 4.55886 2.98493 5.11119 2.77116C5.5269 2.60898 6.15292 2.41713 7.30434 2.36478C8.5492 2.30751 8.92315 2.29607 12.0756 2.29607C15.228 2.29607 15.6023 2.30845 16.8482 2.36478C17.9996 2.41723 18.6244 2.61049 19.0413 2.77116C19.5927 2.98493 19.9861 3.24161 20.3998 3.65479C20.8134 4.06798 21.0685 4.46207 21.2831 5.01361C21.4453 5.42944 21.6371 6.05564 21.6894 7.20739C21.7467 8.45365 21.7581 8.82667 21.7581 11.9814C21.7581 15.1361 21.7467 15.5091 21.6894 16.7554C21.637 17.9072 21.4442 18.5332 21.2831 18.9492C21.0685 19.5007 20.8128 19.8943 20.3998 20.3071C19.9867 20.7199 19.5927 20.976 19.0413 21.1907C18.6256 21.3529 17.9996 21.5447 16.8482 21.5971C15.6033 21.6543 15.2294 21.6658 12.0756 21.6658C8.92173 21.6658 8.54882 21.6543 7.30434 21.5971ZM7.20656 0.23951C5.94932 0.296781 5.09022 0.49619 4.33996 0.788216C3.56296 1.08979 2.90519 1.49437 2.2479 2.15081C1.5906 2.80726 1.18718 3.46625 0.885693 4.24348C0.593752 4.99443 0.3944 5.8533 0.337146 7.1109C0.278947 8.37049 0.265625 8.77318 0.265625 11.9813C0.265625 15.1894 0.278947 15.5921 0.337146 16.8517C0.3944 18.1094 0.593752 18.9682 0.885693 19.7191C1.18718 20.4959 1.5907 21.1556 2.2479 21.8118C2.9051 22.468 3.56296 22.872 4.33996 23.1744C5.09163 23.4664 5.94932 23.6658 7.20656 23.7231C8.46644 23.7804 8.86835 23.7946 12.0756 23.7946C15.2828 23.7946 15.6853 23.7813 16.9445 23.7231C18.2019 23.6658 19.0604 23.4664 19.8111 23.1744C20.5877 22.872 21.2459 22.4682 21.9032 21.8118C22.5605 21.1554 22.9631 20.4959 23.2654 19.7191C23.5574 18.9682 23.7576 18.1093 23.814 16.8517C23.8712 15.5912 23.8845 15.1894 23.8845 11.9813C23.8845 8.77318 23.8712 8.37049 23.814 7.1109C23.7567 5.85321 23.5574 4.99395 23.2654 4.24348C22.9631 3.46672 22.5595 2.8083 21.9032 2.15081C21.247 1.49333 20.5877 1.08979 19.8121 0.788216C19.0604 0.49619 18.2018 0.295836 16.9455 0.23951C15.6863 0.182239 15.2837 0.167969 12.0765 0.167969C8.8693 0.167969 8.46644 0.181294 7.20656 0.23951Z" fill="url(#paint1_linear_479_2729)"/>
<defs>
<linearGradient id="paint0_linear_479_2729" x1="0.265625" y1="-6.76667" x2="9.47306" y2="42.7904" gradientUnits="userSpaceOnUse">
<stop stop-color="#DFAF34"/>
<stop offset="1" stop-color="#DC34DF"/>
</linearGradient>
<linearGradient id="paint1_linear_479_2729" x1="0.265625" y1="-6.76667" x2="9.47306" y2="42.7904" gradientUnits="userSpaceOnUse">
<stop stop-color="#DFAF34"/>
<stop offset="1" stop-color="#DC34DF"/>
</linearGradient>
</defs>
</svg>
