<svg width="23" height="20" viewBox="0 0 23 20" fill="none" xmlns="http://www.w3.org/2000/svg">
<path d="M2.31582 8.60782C2.31582 8.60782 11.9208 4.56235 15.252 3.13784C16.529 2.56809 20.8596 0.74471 20.8596 0.74471C20.8596 0.74471 22.8583 -0.0529488 22.6917 1.8843C22.6362 2.68204 22.1921 5.47396 21.7479 8.49387C21.0816 12.7673 20.3599 17.4396 20.3599 17.4396C20.3599 17.4396 20.2488 18.7501 19.305 18.978C18.3612 19.2059 16.8066 18.1804 16.529 17.9524C16.3069 17.7815 12.365 15.2174 10.9215 13.9638C10.5328 13.622 10.0887 12.9383 10.9769 12.1405C12.9757 10.2602 15.363 7.92411 16.8066 6.44267C17.4728 5.75888 18.139 4.16348 15.363 6.10073C11.4211 8.89274 7.53473 11.5138 7.53473 11.5138C7.53473 11.5138 6.64638 12.0835 4.98079 11.5707C3.31513 11.058 1.37192 10.3742 1.37192 10.3742C1.37192 10.3742 0.0395096 9.51951 2.31582 8.60782Z" fill="#437FFF"/>
</svg>
