<svg width="24" height="24" viewBox="0 0 24 24" fill="none" xmlns="http://www.w3.org/2000/svg">
<path d="M0.25 23.7946L1.94365 17.4972C0.577764 15.0441 0.143808 12.1814 0.721416 9.43463C1.29902 6.68782 2.84945 4.24109 5.08819 2.54342C7.32694 0.84574 10.1038 0.0109942 12.9093 0.192357C15.7148 0.37372 18.3606 1.55903 20.3614 3.53077C22.3621 5.50251 23.5835 8.12843 23.8015 10.9267C24.0194 13.7249 23.2193 16.5078 21.5479 18.7646C19.8765 21.0214 17.446 22.6008 14.7023 23.2129C11.9587 23.8251 9.08591 23.4289 6.61121 22.0971L0.25 23.7946ZM6.91793 19.7406L7.31134 19.9736C9.10382 21.0343 11.1974 21.4732 13.2658 21.222C15.3343 20.9708 17.2614 20.0435 18.7468 18.5847C20.2323 17.1259 21.1926 15.2175 21.4782 13.1569C21.7639 11.0962 21.3587 8.9992 20.3258 7.1925C19.293 5.3858 17.6905 3.97094 15.7681 3.1684C13.8458 2.36586 11.7114 2.22073 9.69782 2.75562C7.68419 3.29051 5.90435 4.47537 4.63566 6.12556C3.36697 7.77576 2.6807 9.79859 2.68379 11.8788C2.68211 13.6037 3.15993 15.2952 4.06406 16.765L4.31077 17.171L3.36392 20.6859L6.91793 19.7406Z" fill="#25C62D"/>
<path fill-rule="evenodd" clip-rule="evenodd" d="M16.4703 13.4953C16.2397 13.3096 15.9697 13.1789 15.6808 13.1132C15.3919 13.0474 15.0918 13.0483 14.8034 13.1159C14.3699 13.2956 14.0899 13.9746 13.8098 14.3141C13.7508 14.3955 13.664 14.4526 13.5658 14.4746C13.4676 14.4967 13.3647 14.4822 13.2764 14.4339C11.6896 13.8135 10.3596 12.6757 9.50234 11.2054C9.42923 11.1136 9.39462 10.9971 9.40581 10.8804C9.41701 10.7637 9.47313 10.6558 9.56236 10.5796C9.87471 10.2709 10.104 9.88855 10.2291 9.46791C10.2569 9.00394 10.1505 8.54177 9.92242 8.13654C9.74614 7.56841 9.41064 7.06253 8.95557 6.67868C8.72086 6.57329 8.46062 6.53796 8.20624 6.57694C7.95186 6.61591 7.71422 6.72754 7.52197 6.89836C7.18822 7.18583 6.92331 7.54438 6.74675 7.94761C6.57019 8.35083 6.48648 8.78846 6.50178 9.22827C6.50281 9.47524 6.53416 9.72116 6.59513 9.96052C6.74996 10.5356 6.98807 11.0851 7.30193 11.5915C7.52837 11.9794 7.77544 12.3549 8.04207 12.7165C8.9086 13.904 9.99784 14.9124 11.2493 15.6854C11.8774 16.0783 12.5486 16.3977 13.2497 16.6374C13.9781 16.967 14.7822 17.0935 15.5768 17.0035C16.0296 16.9351 16.4585 16.7566 16.8259 16.4838C17.1933 16.2111 17.488 15.8523 17.6839 15.4391C17.799 15.1895 17.8339 14.9105 17.7839 14.6403C17.6639 14.0878 16.9238 13.7616 16.4703 13.4953Z" fill="#25C62D"/>
</svg>
