<svg width="19" height="19" viewBox="0 0 19 19" fill="none" xmlns="http://www.w3.org/2000/svg">
<rect x="0.015625" y="0.83606" width="18.0391" height="18.0391" rx="4" fill="#E3A507"/>
<path d="M8.58512 9.46462C8.58512 10.018 8.52512 10.498 8.40512 10.9046C8.29179 11.3046 8.13179 11.638 7.92512 11.9046C7.71845 12.1646 7.47179 12.3613 7.18512 12.4946C6.90512 12.6213 6.60179 12.6846 6.27512 12.6846C5.95512 12.6846 5.65512 12.6213 5.37512 12.4946C5.09512 12.3613 4.85179 12.1646 4.64512 11.9046C4.44512 11.638 4.28512 11.3046 4.16512 10.9046C4.05179 10.498 3.99512 10.018 3.99512 9.46462C3.99512 8.91129 4.05179 8.43129 4.16512 8.02462C4.28512 7.61796 4.44512 7.28462 4.64512 7.02462C4.85179 6.75796 5.09512 6.56129 5.37512 6.43462C5.65512 6.30129 5.95512 6.23462 6.27512 6.23462C6.60179 6.23462 6.90512 6.30129 7.18512 6.43462C7.47179 6.56129 7.71845 6.75796 7.92512 7.02462C8.13179 7.28462 8.29179 7.61796 8.40512 8.02462C8.52512 8.43129 8.58512 8.91129 8.58512 9.46462ZM7.69512 9.46462C7.69512 8.98462 7.65512 8.58462 7.57512 8.26462C7.50179 7.93796 7.39845 7.67462 7.26512 7.47462C7.13845 7.27462 6.98845 7.13462 6.81512 7.05462C6.64179 6.96796 6.46179 6.92462 6.27512 6.92462C6.08845 6.92462 5.90845 6.96796 5.73512 7.05462C5.56845 7.13462 5.41845 7.27462 5.28512 7.47462C5.15845 7.67462 5.05512 7.93796 4.97512 8.26462C4.90179 8.58462 4.86512 8.98462 4.86512 9.46462C4.86512 9.94462 4.90179 10.348 4.97512 10.6746C5.05512 10.9946 5.15845 11.2546 5.28512 11.4546C5.41845 11.648 5.56845 11.788 5.73512 11.8746C5.90845 11.9546 6.08845 11.9946 6.27512 11.9946C6.46179 11.9946 6.64179 11.9546 6.81512 11.8746C6.98845 11.788 7.13845 11.648 7.26512 11.4546C7.39845 11.2546 7.50179 10.9946 7.57512 10.6746C7.65512 10.348 7.69512 9.94462 7.69512 9.46462ZM14.0636 9.46462C14.0636 10.018 14.0036 10.498 13.8836 10.9046C13.7703 11.3046 13.6103 11.638 13.4036 11.9046C13.197 12.1646 12.9503 12.3613 12.6636 12.4946C12.3836 12.6213 12.0803 12.6846 11.7536 12.6846C11.4336 12.6846 11.1336 12.6213 10.8536 12.4946C10.5736 12.3613 10.3303 12.1646 10.1236 11.9046C9.92364 11.638 9.76364 11.3046 9.64364 10.9046C9.5303 10.498 9.47364 10.018 9.47364 9.46462C9.47364 8.91129 9.5303 8.43129 9.64364 8.02462C9.76364 7.61796 9.92364 7.28462 10.1236 7.02462C10.3303 6.75796 10.5736 6.56129 10.8536 6.43462C11.1336 6.30129 11.4336 6.23462 11.7536 6.23462C12.0803 6.23462 12.3836 6.30129 12.6636 6.43462C12.9503 6.56129 13.197 6.75796 13.4036 7.02462C13.6103 7.28462 13.7703 7.61796 13.8836 8.02462C14.0036 8.43129 14.0636 8.91129 14.0636 9.46462ZM13.1736 9.46462C13.1736 8.98462 13.1336 8.58462 13.0536 8.26462C12.9803 7.93796 12.877 7.67462 12.7436 7.47462C12.617 7.27462 12.467 7.13462 12.2936 7.05462C12.1203 6.96796 11.9403 6.92462 11.7536 6.92462C11.567 6.92462 11.387 6.96796 11.2136 7.05462C11.047 7.13462 10.897 7.27462 10.7636 7.47462C10.637 7.67462 10.5336 7.93796 10.4536 8.26462C10.3803 8.58462 10.3436 8.98462 10.3436 9.46462C10.3436 9.94462 10.3803 10.348 10.4536 10.6746C10.5336 10.9946 10.637 11.2546 10.7636 11.4546C10.897 11.648 11.047 11.788 11.2136 11.8746C11.387 11.9546 11.567 11.9946 11.7536 11.9946C11.9403 11.9946 12.1203 11.9546 12.2936 11.8746C12.467 11.788 12.617 11.648 12.7436 11.4546C12.877 11.2546 12.9803 10.9946 13.0536 10.6746C13.1336 10.348 13.1736 9.94462 13.1736 9.46462Z" fill="white"/>
</svg>
