<svg width="19" height="19" viewBox="0 0 19 19" fill="none" xmlns="http://www.w3.org/2000/svg">
<rect x="0.199219" y="0.83606" width="18.0391" height="18.0391" rx="4" fill="#D85240"/>
<path d="M8.76871 9.46462C8.76871 10.018 8.70871 10.498 8.58871 10.9046C8.47538 11.3046 8.31538 11.638 8.10871 11.9046C7.90205 12.1646 7.65538 12.3613 7.36871 12.4946C7.08871 12.6213 6.78538 12.6846 6.45871 12.6846C6.13871 12.6846 5.83871 12.6213 5.55871 12.4946C5.27871 12.3613 5.03538 12.1646 4.82871 11.9046C4.62871 11.638 4.46871 11.3046 4.34871 10.9046C4.23538 10.498 4.17871 10.018 4.17871 9.46462C4.17871 8.91129 4.23538 8.43129 4.34871 8.02462C4.46871 7.61796 4.62871 7.28462 4.82871 7.02462C5.03538 6.75796 5.27871 6.56129 5.55871 6.43462C5.83871 6.30129 6.13871 6.23462 6.45871 6.23462C6.78538 6.23462 7.08871 6.30129 7.36871 6.43462C7.65538 6.56129 7.90205 6.75796 8.10871 7.02462C8.31538 7.28462 8.47538 7.61796 8.58871 8.02462C8.70871 8.43129 8.76871 8.91129 8.76871 9.46462ZM7.87871 9.46462C7.87871 8.98462 7.83871 8.58462 7.75871 8.26462C7.68538 7.93796 7.58205 7.67462 7.44871 7.47462C7.32205 7.27462 7.17205 7.13462 6.99871 7.05462C6.82538 6.96796 6.64538 6.92462 6.45871 6.92462C6.27205 6.92462 6.09205 6.96796 5.91871 7.05462C5.75205 7.13462 5.60205 7.27462 5.46871 7.47462C5.34205 7.67462 5.23871 7.93796 5.15871 8.26462C5.08538 8.58462 5.04871 8.98462 5.04871 9.46462C5.04871 9.94462 5.08538 10.348 5.15871 10.6746C5.23871 10.9946 5.34205 11.2546 5.46871 11.4546C5.60205 11.648 5.75205 11.788 5.91871 11.8746C6.09205 11.9546 6.27205 11.9946 6.45871 11.9946C6.64538 11.9946 6.82538 11.9546 6.99871 11.8746C7.17205 11.788 7.32205 11.648 7.44871 11.4546C7.58205 11.2546 7.68538 10.9946 7.75871 10.6746C7.83871 10.348 7.87871 9.94462 7.87871 9.46462ZM14.2472 9.46462C14.2472 10.018 14.1872 10.498 14.0672 10.9046C13.9539 11.3046 13.7939 11.638 13.5872 11.9046C13.3806 12.1646 13.1339 12.3613 12.8472 12.4946C12.5672 12.6213 12.2639 12.6846 11.9372 12.6846C11.6172 12.6846 11.3172 12.6213 11.0372 12.4946C10.7572 12.3613 10.5139 12.1646 10.3072 11.9046C10.1072 11.638 9.94723 11.3046 9.82723 10.9046C9.7139 10.498 9.65723 10.018 9.65723 9.46462C9.65723 8.91129 9.7139 8.43129 9.82723 8.02462C9.94723 7.61796 10.1072 7.28462 10.3072 7.02462C10.5139 6.75796 10.7572 6.56129 11.0372 6.43462C11.3172 6.30129 11.6172 6.23462 11.9372 6.23462C12.2639 6.23462 12.5672 6.30129 12.8472 6.43462C13.1339 6.56129 13.3806 6.75796 13.5872 7.02462C13.7939 7.28462 13.9539 7.61796 14.0672 8.02462C14.1872 8.43129 14.2472 8.91129 14.2472 9.46462ZM13.3572 9.46462C13.3572 8.98462 13.3172 8.58462 13.2372 8.26462C13.1639 7.93796 13.0606 7.67462 12.9272 7.47462C12.8006 7.27462 12.6506 7.13462 12.4772 7.05462C12.3039 6.96796 12.1239 6.92462 11.9372 6.92462C11.7506 6.92462 11.5706 6.96796 11.3972 7.05462C11.2306 7.13462 11.0806 7.27462 10.9472 7.47462C10.8206 7.67462 10.7172 7.93796 10.6372 8.26462C10.5639 8.58462 10.5272 8.98462 10.5272 9.46462C10.5272 9.94462 10.5639 10.348 10.6372 10.6746C10.7172 10.9946 10.8206 11.2546 10.9472 11.4546C11.0806 11.648 11.2306 11.788 11.3972 11.8746C11.5706 11.9546 11.7506 11.9946 11.9372 11.9946C12.1239 11.9946 12.3039 11.9546 12.4772 11.8746C12.6506 11.788 12.8006 11.648 12.9272 11.4546C13.0606 11.2546 13.1639 10.9946 13.2372 10.6746C13.3172 10.348 13.3572 9.94462 13.3572 9.46462Z" fill="white"/>
</svg>
