<svg width="25" height="25" viewBox="0 0 25 25" fill="none" xmlns="http://www.w3.org/2000/svg">
<path d="M17.5008 2.58398H9.24081C8.84081 2.58398 8.46078 2.72399 8.15078 2.96399L5.96078 4.71399C5.08078 5.41399 5.08078 6.74397 5.96078 7.44397L8.15078 9.19397C8.46078 9.44397 8.85081 9.57397 9.24081 9.57397H17.5008C18.4708 9.57397 19.2508 8.79397 19.2508 7.82397V4.32397C19.2508 3.36397 18.4708 2.58398 17.5008 2.58398Z" stroke="#404040" stroke-width="1.5" stroke-linecap="round" stroke-linejoin="round"/>
<path d="M7.08105 12.584H15.3411C15.7411 12.584 16.1211 12.724 16.4311 12.964L18.6211 14.714C19.5011 15.414 19.5011 16.744 18.6211 17.444L16.4311 19.194C16.1211 19.444 15.7311 19.574 15.3411 19.574H7.08105C6.11105 19.574 5.33105 18.794 5.33105 17.824V14.324C5.33105 13.364 6.11105 12.584 7.08105 12.584Z" stroke="#404040" stroke-width="1.5" stroke-linecap="round" stroke-linejoin="round"/>
<path d="M12.2812 12.584V9.58398" stroke="#404040" stroke-width="1.5" stroke-linecap="round" stroke-linejoin="round"/>
<path d="M12.2812 22.584V19.584" stroke="#404040" stroke-width="1.5" stroke-linecap="round" stroke-linejoin="round"/>
<path d="M9.28125 22.584H15.2812" stroke="#404040" stroke-width="1.5" stroke-linecap="round" stroke-linejoin="round"/>
</svg>
