<svg width="24" height="24" viewBox="0 0 24 24" fill="none" xmlns="http://www.w3.org/2000/svg">
<rect x="0.933594" y="1.10571" width="21.8672" height="21.8672" rx="4.5" fill="white" stroke="#5E7DBE"/>
<path d="M5.88281 12.0392L8.71281 14.8692L14.3828 9.20923" stroke="#5E7DBE" stroke-width="1.2" stroke-linecap="round" stroke-linejoin="round"/>
<path d="M12.1802 14.8692L11.7557 15.2933C11.9898 15.5276 12.3696 15.5279 12.6041 15.2939L12.1802 14.8692ZM18.2741 9.63387C18.5086 9.39976 18.5089 9.01986 18.2748 8.78534C18.0407 8.55082 17.6608 8.55048 17.4263 8.78459L18.2741 9.63387ZM10.9232 14.4599L11.7557 15.2933L12.6047 14.4452L11.7721 13.6118L10.9232 14.4599ZM12.6041 15.2939L18.2741 9.63387L17.4263 8.78459L11.7563 14.4446L12.6041 15.2939Z" fill="#5E7DBE"/>
</svg>
