<svg width="15" height="17" viewBox="0 0 15 17" fill="none" xmlns="http://www.w3.org/2000/svg">
<path d="M2.68772 0.766479H12.5815C13.407 0.766479 14.0778 1.43724 14.0778 2.2628V3.9139C14.0778 4.52017 13.7037 5.26833 13.3296 5.64241L10.1048 8.49315C9.65333 8.86722 9.35665 9.61538 9.35665 10.2216V13.4465C9.35665 13.8979 9.05996 14.4913 8.68589 14.7235L7.64104 15.3814C6.6607 15.9876 5.31917 15.304 5.31917 14.1043V10.1314C5.31917 9.60248 5.02249 8.93172 4.71291 8.55764L1.86217 5.55211C1.48809 5.19093 1.19141 4.50727 1.19141 4.05579V2.34019C1.19141 1.43724 1.86217 0.766479 2.68772 0.766479Z" stroke="#404040" stroke-width="1.5" stroke-miterlimit="10" stroke-linecap="round" stroke-linejoin="round"/>
</svg>
