<svg width="20" height="22" viewBox="0 0 20 22" fill="none" xmlns="http://www.w3.org/2000/svg">
<path d="M16.8849 8.17088L17.5887 7.43951C18.0887 6.92951 18.5988 5.9195 18.5988 5.1095V2.8895C18.5988 1.7795 17.6887 0.869507 16.5787 0.869507H3.23877C2.12877 0.869507 1.21875 1.7795 1.21875 2.9895V5.31952C1.21875 5.91952 1.62872 6.82951 2.12872 7.33951L5.96875 11.3795C6.36875 11.8795 6.77875 12.7895 6.77875 13.4995V18.8495C6.77875 20.4695 8.59875 21.3795 9.90875 20.5695L11.3187 19.6595C11.8287 19.3595 11.9471 19.2424 11.9471 18.6324" stroke="#5E7DBE" stroke-width="1.2" stroke-miterlimit="10" stroke-linecap="round" stroke-linejoin="round"/>
<path d="M13.5242 12.5647L14.4442 13.4847L16.4336 11.6446" stroke="#5E7DBE" stroke-width="1.2" stroke-linecap="round" stroke-linejoin="round"/>
<path d="M16.7617 8.22778C17.8663 8.22778 18.7617 9.12321 18.7617 10.2278L18.7617 16.899C18.7617 18.7028 17.7596 19.1037 16.4903 17.8343L15.6886 17.0327C15.1541 16.4982 14.2856 16.4982 13.818 17.0327L13.0163 17.8343C11.747 19.1037 10.7448 18.636 10.7448 16.899L10.7448 10.2278" stroke="#5E7DBE" stroke-width="1.2" stroke-miterlimit="10" stroke-linecap="round" stroke-linejoin="round"/>
</svg>
