<svg width="20" height="21" viewBox="0 0 20 21" fill="none" xmlns="http://www.w3.org/2000/svg">
<path d="M16.6896 7.9631L17.3934 7.29713C17.8934 6.83274 18.4034 5.91306 18.4034 5.1755V3.15403C18.4034 2.1433 17.4934 1.3147 16.3834 1.3147H3.04346C1.93346 1.3147 1.02344 2.14331 1.02344 3.2451V5.36674C1.02344 5.91308 1.43341 6.74168 1.93341 7.20607L5.77344 10.8848C6.17344 11.3401 6.58344 12.1687 6.58344 12.8152V17.6867C6.58344 19.1618 8.40344 19.9905 9.71344 19.2529L11.1234 18.4243C11.6334 18.1511 11.7517 18.0445 11.7517 17.489" stroke="#5E7DBE" stroke-width="1.5" stroke-miterlimit="10" stroke-linecap="round" stroke-linejoin="round"/>
<path d="M13.3281 11.9638L14.2481 12.8016L16.2375 11.1261" stroke="#5E7DBE" stroke-width="1.2" stroke-linecap="round" stroke-linejoin="round"/>
<path d="M16.5664 8.01489C17.671 8.01489 18.5664 8.91032 18.5664 10.0149L18.5664 15.9107C18.5664 17.5531 17.5643 17.9181 16.295 16.7623L15.4933 16.0323C14.9588 15.5457 14.0903 15.5457 13.6227 16.0323L12.821 16.7623C11.5516 17.9181 10.5495 17.4923 10.5495 15.9107L10.5495 10.0149" stroke="#5E7DBE" stroke-width="1.5" stroke-miterlimit="10" stroke-linecap="round" stroke-linejoin="round"/>
</svg>
