<svg width="24" height="25" viewBox="0 0 24 25" fill="none" xmlns="http://www.w3.org/2000/svg">
<path d="M13.4086 21.3044L11.9986 22.2144C10.6886 23.0244 8.86859 22.1144 8.86859 20.4944V15.1444C8.86859 14.4344 8.46859 13.5244 8.05859 13.0244L4.21859 8.98438C3.70859 8.47438 3.30859 7.57442 3.30859 6.96442V4.64441C3.30859 3.43441 4.21859 2.52441 5.32859 2.52441H18.6686C19.7786 2.52441 20.6886 3.43443 20.6886 4.54443V6.7644C20.6886 7.5744 20.1786 8.58441 19.6786 9.08441" stroke="#D85240" stroke-width="1.5" stroke-miterlimit="10" stroke-linecap="round" stroke-linejoin="round"/>
<path d="M21.6289 15.2644C21.6289 16.1544 21.3789 16.9944 20.9389 17.7144C20.1189 19.0944 18.6089 20.0144 16.8789 20.0144C15.1489 20.0144 13.6389 19.0844 12.8189 17.7144C12.3789 17.0044 12.1289 16.1544 12.1289 15.2644C12.1289 12.6444 14.2589 10.5144 16.8789 10.5144C19.4989 10.5144 21.6289 12.6444 21.6289 15.2644Z" stroke="#D85240" stroke-width="1.5" stroke-miterlimit="10" stroke-linecap="round" stroke-linejoin="round"/>
<path d="M18.1506 16.5044L15.6406 13.9944" stroke="#D85240" stroke-width="1.5" stroke-miterlimit="10" stroke-linecap="round" stroke-linejoin="round"/>
<path d="M18.1311 14.0244L15.6211 16.5344" stroke="#D85240" stroke-width="1.5" stroke-miterlimit="10" stroke-linecap="round" stroke-linejoin="round"/>
<path d="M20.6886 4.53442V6.75439C20.6886 7.56439 20.1786 8.57441 19.6786 9.08441L17.9186 10.6344C17.5886 10.5544 17.2386 10.5144 16.8786 10.5144C14.2586 10.5144 12.1286 12.6444 12.1286 15.2644C12.1286 16.1544 12.3786 16.9944 12.8186 17.7144C13.1886 18.3344 13.6986 18.8644 14.3186 19.2444V19.5844C14.3186 20.1944 13.9186 21.0044 13.4086 21.3044L11.9986 22.2144C10.6886 23.0244 8.86859 22.1144 8.86859 20.4944V15.1444C8.86859 14.4344 8.45859 13.5244 8.05859 13.0244L4.21859 8.98438C3.71859 8.47438 3.30859 7.56442 3.30859 6.96442V4.6344C3.30859 3.4244 4.21859 2.5144 5.32859 2.5144H18.6686C19.7786 2.5144 20.6886 3.42442 20.6886 4.53442Z" stroke="#D85240" stroke-width="1.5" stroke-miterlimit="10" stroke-linecap="round" stroke-linejoin="round"/>
</svg>
