<svg width="23" height="23" viewBox="0 0 23 23" fill="none" xmlns="http://www.w3.org/2000/svg">
<path d="M14.4786 2.43097H9.1619C8.53857 2.43097 7.65856 2.79764 7.21856 3.23764L3.46024 6.99598C3.02024 7.43598 2.65356 8.31597 2.65356 8.93931V14.256C2.65356 14.8793 3.02024 15.7593 3.46024 16.1993L7.21856 19.9576C7.65856 20.3976 8.53857 20.7643 9.1619 20.7643H14.4786C15.1019 20.7643 15.9819 20.3976 16.4219 19.9576L20.1802 16.1993C20.6202 15.7593 20.9869 14.8793 20.9869 14.256V8.93931C20.9869 8.31597 20.6202 7.43598 20.1802 6.99598L16.4219 3.23764C15.9819 2.79764 15.1019 2.43097 14.4786 2.43097Z" stroke="#404040" stroke-width="1.5" stroke-linecap="round" stroke-linejoin="round"/>
<path d="M5.34863 18.0876L18.3103 5.12598" stroke="#404040" stroke-width="1.5" stroke-linecap="round" stroke-linejoin="round"/>
</svg>
