<svg width="88" height="21" viewBox="0 0 88 21" fill="none" xmlns="http://www.w3.org/2000/svg">
<path d="M8.68145 3.65652L16.2064 0.806518L16.5814 2.60652L8.78145 5.60652L8.68145 3.65652ZM8.88145 10.3565V7.50652L17.1564 4.38152L17.7314 6.93152L11.3564 9.28152L15.0564 13.0065C16.1731 14.1399 17.0731 15.0149 17.7564 15.6315C18.4398 16.2315 19.0064 16.6815 19.4564 16.9815C19.9231 17.2649 20.3398 17.4315 20.7064 17.4815C21.0898 17.5315 21.5314 17.5565 22.0314 17.5565C22.2481 17.5565 22.3898 17.6732 22.4564 17.9065C22.5398 18.1232 22.5814 18.4482 22.5814 18.8815C22.5814 19.3649 22.5398 19.7232 22.4564 19.9565C22.3898 20.1899 22.2481 20.3065 22.0314 20.3065C21.5148 20.3065 21.0564 20.2815 20.6564 20.2315C20.2564 20.1815 19.8564 20.0815 19.4564 19.9315C19.0731 19.7649 18.6648 19.5232 18.2314 19.2065C17.7981 18.8732 17.3064 18.4315 16.7564 17.8815C16.6398 18.7482 16.2648 19.3732 15.6314 19.7565C15.0148 20.1232 14.2814 20.3065 13.4314 20.3065H4.00645C3.32311 20.3065 2.73145 20.2065 2.23145 20.0065C1.74811 19.7899 1.34811 19.5065 1.03145 19.1565C0.731445 18.8065 0.506445 18.3982 0.356445 17.9315C0.223112 17.4649 0.156445 16.9732 0.156445 16.4565V12.9065H2.70645V15.8065C2.70645 16.3565 2.82311 16.7899 3.05645 17.1065C3.30645 17.4065 3.81478 17.5565 4.58145 17.5565H13.1064C13.5731 17.5565 13.8898 17.4649 14.0564 17.2815C14.2398 17.0982 14.3314 16.8732 14.3314 16.6065C14.3314 16.3565 14.2814 16.1149 14.1814 15.8815C14.0981 15.6482 13.9064 15.3815 13.6064 15.0815L8.88145 10.3565ZM26.1504 17.5565C26.3671 17.5565 26.5087 17.6732 26.5754 17.9065C26.6587 18.1232 26.7004 18.4482 26.7004 18.8815C26.7004 19.3649 26.6587 19.7232 26.5754 19.9565C26.5087 20.1899 26.3671 20.3065 26.1504 20.3065H22.0254C21.8087 20.3065 21.6671 20.1982 21.6004 19.9815C21.5171 19.7482 21.4754 19.4149 21.4754 18.9815C21.4754 18.4982 21.5171 18.1399 21.6004 17.9065C21.6671 17.6732 21.8087 17.5565 22.0254 17.5565H26.1504ZM30.2764 17.5565C30.493 17.5565 30.6347 17.6732 30.7014 17.9065C30.7847 18.1232 30.8264 18.4482 30.8264 18.8815C30.8264 19.3649 30.7847 19.7232 30.7014 19.9565C30.6347 20.1899 30.493 20.3065 30.2764 20.3065H26.1514C25.9347 20.3065 25.793 20.1982 25.7264 19.9815C25.643 19.7482 25.6014 19.4149 25.6014 18.9815C25.6014 18.4982 25.643 18.1399 25.7264 17.9065C25.793 17.6732 25.9347 17.5565 26.1514 17.5565H30.2764ZM32.0273 17.5565C33.144 17.5565 33.7023 17.0149 33.7023 15.9315V12.9815H36.2773V15.9315C36.2773 16.5149 36.4523 16.9315 36.8023 17.1815C37.169 17.4315 37.594 17.5565 38.0773 17.5565H38.7273C39.1107 17.5565 39.3023 17.9982 39.3023 18.8815C39.3023 19.8315 39.1107 20.3065 38.7273 20.3065H38.0023C37.369 20.3065 36.794 20.2065 36.2773 20.0065C35.7607 19.7899 35.3107 19.3649 34.9273 18.7315C34.5107 19.3649 34.0607 19.7899 33.5773 20.0065C33.094 20.2065 32.5773 20.3065 32.0273 20.3065H30.2773C30.0607 20.3065 29.919 20.1982 29.8523 19.9815C29.769 19.7482 29.7273 19.4149 29.7273 18.9815C29.7273 18.4982 29.769 18.1399 29.8523 17.9065C29.919 17.6732 30.0607 17.5565 30.2773 17.5565H32.0273ZM37.7523 10.0565H35.1523V7.60652H37.7523V10.0565ZM34.1773 10.0565H31.5773V7.60652H34.1773V10.0565ZM42.8496 17.5565C43.0663 17.5565 43.2079 17.6732 43.2746 17.9065C43.3579 18.1232 43.3996 18.4482 43.3996 18.8815C43.3996 19.3649 43.3579 19.7232 43.2746 19.9565C43.2079 20.1899 43.0663 20.3065 42.8496 20.3065H38.7246C38.5079 20.3065 38.3663 20.1982 38.2996 19.9815C38.2163 19.7482 38.1746 19.4149 38.1746 18.9815C38.1746 18.4982 38.2163 18.1399 38.2996 17.9065C38.3663 17.6732 38.5079 17.5565 38.7246 17.5565H42.8496ZM46.9756 17.5565C47.1923 17.5565 47.3339 17.6732 47.4006 17.9065C47.4839 18.1232 47.5256 18.4482 47.5256 18.8815C47.5256 19.3649 47.4839 19.7232 47.4006 19.9565C47.3339 20.1899 47.1923 20.3065 46.9756 20.3065H42.8506C42.6339 20.3065 42.4923 20.1982 42.4256 19.9815C42.3423 19.7482 42.3006 19.4149 42.3006 18.9815C42.3006 18.4982 42.3423 18.1399 42.4256 17.9065C42.4923 17.6732 42.6339 17.5565 42.8506 17.5565H46.9756ZM48.0766 17.5565C49.2266 17.5565 49.8016 17.0149 49.8016 15.9315V12.9815H52.3266V15.9315C52.3266 16.5149 52.5016 16.9315 52.8516 17.1815C53.2182 17.4315 53.6349 17.5565 54.1016 17.5565C55.3516 17.5565 55.9766 17.0149 55.9766 15.9315V12.9815H58.5266V15.9315C58.5266 16.5149 58.6766 16.9315 58.9766 17.1815C59.2932 17.4315 59.6599 17.5565 60.0766 17.5565C61.1266 17.5565 61.6516 17.0149 61.6516 15.9315V12.9815H64.2016V15.9315C64.2016 16.5149 64.3766 16.9315 64.7266 17.1815C65.0932 17.4315 65.5016 17.5565 65.9516 17.5565H66.5266C66.7432 17.5565 66.8849 17.6732 66.9516 17.9065C67.0349 18.1232 67.0766 18.4482 67.0766 18.8815C67.0766 19.3649 67.0349 19.7232 66.9516 19.9565C66.8849 20.1899 66.7432 20.3065 66.5266 20.3065H65.9516C65.3182 20.3065 64.7349 20.2065 64.2016 20.0065C63.6849 19.7899 63.2349 19.3649 62.8516 18.7315C62.4516 19.3649 61.9932 19.7899 61.4766 20.0065C60.9766 20.2065 60.5099 20.3065 60.0766 20.3065C59.4932 20.3065 58.9599 20.2065 58.4766 20.0065C58.0099 19.7899 57.5849 19.3649 57.2016 18.7315C56.8016 19.3649 56.3266 19.7899 55.7766 20.0065C55.2432 20.2065 54.6849 20.3065 54.1016 20.3065C53.4682 20.3065 52.8849 20.2065 52.3516 20.0065C51.8349 19.7899 51.3849 19.3649 51.0016 18.7315C50.6016 19.3649 50.1516 19.7899 49.6516 20.0065C49.1516 20.2065 48.6182 20.3065 48.0516 20.3065H46.9766C46.7599 20.3065 46.6182 20.1982 46.5516 19.9815C46.4682 19.7482 46.4266 19.4149 46.4266 18.9815C46.4266 18.4982 46.4682 18.1399 46.5516 17.9065C46.6182 17.6732 46.7599 17.5565 46.9766 17.5565H48.0766ZM58.5516 6.55652H55.9016V4.13152H58.5516V6.55652ZM60.3016 10.0565H57.7016V7.60652H60.3016V10.0565ZM56.7266 10.0565H54.1266V7.60652H56.7266V10.0565ZM70.6572 17.5565C70.8739 17.5565 71.0156 17.6732 71.0822 17.9065C71.1656 18.1232 71.2072 18.4482 71.2072 18.8815C71.2072 19.3649 71.1656 19.7232 71.0822 19.9565C71.0156 20.1899 70.8739 20.3065 70.6572 20.3065H66.5322C66.3156 20.3065 66.1739 20.1982 66.1072 19.9815C66.0239 19.7482 65.9822 19.4149 65.9822 18.9815C65.9822 18.4982 66.0239 18.1399 66.1072 17.9065C66.1739 17.6732 66.3156 17.5565 66.5322 17.5565H70.6572ZM76.8332 12.8065C76.2665 12.8065 75.8082 12.9899 75.4582 13.3565C75.1249 13.7232 74.9582 14.1815 74.9582 14.7315C74.9582 15.2815 75.1499 15.7815 75.5332 16.2315C75.9332 16.6649 76.3999 17.0232 76.9332 17.3065C77.4332 17.0232 77.8499 16.6649 78.1832 16.2315C78.5165 15.7982 78.6832 15.3149 78.6832 14.7815C78.6832 14.1982 78.5082 13.7232 78.1582 13.3565C77.8249 12.9899 77.3832 12.8065 76.8332 12.8065ZM70.6582 20.3065C70.4415 20.3065 70.2999 20.1982 70.2332 19.9815C70.1499 19.7482 70.1082 19.4149 70.1082 18.9815C70.1082 18.4982 70.1499 18.1399 70.2332 17.9065C70.2999 17.6732 70.4415 17.5565 70.6582 17.5565H74.2332C73.1499 16.6065 72.6082 15.5315 72.6082 14.3315C72.6082 13.7815 72.7082 13.2565 72.9082 12.7565C73.1082 12.2565 73.3999 11.8149 73.7832 11.4315C74.1665 11.0315 74.6249 10.7232 75.1582 10.5065C75.7082 10.2732 76.3332 10.1565 77.0332 10.1565C77.7165 10.1565 78.3082 10.2732 78.8082 10.5065C79.3249 10.7399 79.7415 11.0482 80.0582 11.4315C80.3915 11.8149 80.6332 12.2482 80.7832 12.7315C80.9499 13.2149 81.0332 13.7065 81.0332 14.2065C81.0332 14.8899 80.8999 15.5065 80.6332 16.0565C80.3832 16.5899 80.0165 17.0899 79.5332 17.5565H83.0332C83.8332 17.5565 84.2332 17.2482 84.2332 16.6315C84.2332 16.4982 84.1999 16.3482 84.1332 16.1815C84.0665 16.0149 83.9415 15.8149 83.7582 15.5815L79.6082 10.5315L81.4832 8.75652L85.7082 13.9565C86.1915 14.5399 86.5249 15.0899 86.7082 15.6065C86.9082 16.1065 87.0082 16.5982 87.0082 17.0815C87.0082 17.5315 86.9249 17.9565 86.7582 18.3565C86.6082 18.7399 86.3749 19.0815 86.0582 19.3815C85.7415 19.6649 85.3415 19.8899 84.8582 20.0565C84.3915 20.2232 83.8499 20.3065 83.2332 20.3065H80.4832C79.7165 20.3065 79.0332 20.2732 78.4332 20.2065C77.8499 20.1399 77.3915 20.0149 77.0582 19.8315C76.8082 19.9482 76.5082 20.0399 76.1582 20.1065C75.8249 20.1732 75.4749 20.2232 75.1082 20.2565C74.7582 20.2732 74.4082 20.2899 74.0582 20.3065C73.7249 20.3065 73.4415 20.3065 73.2082 20.3065H70.6582Z" fill="#404040"/>
</svg>
