<svg width="30" height="34" viewBox="0 0 30 34" fill="none" xmlns="http://www.w3.org/2000/svg">
<path d="M23.4041 12.4069C23.4041 14.7325 23.4041 17.058 23.4041 19.3835C23.4041 19.6266 23.2863 19.7485 23.0506 19.7491C21.5467 19.7491 20.0428 19.7491 18.5394 19.7491C18.1887 19.7491 18.1877 19.7482 18.1877 19.4011C18.1877 14.7501 18.1877 10.0987 18.1877 5.44765C18.1877 5.1952 18.0606 5.06898 17.8063 5.06898C17.2793 5.06898 16.7522 5.07224 16.2252 5.06665C15.9033 5.0634 15.8307 4.93268 15.9954 4.65961C16.0503 4.56797 16.1242 4.48563 16.2001 4.4098C17.5239 3.08214 18.8492 1.75494 20.1754 0.429137C20.5992 0.00581046 20.9806 -0.00256299 21.4034 0.421694C22.5571 1.57863 23.7032 2.74255 24.8536 3.90274C25.0769 4.12789 25.3146 4.33956 25.5248 4.57634C25.6025 4.66426 25.6797 4.82754 25.6472 4.91593C25.6193 4.99222 25.436 5.04619 25.3197 5.04944C24.7852 5.0634 24.2503 5.05549 23.7153 5.05595C23.5088 5.05595 23.4052 5.15752 23.4046 5.36066C23.4046 7.70942 23.4046 10.0582 23.4046 12.4069H23.4041Z" fill="#58A65C"/>
<path d="M13.064 23.7833C13.064 26.2018 13.0566 28.6204 13.0673 31.0389C13.0733 32.3736 12.0532 33.2505 10.8168 33.2942C10.4158 33.3081 10.0037 33.3254 9.61295 33.2537C8.71842 33.089 8.16952 32.5168 7.94578 31.6441C7.87926 31.3855 7.84809 31.1106 7.84809 30.8431C7.84251 26.0293 7.8439 21.2154 7.8439 16.4016C7.8439 16.0662 7.8453 16.0648 8.18069 16.0648C9.69993 16.0643 11.2192 16.0643 12.7384 16.0648C13.0608 16.0648 13.0626 16.0671 13.0626 16.3886C13.0626 18.8536 13.0626 21.3187 13.0626 23.7838H13.064V23.7833Z" fill="#EFBE41"/>
<path d="M10.0194 15.347C7.69354 15.347 5.36816 15.3456 3.04231 15.3479C2.56737 15.3484 2.11336 15.2721 1.71053 15.0083C1.05882 14.5818 0.758325 13.9421 0.692736 13.1932C0.658314 12.8019 0.654592 12.3972 0.715064 12.0106C0.871361 11.0128 1.60354 10.3252 2.61249 10.181C2.84926 10.1471 3.09069 10.1285 3.32978 10.1285C7.92705 10.1257 12.5239 10.1261 17.1211 10.1261C17.3875 10.1261 17.5209 10.257 17.5212 10.5188C17.5212 12.0148 17.5212 13.5113 17.5212 15.0074C17.5212 15.3391 17.5142 15.3465 17.183 15.3465C14.7953 15.347 12.4076 15.3465 10.0199 15.347H10.0194Z" fill="#5E7DBE"/>
<path d="M20.8203 25.6226C18.58 25.6226 16.3393 25.6226 14.0991 25.6226C13.7544 25.6226 13.7539 25.6212 13.7539 25.2728C13.7539 23.7535 13.7539 22.2337 13.7539 20.7144C13.7539 20.4101 13.7604 20.4027 14.0674 20.4027C18.6024 20.4022 23.1378 20.4013 27.6727 20.4036C28.0965 20.4036 28.5058 20.4822 28.8766 20.7023C29.5334 21.0921 29.8692 21.7052 29.9399 22.4323C29.9902 22.9501 29.9855 23.4976 29.873 24.0019C29.665 24.9313 28.9622 25.3826 28.0718 25.5631C27.8309 25.6119 27.5792 25.6203 27.3322 25.6208C25.1617 25.6249 22.9908 25.6231 20.8203 25.6231V25.6226Z" fill="#D85240"/>
<path d="M7.16286 23.0324C7.16286 23.799 7.15635 24.5661 7.16705 25.3328C7.1703 25.5575 7.09216 25.6296 6.87213 25.6268C6.14414 25.617 5.41615 25.6263 4.68816 25.6221C3.22334 25.6142 2.36092 24.822 2.24834 23.3594C2.20555 22.804 2.18787 22.2383 2.43116 21.715C2.8419 20.832 3.59361 20.4524 4.51977 20.4101C5.31614 20.3738 6.11483 20.4054 6.9126 20.3989C7.10611 20.3975 7.16751 20.4738 7.16612 20.6618C7.15914 21.4517 7.16333 22.242 7.16333 23.0319L7.16286 23.0324Z" fill="#D85240"/>
<path d="M20.8049 26.3135C21.5798 26.3135 22.3543 26.32 23.1293 26.3093C23.347 26.3065 23.4084 26.3842 23.4052 26.5926C23.3945 27.2276 23.4042 27.8635 23.4005 28.4985C23.3949 29.4493 22.8446 30.2123 21.9445 30.5235C21.2514 30.7635 20.5369 30.7705 19.8382 30.6095C18.9707 30.4095 18.4744 29.7987 18.2692 28.9511C18.212 28.7139 18.1934 28.4631 18.1878 28.218C18.1762 27.676 18.192 27.1331 18.1799 26.5912C18.1753 26.3805 18.2409 26.3065 18.4567 26.3093C19.2391 26.3195 20.0215 26.3135 20.8044 26.3135H20.8049Z" fill="#58A65C"/>
<path d="M24.0761 12.7233C24.0761 11.9483 24.0817 11.1737 24.0724 10.3987C24.07 10.1889 24.137 10.1043 24.351 10.1112C25.0702 10.135 25.7935 10.1089 26.508 10.1759C27.3997 10.2596 28.0961 10.9142 28.3096 11.7869C28.4626 12.4121 28.4747 13.0452 28.3343 13.6742C28.1459 14.5166 27.5746 15.0037 26.7806 15.2344C26.4759 15.3228 26.1424 15.3312 25.8209 15.3423C25.3414 15.3591 24.8604 15.3396 24.3798 15.3493C24.1584 15.354 24.0654 15.2926 24.0705 15.0479C24.0854 14.2733 24.0761 13.4983 24.0761 12.7233Z" fill="#5E7DBE"/>
<path d="M10.4559 9.48134C9.68931 9.48134 8.92225 9.48227 8.15565 9.48134C7.86399 9.48134 7.84817 9.46599 7.84817 9.18362C7.84817 8.68028 7.84445 8.17647 7.85701 7.6736C7.88027 6.72367 8.51802 5.91377 9.44324 5.67838C10.1047 5.50998 10.7783 5.49742 11.4444 5.65326C12.2375 5.83888 12.6897 6.38594 12.9343 7.13118C13.1674 7.842 13.0325 8.57561 13.0618 9.29899C13.0692 9.48088 12.9315 9.48041 12.8032 9.48134C12.7953 9.48134 12.7878 9.48134 12.7799 9.48134C12.0054 9.48134 11.2309 9.48134 10.4564 9.48134H10.4559Z" fill="#EFBE41"/>
</svg>
