<svg width="24" height="23" viewBox="0 0 24 23" fill="none" xmlns="http://www.w3.org/2000/svg">
<path d="M22.2812 7.24737V12.5314C22.2812 12.868 22.2644 13.2046 22.2307 13.5243C21.9278 17.0919 19.8243 18.8758 15.9537 18.8758H15.4321C15.0955 18.8758 14.7758 19.0272 14.5907 19.2965L13.0088 21.4168C12.302 22.3592 11.1745 22.3592 10.4677 21.4168L8.88587 19.2965C8.71759 19.0777 8.33054 18.8758 8.04446 18.8758H7.52278C3.29887 18.8758 1.19531 17.8324 1.19531 12.5483V7.26416C1.19531 3.39365 2.9791 1.29014 6.54671 0.987228C6.86645 0.953571 7.20301 0.936745 7.53958 0.936745H16.0042C20.1608 0.919917 22.2812 3.04029 22.2812 7.24737Z" stroke="#404040" stroke-width="1.5" stroke-miterlimit="10" stroke-linecap="round" stroke-linejoin="round"/>
<path d="M16.3008 10.198H16.3126" stroke="#404040" stroke-width="2.5" stroke-miterlimit="10" stroke-linecap="round" stroke-linejoin="round"/>
<path d="M11.7188 10.198H11.7306" stroke="#404040" stroke-width="2.5" stroke-miterlimit="10" stroke-linecap="round" stroke-linejoin="round"/>
<path d="M7.14453 10.198H7.1568" stroke="#404040" stroke-width="2.5" stroke-miterlimit="10" stroke-linecap="round" stroke-linejoin="round"/>
</svg>
