<svg width="25" height="25" viewBox="0 0 25 25" fill="none" xmlns="http://www.w3.org/2000/svg">
<path d="M5.86719 10.1974C4.76719 10.1974 3.86719 11.0974 3.86719 12.1974C3.86719 13.2974 4.76719 14.1974 5.86719 14.1974C6.96719 14.1974 7.86719 13.2974 7.86719 12.1974C7.86719 11.0974 6.96719 10.1974 5.86719 10.1974Z" fill="#404040"/>
<path d="M19.8672 10.1974C18.7672 10.1974 17.8672 11.0974 17.8672 12.1974C17.8672 13.2974 18.7672 14.1974 19.8672 14.1974C20.9672 14.1974 21.8672 13.2974 21.8672 12.1974C21.8672 11.0974 20.9672 10.1974 19.8672 10.1974Z" fill="#404040"/>
<path d="M12.8672 10.1974C11.7672 10.1974 10.8672 11.0974 10.8672 12.1974C10.8672 13.2974 11.7672 14.1974 12.8672 14.1974C13.9672 14.1974 14.8672 13.2974 14.8672 12.1974C14.8672 11.0974 13.9672 10.1974 12.8672 10.1974Z" fill="#404040"/>
</svg>
