<svg width="17" height="22" viewBox="0 0 17 22" fill="none" xmlns="http://www.w3.org/2000/svg">
<path d="M15.442 17.1072C16.5882 18.6206 15.315 20.5066 13.4365 20.7813C10.2879 21.2419 6.6965 21.234 3.58459 20.7798C1.70599 20.5056 0.432418 18.6206 1.5787 17.1072C3.01061 15.2167 5.5823 13.9573 8.51033 13.9573C11.4384 13.9573 14.01 15.2167 15.442 17.1072Z" stroke="#404040" stroke-width="1.5" stroke-linecap="round" stroke-linejoin="round"/>
<path d="M13.2446 5.51516C13.2446 8.13105 11.1308 10.2581 8.51489 10.2581C5.89901 10.2581 3.78516 8.13105 3.78516 5.51516C3.78516 2.89927 5.89901 0.7854 8.51489 0.7854C11.1308 0.7854 13.2446 2.89927 13.2446 5.51516Z" stroke="#404040" stroke-width="1.5" stroke-linecap="round" stroke-linejoin="round"/>
</svg>
