<svg width="114" height="39" viewBox="0 0 114 39" fill="none" xmlns="http://www.w3.org/2000/svg">
<rect x="0.9375" y="0.198364" width="112.871" height="37.9566" rx="8" fill="#F5F5F5"/>
<path d="M81.6406 15.0542H99.6406" stroke="#E3A507" stroke-width="1.5" stroke-linecap="round"/>
<path d="M84.6406 20.0542H96.6406" stroke="#E3A507" stroke-width="1.5" stroke-linecap="round"/>
<path d="M88.6406 25.0542H92.6406" stroke="#E3A507" stroke-width="1.5" stroke-linecap="round"/>
<path d="M46.7042 21.6462C47.5256 21.6462 47.9362 21.2569 47.9362 20.4782V18.4302H49.2482V20.4782C49.2482 20.6915 49.2856 20.8729 49.3602 21.0222C49.4349 21.1715 49.5309 21.2942 49.6482 21.3902C49.7656 21.4755 49.8989 21.5395 50.0482 21.5822C50.2082 21.6249 50.3682 21.6462 50.5282 21.6462H50.8162C50.9549 21.6462 51.0456 21.7049 51.0882 21.8222C51.1416 21.9289 51.1682 22.0995 51.1682 22.3342C51.1682 22.5795 51.1416 22.7609 51.0882 22.8782C51.0456 22.9955 50.9549 23.0542 50.8162 23.0542H50.4962C50.1016 23.0542 49.7336 22.9849 49.3922 22.8462C49.0616 22.7075 48.7842 22.4355 48.5602 22.0302C48.3149 22.4355 48.0322 22.7075 47.7122 22.8462C47.3922 22.9849 47.0562 23.0542 46.7042 23.0542H41.1522C40.7149 23.0542 40.3362 22.9902 40.0162 22.8622C39.7069 22.7235 39.4509 22.5422 39.2482 22.3182C39.0562 22.0942 38.9122 21.8329 38.8162 21.5342C38.7309 21.2355 38.6882 20.9209 38.6882 20.5902V18.3822H40.0002V20.2702C40.0002 20.6862 40.1016 21.0222 40.3042 21.2782C40.5069 21.5235 40.8909 21.6462 41.4562 21.6462H46.7042ZM45.7602 17.0702H44.3042V15.7262H45.7602V17.0702ZM43.6162 17.0702H42.1602V15.7262H43.6162V17.0702ZM51.0166 21.6462C51.8273 21.6462 52.2326 21.3049 52.2326 20.6222V20.1262C52.2326 19.2195 52.4673 18.5049 52.9366 17.9822C53.4166 17.4489 54.0779 17.1822 54.9206 17.1822C55.3579 17.1822 55.7419 17.2569 56.0726 17.4062C56.4033 17.5449 56.6806 17.7422 56.9046 17.9982C57.1286 18.2435 57.2939 18.5422 57.4006 18.8942C57.5179 19.2462 57.5766 19.6302 57.5766 20.0462V20.4622C57.5766 20.9102 57.6886 21.2195 57.9126 21.3902C58.1473 21.5609 58.4193 21.6462 58.7286 21.6462H58.9846C59.1233 21.6462 59.2139 21.7049 59.2566 21.8222C59.3099 21.9289 59.3366 22.0995 59.3366 22.3342C59.3366 22.5795 59.3099 22.7609 59.2566 22.8782C59.2139 22.9955 59.1233 23.0542 58.9846 23.0542H58.7286C58.5686 23.0542 58.4033 23.0382 58.2326 23.0062C58.0726 22.9742 57.9179 22.9209 57.7686 22.8462C57.6193 22.7609 57.4753 22.6489 57.3366 22.5102C57.1979 22.3609 57.0753 22.1689 56.9686 21.9342C56.6806 22.3929 56.3499 22.6969 55.9766 22.8462C55.6033 22.9849 55.2193 23.0542 54.8246 23.0542C54.3979 23.0542 53.9979 22.9742 53.6246 22.8142C53.2513 22.6435 52.9579 22.3609 52.7446 21.9662C52.6486 22.1902 52.5313 22.3769 52.3926 22.5262C52.2539 22.6649 52.1099 22.7769 51.9606 22.8622C51.8113 22.9369 51.6513 22.9902 51.4806 23.0222C51.3206 23.0435 51.1659 23.0542 51.0166 23.0542H50.8086C50.6699 23.0542 50.5793 23.0009 50.5366 22.8942C50.4833 22.7769 50.4566 22.6062 50.4566 22.3822C50.4566 22.1262 50.4833 21.9395 50.5366 21.8222C50.5793 21.7049 50.6699 21.6462 50.8086 21.6462H51.0166ZM56.2966 20.1902C56.2966 19.7209 56.1899 19.3369 55.9766 19.0382C55.7739 18.7395 55.4113 18.5902 54.8886 18.5902C54.4086 18.5902 54.0513 18.7342 53.8166 19.0222C53.5926 19.3102 53.4806 19.7155 53.4806 20.2382C53.4806 20.7075 53.6086 21.0595 53.8646 21.2942C54.1313 21.5289 54.4673 21.6462 54.8726 21.6462C55.3526 21.6462 55.7099 21.5235 55.9446 21.2782C56.1793 21.0222 56.2966 20.6595 56.2966 20.1902ZM60.1485 21.6462C60.9805 21.6462 61.3965 21.2569 61.3965 20.4782V18.4302H62.7085V20.4782C62.7085 20.6915 62.7405 20.8729 62.8045 21.0222C62.8791 21.1715 62.9751 21.2942 63.0925 21.3902C63.2098 21.4755 63.3431 21.5395 63.4925 21.5822C63.6525 21.6249 63.8125 21.6462 63.9725 21.6462H64.4205C64.6658 21.6462 64.7885 21.8755 64.7885 22.3342C64.7885 22.8142 64.6658 23.0542 64.4205 23.0542H63.9245C63.5405 23.0542 63.1778 22.9849 62.8365 22.8462C62.5058 22.7075 62.2285 22.4355 62.0045 22.0302C61.7591 22.4355 61.4765 22.7075 61.1565 22.8462C60.8471 22.9849 60.5111 23.0542 60.1485 23.0542H58.9805C58.8418 23.0542 58.7511 23.0009 58.7085 22.8942C58.6551 22.7769 58.6285 22.6062 58.6285 22.3822C58.6285 22.1262 58.6551 21.9395 58.7085 21.8222C58.7511 21.7049 58.8418 21.6462 58.9805 21.6462H60.1485ZM63.4605 26.2222H62.0525V24.8782H63.4605V26.2222ZM61.2845 26.2222H59.8605V24.8782H61.2845V26.2222ZM66.53 21.6462C66.8393 21.6462 67.09 21.6515 67.282 21.6622C67.474 21.6622 67.6926 21.6782 67.938 21.7102C67.4366 21.5289 67.042 21.3475 66.754 21.1662C66.466 20.9742 66.2473 20.7769 66.098 20.5742C65.9593 20.3609 65.8686 20.1315 65.826 19.8862C65.7833 19.6409 65.762 19.3635 65.762 19.0542C65.762 18.7662 65.8153 18.4675 65.922 18.1582C66.0393 17.8489 66.21 17.5715 66.434 17.3262C66.658 17.0702 66.9353 16.8622 67.266 16.7022C67.6073 16.5422 67.9966 16.4622 68.434 16.4622C68.85 16.4622 69.2233 16.5155 69.554 16.6222C69.8953 16.7289 70.1833 16.9102 70.418 17.1662C70.6633 17.4115 70.85 17.7369 70.978 18.1422C71.1166 18.5369 71.186 19.0222 71.186 19.5982V20.3662C71.186 21.1982 70.9353 21.8542 70.434 22.3342C69.9433 22.8142 69.1646 23.0542 68.098 23.0542H64.418C64.2793 23.0542 64.1886 23.0009 64.146 22.8942C64.0926 22.7769 64.066 22.6062 64.066 22.3822C64.066 22.1262 64.0926 21.9395 64.146 21.8222C64.1886 21.7049 64.2793 21.6462 64.418 21.6462H66.53ZM68.37 17.8862C68.146 17.8862 67.9486 17.9289 67.778 18.0142C67.6073 18.0889 67.458 18.1902 67.33 18.3182C67.2126 18.4462 67.122 18.5955 67.058 18.7662C67.0046 18.9262 66.978 19.0915 66.978 19.2622C66.978 19.4435 66.994 19.6142 67.026 19.7742C67.0686 19.9235 67.17 20.0782 67.33 20.2382C67.5006 20.3982 67.7566 20.5689 68.098 20.7502C68.4393 20.9209 68.9086 21.1182 69.506 21.3422C69.634 21.2249 69.73 21.0649 69.794 20.8622C69.8686 20.6595 69.906 20.4409 69.906 20.2062V19.7262C69.906 19.1609 69.7886 18.7129 69.554 18.3822C69.33 18.0515 68.9353 17.8862 68.37 17.8862ZM70.178 14.9582H68.722V13.6142H70.178V14.9582ZM68.034 14.9582H66.578V13.6142H68.034V14.9582Z" fill="#E3A507"/>
<path d="M16.0545 18.5282L19.7768 22.2505C20.2164 22.6901 20.9358 22.6901 21.3754 22.2505L25.0977 18.5282" stroke="#E3A507" stroke-miterlimit="10" stroke-linecap="round" stroke-linejoin="round"/>
</svg>
