<svg width="161" height="39" viewBox="0 0 161 39" fill="none" xmlns="http://www.w3.org/2000/svg">
<rect x="0.425781" y="0.198364" width="160.488" height="37.9566" rx="8" fill="#F5F5F5"/>
<path d="M17.0293 22.0542C16.7773 22.0542 16.5346 22.0215 16.3013 21.9562C16.068 21.8815 15.8626 21.7602 15.6853 21.5922C15.5173 21.4242 15.382 21.2049 15.2793 20.9342C15.1766 20.6542 15.1253 20.3089 15.1253 19.8982V13.3742H16.2733V19.6462C16.2733 20.0009 16.348 20.2855 16.4973 20.5002C16.656 20.7149 16.9033 20.8222 17.2393 20.8222H17.5193C17.7246 20.8222 17.8273 21.0229 17.8273 21.4242C17.8273 21.8442 17.7246 22.0542 17.5193 22.0542H17.0293ZM21.0652 17.7002C20.6732 17.7002 20.3559 17.8309 20.1132 18.0922C19.8799 18.3442 19.7632 18.6569 19.7632 19.0302C19.7632 19.2262 19.8006 19.4082 19.8752 19.5762C19.9592 19.7442 20.0666 19.8982 20.1972 20.0382C20.3372 20.1689 20.4866 20.2902 20.6452 20.4022C20.8132 20.5049 20.9812 20.5982 21.1492 20.6822C21.2892 20.5982 21.4292 20.5049 21.5692 20.4022C21.7186 20.2902 21.8492 20.1689 21.9612 20.0382C22.0826 19.9075 22.1806 19.7629 22.2552 19.6042C22.3299 19.4362 22.3672 19.2542 22.3672 19.0582C22.3672 18.6569 22.2459 18.3302 22.0032 18.0782C21.7699 17.8262 21.4572 17.7002 21.0652 17.7002ZM17.5232 22.0542C17.4019 22.0542 17.3226 22.0075 17.2852 21.9142C17.2386 21.8115 17.2152 21.6622 17.2152 21.4662C17.2152 21.2422 17.2386 21.0789 17.2852 20.9762C17.3226 20.8735 17.4019 20.8222 17.5232 20.8222H19.8892C19.5252 20.5702 19.2359 20.2855 19.0212 19.9682C18.8066 19.6415 18.6992 19.2729 18.6992 18.8622C18.6992 18.5542 18.7552 18.2602 18.8672 17.9802C18.9792 17.6909 19.1379 17.4389 19.3432 17.2242C19.5579 17.0095 19.8192 16.8369 20.1272 16.7062C20.4352 16.5755 20.7806 16.5102 21.1632 16.5102C21.5459 16.5102 21.8772 16.5755 22.1572 16.7062C22.4466 16.8369 22.6846 17.0095 22.8712 17.2242C23.0579 17.4389 23.1979 17.6815 23.2912 17.9522C23.3846 18.2229 23.4312 18.4982 23.4312 18.7782C23.4312 19.1982 23.3379 19.5762 23.1512 19.9122C22.9739 20.2389 22.7032 20.5422 22.3392 20.8222H24.5792C24.8779 20.8222 25.1066 20.7569 25.2652 20.6262C25.4239 20.4862 25.5032 20.3089 25.5032 20.0942C25.5032 19.8702 25.3912 19.6182 25.1672 19.3382L22.7172 16.4402L23.5712 15.6422L26.0492 18.5962C26.3106 18.9135 26.4926 19.2075 26.5952 19.4782C26.6979 19.7489 26.7492 20.0149 26.7492 20.2762C26.7492 20.5282 26.7026 20.7615 26.6092 20.9762C26.5159 21.1909 26.3806 21.3775 26.2032 21.5362C26.0352 21.6949 25.8206 21.8209 25.5592 21.9142C25.2979 22.0075 24.9992 22.0542 24.6632 22.0542H23.1232C22.6939 22.0542 22.3112 22.0402 21.9752 22.0122C21.6486 21.9842 21.3872 21.9189 21.1912 21.8162C21.0606 21.8722 20.8972 21.9189 20.7012 21.9562C20.5146 21.9842 20.3186 22.0075 20.1132 22.0262C19.9172 22.0355 19.7212 22.0449 19.5252 22.0542C19.3386 22.0542 19.1799 22.0542 19.0492 22.0542H17.5232ZM32.5378 20.3322C32.9671 20.3322 33.3031 20.2435 33.5458 20.0662C33.7885 19.8889 33.9098 19.6649 33.9098 19.3942V17.6442H32.6498C32.2018 17.6442 31.8705 17.7842 31.6558 18.0642C31.4411 18.3442 31.3338 18.7129 31.3338 19.1702C31.3338 19.5995 31.4318 19.9029 31.6278 20.0802C31.8238 20.2482 32.1271 20.3322 32.5378 20.3322ZM35.0158 19.6462C35.0158 20.0009 35.0858 20.2855 35.2258 20.5002C35.3751 20.7149 35.6271 20.8222 35.9818 20.8222H36.2618C36.3738 20.8222 36.4485 20.8735 36.4858 20.9762C36.5325 21.0695 36.5558 21.2189 36.5558 21.4242C36.5558 21.6389 36.5325 21.7975 36.4858 21.9002C36.4485 22.0029 36.3738 22.0542 36.2618 22.0542H35.9818C35.5338 22.0542 35.1558 21.9702 34.8478 21.8022C34.5491 21.6249 34.3298 21.3122 34.1898 20.8642C34.0778 21.0042 33.9425 21.1162 33.7838 21.2002C33.6345 21.2842 33.4758 21.3495 33.3078 21.3962C33.1398 21.4429 32.9671 21.4755 32.7898 21.4942C32.6125 21.5129 32.4491 21.5222 32.2998 21.5222C31.6278 21.5222 31.1145 21.3355 30.7598 20.9622C30.4051 20.5889 30.2278 20.0242 30.2278 19.2682C30.2278 18.9229 30.2745 18.5869 30.3678 18.2602C30.4705 17.9242 30.6198 17.6255 30.8158 17.3642C31.0118 17.1029 31.2545 16.8929 31.5438 16.7342C31.8425 16.5755 32.1878 16.4962 32.5798 16.4962H33.9098V15.5442H35.0158V19.6462ZM37.5414 20.8222C37.8774 20.8222 38.1387 20.7335 38.3254 20.5562C38.5214 20.3789 38.6194 20.1269 38.6194 19.8002V18.0082H39.7674V19.8562C39.7674 20.5655 39.576 21.1115 39.1934 21.4942C38.82 21.8675 38.2974 22.0542 37.6254 22.0542H36.2674C36.146 22.0542 36.0667 22.0075 36.0294 21.9142C35.9827 21.8115 35.9594 21.6622 35.9594 21.4662C35.9594 21.2422 35.9827 21.0789 36.0294 20.9762C36.0667 20.8735 36.146 20.8222 36.2674 20.8222H37.5414ZM39.3754 16.2862H38.0034V15.0822H39.3754V16.2862ZM43.375 22.0542C43.123 22.0542 42.8803 22.0215 42.647 21.9562C42.4137 21.8815 42.2083 21.7602 42.031 21.5922C41.863 21.4242 41.7277 21.2049 41.625 20.9342C41.5223 20.6542 41.471 20.3089 41.471 19.8982V13.3742H42.619V19.6462C42.619 20.0009 42.6937 20.2855 42.843 20.5002C43.0017 20.7149 43.249 20.8222 43.585 20.8222H43.865C44.0703 20.8222 44.173 21.0229 44.173 21.4242C44.173 21.8442 44.0703 22.0542 43.865 22.0542H43.375ZM44.4289 20.8222C45.1663 20.8222 45.5349 20.4815 45.5349 19.8002V18.0082H46.6829V19.8002C46.6829 19.9869 46.7156 20.1455 46.7809 20.2762C46.8463 20.4069 46.9303 20.5142 47.0329 20.5982C47.1356 20.6729 47.2523 20.7289 47.3829 20.7662C47.5229 20.8035 47.6629 20.8222 47.8029 20.8222C48.6056 20.8222 49.0069 20.4815 49.0069 19.8002V18.0082H50.1549V19.8002C50.1549 20.1829 50.2529 20.4489 50.4489 20.5982C50.6543 20.7475 50.8923 20.8222 51.1629 20.8222C51.4803 20.8222 51.7323 20.7335 51.9189 20.5562C52.1056 20.3789 52.1989 20.1269 52.1989 19.8002V18.0082H53.3469V19.8562C53.3469 20.5655 53.1556 21.1115 52.7729 21.4942C52.3903 21.8675 51.8676 22.0542 51.2049 22.0542C50.8783 22.0542 50.5656 21.9935 50.2669 21.8722C49.9776 21.7509 49.7349 21.5129 49.5389 21.1582C49.3243 21.5129 49.0629 21.7509 48.7549 21.8722C48.4469 21.9935 48.1296 22.0542 47.8029 22.0542C47.4483 22.0542 47.1169 21.9935 46.8089 21.8722C46.5103 21.7509 46.2629 21.5129 46.0669 21.1582C45.8523 21.5129 45.6003 21.7509 45.3109 21.8722C45.0216 21.9935 44.7136 22.0542 44.3869 22.0542H43.8689C43.7476 22.0542 43.6683 22.0075 43.6309 21.9142C43.5843 21.8115 43.5609 21.6622 43.5609 21.4662C43.5609 21.2422 43.5843 21.0789 43.6309 20.9762C43.6683 20.8735 43.7476 20.8222 43.8689 20.8222H44.4289ZM56.6012 21.8302C56.6012 22.3529 56.5125 22.8335 56.3352 23.2722C56.1672 23.7202 55.9338 24.1029 55.6352 24.4202C55.3365 24.7469 54.9818 24.9989 54.5712 25.1762C54.1605 25.3535 53.7172 25.4422 53.2412 25.4422H52.3872L52.3172 24.2242H52.9612C53.4092 24.2242 53.7918 24.1542 54.1092 24.0142C54.4172 23.8835 54.6692 23.7062 54.8652 23.4822C55.0705 23.2582 55.2198 23.0015 55.3132 22.7122C55.4065 22.4322 55.4532 22.1382 55.4532 21.8302V18.0082H56.6012V21.8302ZM62.4792 20.3322C62.9085 20.3322 63.2445 20.2435 63.4872 20.0662C63.7299 19.8889 63.8512 19.6649 63.8512 19.3942V17.6442H62.5912C62.1432 17.6442 61.8119 17.7842 61.5972 18.0642C61.3825 18.3442 61.2752 18.7129 61.2752 19.1702C61.2752 19.5995 61.3732 19.9029 61.5692 20.0802C61.7652 20.2482 62.0685 20.3322 62.4792 20.3322ZM64.9572 19.6462C64.9572 20.0009 65.0272 20.2855 65.1672 20.5002C65.3165 20.7149 65.5685 20.8222 65.9232 20.8222H66.2032C66.3152 20.8222 66.3899 20.8735 66.4272 20.9762C66.4739 21.0695 66.4972 21.2189 66.4972 21.4242C66.4972 21.6389 66.4739 21.7975 66.4272 21.9002C66.3899 22.0029 66.3152 22.0542 66.2032 22.0542H65.9232C65.4752 22.0542 65.0972 21.9702 64.7892 21.8022C64.4905 21.6249 64.2712 21.3122 64.1312 20.8642C64.0192 21.0042 63.8839 21.1162 63.7252 21.2002C63.5759 21.2842 63.4172 21.3495 63.2492 21.3962C63.0812 21.4429 62.9085 21.4755 62.7312 21.4942C62.5539 21.5129 62.3905 21.5222 62.2412 21.5222C61.5692 21.5222 61.0559 21.3355 60.7012 20.9622C60.3465 20.5889 60.1692 20.0242 60.1692 19.2682C60.1692 18.9229 60.2159 18.5869 60.3092 18.2602C60.4119 17.9242 60.5612 17.6255 60.7572 17.3642C60.9532 17.1029 61.1959 16.8929 61.4852 16.7342C61.7839 16.5755 62.1292 16.4962 62.5212 16.4962H63.8512V15.5442H64.9572V19.6462ZM66.3908 20.8222C67.1001 20.8222 67.4548 20.5235 67.4548 19.9262V19.4922C67.4548 18.6989 67.6601 18.0735 68.0708 17.6162C68.4908 17.1495 69.0694 16.9162 69.8068 16.9162C70.1894 16.9162 70.5254 16.9815 70.8148 17.1122C71.1041 17.2335 71.3468 17.4062 71.5428 17.6302C71.7388 17.8449 71.8834 18.1062 71.9768 18.4142C72.0794 18.7222 72.1308 19.0582 72.1308 19.4222V19.7862C72.1308 20.1782 72.2288 20.4489 72.4248 20.5982C72.6301 20.7475 72.8681 20.8222 73.1388 20.8222H73.3628C73.4841 20.8222 73.5634 20.8735 73.6008 20.9762C73.6474 21.0695 73.6708 21.2189 73.6708 21.4242C73.6708 21.6389 73.6474 21.7975 73.6008 21.9002C73.5634 22.0029 73.4841 22.0542 73.3628 22.0542H73.1388C72.9988 22.0542 72.8541 22.0402 72.7048 22.0122C72.5648 21.9842 72.4294 21.9375 72.2988 21.8722C72.1681 21.7975 72.0421 21.6995 71.9208 21.5782C71.7994 21.4475 71.6921 21.2795 71.5988 21.0742C71.3468 21.4755 71.0574 21.7415 70.7308 21.8722C70.4041 21.9935 70.0681 22.0542 69.7228 22.0542C69.3494 22.0542 68.9994 21.9842 68.6728 21.8442C68.3461 21.6949 68.0894 21.4475 67.9028 21.1022C67.8188 21.2982 67.7161 21.4615 67.5948 21.5922C67.4734 21.7135 67.3474 21.8115 67.2168 21.8862C67.0861 21.9515 66.9461 21.9982 66.7968 22.0262C66.6568 22.0449 66.5214 22.0542 66.3908 22.0542H66.2088C66.0874 22.0542 66.0081 22.0075 65.9708 21.9142C65.9241 21.8115 65.9008 21.6622 65.9008 21.4662C65.9008 21.2422 65.9241 21.0789 65.9708 20.9762C66.0081 20.8735 66.0874 20.8222 66.2088 20.8222H66.3908ZM71.0108 19.5482C71.0108 19.1375 70.9174 18.8015 70.7308 18.5402C70.5534 18.2789 70.2361 18.1482 69.7788 18.1482C69.3588 18.1482 69.0461 18.2742 68.8408 18.5262C68.6448 18.7782 68.5468 19.1329 68.5468 19.5902C68.5468 20.0009 68.6588 20.3089 68.8828 20.5142C69.1161 20.7195 69.4101 20.8222 69.7648 20.8222C70.1848 20.8222 70.4974 20.7149 70.7028 20.5002C70.9081 20.2762 71.0108 19.9589 71.0108 19.5482ZM76.9012 17.7002C76.5092 17.7002 76.1918 17.8309 75.9492 18.0922C75.7158 18.3442 75.5992 18.6569 75.5992 19.0302C75.5992 19.2262 75.6365 19.4082 75.7112 19.5762C75.7952 19.7442 75.9025 19.8982 76.0332 20.0382C76.1732 20.1689 76.3225 20.2902 76.4812 20.4022C76.6492 20.5049 76.8172 20.5982 76.9852 20.6822C77.1252 20.5982 77.2652 20.5049 77.4052 20.4022C77.5545 20.2902 77.6852 20.1689 77.7972 20.0382C77.9185 19.9075 78.0165 19.7629 78.0912 19.6042C78.1658 19.4362 78.2032 19.2542 78.2032 19.0582C78.2032 18.6569 78.0818 18.3302 77.8392 18.0782C77.6058 17.8262 77.2932 17.7002 76.9012 17.7002ZM73.3592 22.0542C73.2378 22.0542 73.1585 22.0075 73.1212 21.9142C73.0745 21.8115 73.0512 21.6622 73.0512 21.4662C73.0512 21.2422 73.0745 21.0789 73.1212 20.9762C73.1585 20.8735 73.2378 20.8222 73.3592 20.8222H75.7252C75.3612 20.5702 75.0718 20.2855 74.8572 19.9682C74.6425 19.6415 74.5352 19.2729 74.5352 18.8622C74.5352 18.5542 74.5912 18.2602 74.7032 17.9802C74.8152 17.6909 74.9738 17.4389 75.1792 17.2242C75.3938 17.0095 75.6552 16.8369 75.9632 16.7062C76.2712 16.5755 76.6165 16.5102 76.9992 16.5102C77.3818 16.5102 77.7132 16.5755 77.9932 16.7062C78.2825 16.8369 78.5205 17.0095 78.7072 17.2242C78.8938 17.4389 79.0338 17.6815 79.1272 17.9522C79.2205 18.2229 79.2672 18.4982 79.2672 18.7782C79.2672 19.1982 79.1738 19.5762 78.9872 19.9122C78.8098 20.2389 78.5392 20.5422 78.1752 20.8222H80.4152C80.7138 20.8222 80.9425 20.7569 81.1012 20.6262C81.2598 20.4862 81.3392 20.3089 81.3392 20.0942C81.3392 19.8702 81.2272 19.6182 81.0032 19.3382L78.5532 16.4402L79.4072 15.6422L81.8852 18.5962C82.1465 18.9135 82.3285 19.2075 82.4312 19.4782C82.5338 19.7489 82.5852 20.0149 82.5852 20.2762C82.5852 20.5282 82.5385 20.7615 82.4452 20.9762C82.3518 21.1909 82.2165 21.3775 82.0392 21.5362C81.8712 21.6949 81.6565 21.8209 81.3952 21.9142C81.1338 22.0075 80.8352 22.0542 80.4992 22.0542H78.9592C78.5298 22.0542 78.1472 22.0402 77.8112 22.0122C77.4845 21.9842 77.2232 21.9189 77.0272 21.8162C76.8965 21.8722 76.7332 21.9189 76.5372 21.9562C76.3505 21.9842 76.1545 22.0075 75.9492 22.0262C75.7532 22.0355 75.5572 22.0449 75.3612 22.0542C75.1745 22.0542 75.0158 22.0542 74.8852 22.0542H73.3592ZM88.2477 22.0542C87.8651 22.0542 87.5337 21.9982 87.2537 21.8862C86.9831 21.7649 86.7591 21.6062 86.5817 21.4102C86.4137 21.2142 86.2877 20.9855 86.2037 20.7242C86.1291 20.4629 86.0917 20.1875 86.0917 19.8982V17.9662H87.2397V19.6182C87.2397 19.9822 87.3284 20.2762 87.5057 20.5002C87.6831 20.7149 88.0191 20.8222 88.5137 20.8222H93.1057C93.8244 20.8222 94.1837 20.4815 94.1837 19.8002V18.0082H95.3317V20.0242C95.3317 20.3602 95.2757 20.6542 95.1637 20.9062C95.0517 21.1582 94.8977 21.3682 94.7017 21.5362C94.5151 21.7042 94.2957 21.8349 94.0437 21.9282C93.8011 22.0122 93.5444 22.0542 93.2737 22.0542H88.2477ZM91.3837 24.8542H90.0117V23.6502H91.3837V24.8542ZM98.9375 22.0542C98.6855 22.0542 98.4428 22.0215 98.2095 21.9562C97.9762 21.8815 97.7708 21.7602 97.5935 21.5922C97.4255 21.4242 97.2902 21.2049 97.1875 20.9342C97.0848 20.6542 97.0335 20.3089 97.0335 19.8982V13.3742H98.1815V19.6462C98.1815 20.0009 98.2562 20.2855 98.4055 20.5002C98.5642 20.7149 98.8115 20.8222 99.1475 20.8222H99.4275C99.6328 20.8222 99.7355 21.0229 99.7355 21.4242C99.7355 21.8442 99.6328 22.0542 99.4275 22.0542H98.9375ZM105.535 20.0382C105.685 20.3369 105.848 20.5422 106.025 20.6542C106.212 20.7662 106.455 20.8222 106.753 20.8222H107.621C107.743 20.8222 107.822 20.8735 107.859 20.9762C107.906 21.0695 107.929 21.2189 107.929 21.4242C107.929 21.6389 107.906 21.7975 107.859 21.9002C107.822 22.0029 107.743 22.0542 107.621 22.0542H106.683C106.375 22.0542 106.114 22.0169 105.899 21.9422C105.685 21.8582 105.503 21.7509 105.353 21.6202C105.204 21.4802 105.078 21.3169 104.975 21.1302C104.882 20.9435 104.798 20.7382 104.723 20.5142L103.463 21.2422C103.221 21.3915 102.983 21.5175 102.749 21.6202C102.516 21.7229 102.264 21.8069 101.993 21.8722C101.732 21.9375 101.443 21.9842 101.125 22.0122C100.808 22.0402 100.444 22.0542 100.033 22.0542H99.4314C99.3101 22.0542 99.2308 22.0075 99.1934 21.9142C99.1468 21.8115 99.1234 21.6622 99.1234 21.4662C99.1234 21.2422 99.1468 21.0789 99.1934 20.9762C99.2308 20.8735 99.3101 20.8222 99.4314 20.8222H100.075C100.43 20.8222 100.743 20.8129 101.013 20.7942C101.293 20.7755 101.55 20.7429 101.783 20.6962C102.017 20.6495 102.236 20.5889 102.441 20.5142C102.647 20.4302 102.857 20.3275 103.071 20.2062L105.157 19.0022C105.083 18.8342 105.008 18.6895 104.933 18.5682C104.868 18.4375 104.779 18.3255 104.667 18.2322C104.555 18.1389 104.42 18.0689 104.261 18.0222C104.103 17.9755 103.902 17.9522 103.659 17.9522H100.607L100.691 16.7202H103.827C104.079 16.7202 104.331 16.7529 104.583 16.8182C104.845 16.8835 105.087 17.0142 105.311 17.2102C105.545 17.4062 105.759 17.6862 105.955 18.0502C106.151 18.4142 106.315 18.8949 106.445 19.4922L105.535 20.0382ZM103.617 15.1942H102.245V13.9902H103.617V15.1942ZM108.643 20.8222C109.371 20.8222 109.735 20.4815 109.735 19.8002V18.0082H110.883V19.8002C110.883 19.9869 110.911 20.1455 110.967 20.2762C111.032 20.4069 111.116 20.5142 111.219 20.5982C111.322 20.6729 111.438 20.7289 111.569 20.7662C111.709 20.8035 111.849 20.8222 111.989 20.8222H112.381C112.596 20.8222 112.703 21.0229 112.703 21.4242C112.703 21.8442 112.596 22.0542 112.381 22.0542H111.947C111.611 22.0542 111.294 21.9935 110.995 21.8722C110.706 21.7509 110.463 21.5129 110.267 21.1582C110.052 21.5129 109.805 21.7509 109.525 21.8722C109.254 21.9935 108.96 22.0542 108.643 22.0542H107.621C107.5 22.0542 107.42 22.0075 107.383 21.9142C107.336 21.8115 107.313 21.6622 107.313 21.4662C107.313 21.2422 107.336 21.0789 107.383 20.9762C107.42 20.8735 107.5 20.8222 107.621 20.8222H108.643ZM111.709 16.2862H110.435V15.1102H111.709V16.2862ZM109.833 16.2862H108.559V15.1102H109.833V16.2862ZM113.653 20.8222C113.989 20.8222 114.25 20.7335 114.437 20.5562C114.633 20.3789 114.731 20.1269 114.731 19.8002V18.0082H115.879V19.8562C115.879 20.5655 115.687 21.1115 115.305 21.4942C114.931 21.8675 114.409 22.0542 113.737 22.0542H112.379C112.257 22.0542 112.178 22.0075 112.141 21.9142C112.094 21.8115 112.071 21.6622 112.071 21.4662C112.071 21.2422 112.094 21.0789 112.141 20.9762C112.178 20.8735 112.257 20.8222 112.379 20.8222H113.653ZM115.487 16.2862H114.115V15.0822H115.487V16.2862ZM117.582 13.3742H118.73V22.0542H117.582V13.3742Z" fill="#5E7DBE"/>
<rect x="132.418" y="9.5542" width="19.1641" height="19.1641" rx="4.5" stroke="#5E7DBE"/>
<path d="M136.724 19.1361L139.219 21.6316L144.219 16.6406" stroke="#5E7DBE" stroke-width="1.2" stroke-linecap="round" stroke-linejoin="round"/>
<path d="M142.276 21.6316L141.852 22.0556C142.086 22.29 142.466 22.2902 142.7 22.0562L142.276 21.6316ZM147.7 17.0653C147.934 16.8312 147.935 16.4513 147.7 16.2167C147.466 15.9822 147.086 15.9819 146.852 16.216L147.7 17.0653ZM141.118 21.3208L141.852 22.0556L142.701 21.2075L141.966 20.4727L141.118 21.3208ZM142.7 22.0562L147.7 17.0653L146.852 16.216L141.852 21.2069L142.7 22.0562Z" fill="#5E7DBE"/>
</svg>
