<svg width="196" height="66" viewBox="0 0 196 66" fill="none" xmlns="http://www.w3.org/2000/svg">
<g filter="url(#filter0_d_189_263)">
<rect x="8" y="4.29321" width="179.633" height="49.2102" rx="13" fill="white"/>
</g>
<path d="M28.1362 33.2448C27.8482 33.2448 27.5709 33.2074 27.3042 33.1328C27.0376 33.0474 26.8029 32.9088 26.6002 32.7168C26.4082 32.5248 26.2536 32.2741 26.1362 31.9648C26.0189 31.6448 25.9602 31.2501 25.9602 30.7808V23.3248H27.2722V30.4928C27.2722 30.8981 27.3576 31.2234 27.5282 31.4688C27.7096 31.7141 27.9922 31.8368 28.3762 31.8368H28.6962C28.9309 31.8368 29.0482 32.0661 29.0482 32.5248C29.0482 33.0048 28.9309 33.2448 28.6962 33.2448H28.1362ZM32.7487 28.2688C32.3007 28.2688 31.9381 28.4181 31.6607 28.7168C31.3941 29.0048 31.2607 29.3621 31.2607 29.7888C31.2607 30.0128 31.3034 30.2208 31.3887 30.4128C31.4847 30.6048 31.6074 30.7808 31.7567 30.9408C31.9167 31.0901 32.0874 31.2288 32.2687 31.3568C32.4607 31.4741 32.6527 31.5808 32.8447 31.6768C33.0047 31.5808 33.1647 31.4741 33.3247 31.3568C33.4954 31.2288 33.6447 31.0901 33.7727 30.9408C33.9114 30.7914 34.0234 30.6261 34.1087 30.4448C34.1941 30.2528 34.2367 30.0448 34.2367 29.8208C34.2367 29.3621 34.0981 28.9888 33.8207 28.7008C33.5541 28.4128 33.1967 28.2688 32.7487 28.2688ZM28.7007 33.2448C28.5621 33.2448 28.4714 33.1914 28.4287 33.0848C28.3754 32.9674 28.3487 32.7968 28.3487 32.5728C28.3487 32.3168 28.3754 32.1301 28.4287 32.0128C28.4714 31.8954 28.5621 31.8368 28.7007 31.8368H31.4047C30.9887 31.5488 30.6581 31.2234 30.4127 30.8608C30.1674 30.4874 30.0447 30.0661 30.0447 29.5968C30.0447 29.2448 30.1087 28.9088 30.2367 28.5888C30.3647 28.2581 30.5461 27.9701 30.7807 27.7248C31.0261 27.4794 31.3247 27.2821 31.6767 27.1328C32.0287 26.9834 32.4234 26.9088 32.8607 26.9088C33.2981 26.9088 33.6767 26.9834 33.9967 27.1328C34.3274 27.2821 34.5994 27.4794 34.8127 27.7248C35.0261 27.9701 35.1861 28.2474 35.2927 28.5568C35.3994 28.8661 35.4527 29.1808 35.4527 29.5008C35.4527 29.9808 35.3461 30.4128 35.1327 30.7968C34.9301 31.1701 34.6207 31.5168 34.2047 31.8368H36.7647C37.1061 31.8368 37.3674 31.7621 37.5487 31.6128C37.7301 31.4528 37.8207 31.2501 37.8207 31.0048C37.8207 30.7488 37.6927 30.4608 37.4367 30.1408L34.6367 26.8288L35.6127 25.9168L38.4447 29.2928C38.7434 29.6554 38.9514 29.9914 39.0687 30.3008C39.1861 30.6101 39.2447 30.9141 39.2447 31.2128C39.2447 31.5008 39.1914 31.7674 39.0847 32.0128C38.9781 32.2581 38.8234 32.4714 38.6207 32.6528C38.4287 32.8341 38.1834 32.9781 37.8847 33.0848C37.5861 33.1914 37.2447 33.2448 36.8607 33.2448H35.1007C34.6101 33.2448 34.1727 33.2288 33.7887 33.1968C33.4154 33.1648 33.1167 33.0901 32.8927 32.9728C32.7434 33.0368 32.5567 33.0901 32.3327 33.1328C32.1194 33.1648 31.8954 33.1914 31.6607 33.2128C31.4367 33.2234 31.2127 33.2341 30.9887 33.2448C30.7754 33.2448 30.5941 33.2448 30.4447 33.2448H28.7007ZM45.8602 31.2768C46.3509 31.2768 46.7349 31.1754 47.0122 30.9728C47.2896 30.7701 47.4282 30.5141 47.4282 30.2048V28.2048H45.9882C45.4762 28.2048 45.0976 28.3648 44.8522 28.6848C44.6069 29.0048 44.4842 29.4261 44.4842 29.9488C44.4842 30.4394 44.5962 30.7861 44.8202 30.9888C45.0442 31.1808 45.3909 31.2768 45.8602 31.2768ZM48.6922 30.4928C48.6922 30.8981 48.7722 31.2234 48.9322 31.4688C49.1029 31.7141 49.3909 31.8368 49.7962 31.8368H50.1162C50.2442 31.8368 50.3296 31.8954 50.3722 32.0128C50.4256 32.1194 50.4522 32.2901 50.4522 32.5248C50.4522 32.7701 50.4256 32.9514 50.3722 33.0688C50.3296 33.1861 50.2442 33.2448 50.1162 33.2448H49.7962C49.2842 33.2448 48.8522 33.1488 48.5002 32.9568C48.1589 32.7541 47.9082 32.3968 47.7482 31.8848C47.6202 32.0448 47.4656 32.1728 47.2842 32.2688C47.1136 32.3648 46.9322 32.4394 46.7402 32.4928C46.5482 32.5461 46.3509 32.5834 46.1482 32.6048C45.9456 32.6261 45.7589 32.6368 45.5882 32.6368C44.8202 32.6368 44.2336 32.4234 43.8282 31.9968C43.4229 31.5701 43.2202 30.9248 43.2202 30.0608C43.2202 29.6661 43.2736 29.2821 43.3802 28.9088C43.4976 28.5248 43.6682 28.1834 43.8922 27.8848C44.1162 27.5861 44.3936 27.3461 44.7242 27.1648C45.0656 26.9834 45.4602 26.8928 45.9082 26.8928H47.4282V25.8048H48.6922V30.4928ZM51.5786 31.8368C51.9626 31.8368 52.2613 31.7354 52.4746 31.5328C52.6986 31.3301 52.8106 31.0421 52.8106 30.6688V28.6208H54.1226V30.7328C54.1226 31.5434 53.904 32.1674 53.4666 32.6048C53.04 33.0314 52.4426 33.2448 51.6746 33.2448H50.1226C49.984 33.2448 49.8933 33.1914 49.8506 33.0848C49.7973 32.9674 49.7706 32.7968 49.7706 32.5728C49.7706 32.3168 49.7973 32.1301 49.8506 32.0128C49.8933 31.8954 49.984 31.8368 50.1226 31.8368H51.5786ZM53.6746 26.6528H52.1066V25.2768H53.6746V26.6528ZM58.2456 33.2448C57.9576 33.2448 57.6803 33.2074 57.4136 33.1328C57.147 33.0474 56.9123 32.9088 56.7096 32.7168C56.5176 32.5248 56.363 32.2741 56.2456 31.9648C56.1283 31.6448 56.0696 31.2501 56.0696 30.7808V23.3248H57.3816V30.4928C57.3816 30.8981 57.467 31.2234 57.6376 31.4688C57.819 31.7141 58.1016 31.8368 58.4856 31.8368H58.8056C59.0403 31.8368 59.1576 32.0661 59.1576 32.5248C59.1576 33.0048 59.0403 33.2448 58.8056 33.2448H58.2456ZM59.4501 31.8368C60.2928 31.8368 60.7141 31.4474 60.7141 30.6688V28.6208H62.0261V30.6688C62.0261 30.8821 62.0635 31.0634 62.1381 31.2128C62.2128 31.3621 62.3088 31.4848 62.4261 31.5808C62.5435 31.6661 62.6768 31.7301 62.8261 31.7728C62.9861 31.8154 63.1461 31.8368 63.3061 31.8368C64.2235 31.8368 64.6821 31.4474 64.6821 30.6688V28.6208H65.9941V30.6688C65.9941 31.1061 66.1061 31.4101 66.3301 31.5808C66.5648 31.7514 66.8368 31.8368 67.1461 31.8368C67.5088 31.8368 67.7968 31.7354 68.0101 31.5328C68.2235 31.3301 68.3301 31.0421 68.3301 30.6688V28.6208H69.6421V30.7328C69.6421 31.5434 69.4235 32.1674 68.9861 32.6048C68.5488 33.0314 67.9515 33.2448 67.1941 33.2448C66.8208 33.2448 66.4635 33.1754 66.1221 33.0368C65.7915 32.8981 65.5141 32.6261 65.2901 32.2208C65.0448 32.6261 64.7461 32.8981 64.3941 33.0368C64.0421 33.1754 63.6795 33.2448 63.3061 33.2448C62.9008 33.2448 62.5221 33.1754 62.1701 33.0368C61.8288 32.8981 61.5461 32.6261 61.3221 32.2208C61.0768 32.6261 60.7888 32.8981 60.4581 33.0368C60.1275 33.1754 59.7755 33.2448 59.4021 33.2448H58.8101C58.6715 33.2448 58.5808 33.1914 58.5381 33.0848C58.4848 32.9674 58.4581 32.7968 58.4581 32.5728C58.4581 32.3168 58.4848 32.1301 58.5381 32.0128C58.5808 31.8954 58.6715 31.8368 58.8101 31.8368H59.4501ZM73.3612 32.9888C73.3612 33.5861 73.2599 34.1354 73.0572 34.6368C72.8652 35.1488 72.5986 35.5861 72.2572 35.9488C71.9159 36.3221 71.5106 36.6101 71.0412 36.8128C70.5719 37.0154 70.0652 37.1168 69.5212 37.1168H68.5452L68.4652 35.7248H69.2012C69.7132 35.7248 70.1506 35.6448 70.5132 35.4848C70.8652 35.3354 71.1532 35.1328 71.3772 34.8768C71.6119 34.6208 71.7826 34.3274 71.8892 33.9968C71.9959 33.6768 72.0492 33.3408 72.0492 32.9888V28.6208H73.3612V32.9888ZM80.079 31.2768C80.5697 31.2768 80.9537 31.1754 81.231 30.9728C81.5083 30.7701 81.647 30.5141 81.647 30.2048V28.2048H80.207C79.695 28.2048 79.3163 28.3648 79.071 28.6848C78.8257 29.0048 78.703 29.4261 78.703 29.9488C78.703 30.4394 78.815 30.7861 79.039 30.9888C79.263 31.1808 79.6097 31.2768 80.079 31.2768ZM82.911 30.4928C82.911 30.8981 82.991 31.2234 83.151 31.4688C83.3217 31.7141 83.6097 31.8368 84.015 31.8368H84.335C84.463 31.8368 84.5483 31.8954 84.591 32.0128C84.6443 32.1194 84.671 32.2901 84.671 32.5248C84.671 32.7701 84.6443 32.9514 84.591 33.0688C84.5483 33.1861 84.463 33.2448 84.335 33.2448H84.015C83.503 33.2448 83.071 33.1488 82.719 32.9568C82.3777 32.7541 82.127 32.3968 81.967 31.8848C81.839 32.0448 81.6843 32.1728 81.503 32.2688C81.3323 32.3648 81.151 32.4394 80.959 32.4928C80.767 32.5461 80.5697 32.5834 80.367 32.6048C80.1643 32.6261 79.9777 32.6368 79.807 32.6368C79.039 32.6368 78.4523 32.4234 78.047 31.9968C77.6417 31.5701 77.439 30.9248 77.439 30.0608C77.439 29.6661 77.4923 29.2821 77.599 28.9088C77.7163 28.5248 77.887 28.1834 78.111 27.8848C78.335 27.5861 78.6123 27.3461 78.943 27.1648C79.2843 26.9834 79.679 26.8928 80.127 26.8928H81.647V25.8048H82.911V30.4928ZM84.5494 31.8368C85.36 31.8368 85.7654 31.4954 85.7654 30.8128V30.3168C85.7654 29.4101 86 28.6954 86.4694 28.1728C86.9494 27.6394 87.6107 27.3728 88.4534 27.3728C88.8907 27.3728 89.2747 27.4474 89.6054 27.5968C89.936 27.7354 90.2134 27.9328 90.4374 28.1888C90.6614 28.4341 90.8267 28.7328 90.9334 29.0848C91.0507 29.4368 91.1094 29.8208 91.1094 30.2368V30.6528C91.1094 31.1008 91.2214 31.4101 91.4454 31.5808C91.68 31.7514 91.952 31.8368 92.2614 31.8368H92.5174C92.656 31.8368 92.7467 31.8954 92.7894 32.0128C92.8427 32.1194 92.8694 32.2901 92.8694 32.5248C92.8694 32.7701 92.8427 32.9514 92.7894 33.0688C92.7467 33.1861 92.656 33.2448 92.5174 33.2448H92.2614C92.1014 33.2448 91.936 33.2288 91.7654 33.1968C91.6054 33.1648 91.4507 33.1114 91.3014 33.0368C91.152 32.9514 91.008 32.8394 90.8694 32.7008C90.7307 32.5514 90.608 32.3594 90.5014 32.1248C90.2134 32.5834 89.8827 32.8874 89.5094 33.0368C89.136 33.1754 88.752 33.2448 88.3574 33.2448C87.9307 33.2448 87.5307 33.1648 87.1574 33.0048C86.784 32.8341 86.4907 32.5514 86.2774 32.1568C86.1814 32.3808 86.064 32.5674 85.9254 32.7168C85.7867 32.8554 85.6427 32.9674 85.4934 33.0528C85.344 33.1274 85.184 33.1808 85.0134 33.2128C84.8534 33.2341 84.6987 33.2448 84.5494 33.2448H84.3414C84.2027 33.2448 84.112 33.1914 84.0694 33.0848C84.016 32.9674 83.9894 32.7968 83.9894 32.5728C83.9894 32.3168 84.016 32.1301 84.0694 32.0128C84.112 31.8954 84.2027 31.8368 84.3414 31.8368H84.5494ZM89.8294 30.3808C89.8294 29.9114 89.7227 29.5274 89.5094 29.2288C89.3067 28.9301 88.944 28.7808 88.4214 28.7808C87.9414 28.7808 87.584 28.9248 87.3494 29.2128C87.1254 29.5008 87.0134 29.9061 87.0134 30.4288C87.0134 30.8981 87.1414 31.2501 87.3974 31.4848C87.664 31.7194 88 31.8368 88.4054 31.8368C88.8854 31.8368 89.2427 31.7141 89.4774 31.4688C89.712 31.2128 89.8294 30.8501 89.8294 30.3808ZM96.5612 28.2688C96.1132 28.2688 95.7506 28.4181 95.4732 28.7168C95.2066 29.0048 95.0732 29.3621 95.0732 29.7888C95.0732 30.0128 95.1159 30.2208 95.2012 30.4128C95.2972 30.6048 95.4199 30.7808 95.5692 30.9408C95.7292 31.0901 95.8999 31.2288 96.0812 31.3568C96.2732 31.4741 96.4652 31.5808 96.6572 31.6768C96.8172 31.5808 96.9772 31.4741 97.1372 31.3568C97.3079 31.2288 97.4572 31.0901 97.5852 30.9408C97.7239 30.7914 97.8359 30.6261 97.9212 30.4448C98.0066 30.2528 98.0492 30.0448 98.0492 29.8208C98.0492 29.3621 97.9106 28.9888 97.6332 28.7008C97.3666 28.4128 97.0092 28.2688 96.5612 28.2688ZM92.5132 33.2448C92.3746 33.2448 92.2839 33.1914 92.2412 33.0848C92.1879 32.9674 92.1612 32.7968 92.1612 32.5728C92.1612 32.3168 92.1879 32.1301 92.2412 32.0128C92.2839 31.8954 92.3746 31.8368 92.5132 31.8368H95.2172C94.8012 31.5488 94.4706 31.2234 94.2252 30.8608C93.9799 30.4874 93.8572 30.0661 93.8572 29.5968C93.8572 29.2448 93.9212 28.9088 94.0492 28.5888C94.1772 28.2581 94.3586 27.9701 94.5932 27.7248C94.8386 27.4794 95.1372 27.2821 95.4892 27.1328C95.8412 26.9834 96.2359 26.9088 96.6732 26.9088C97.1106 26.9088 97.4892 26.9834 97.8092 27.1328C98.1399 27.2821 98.4119 27.4794 98.6252 27.7248C98.8386 27.9701 98.9986 28.2474 99.1052 28.5568C99.2119 28.8661 99.2652 29.1808 99.2652 29.5008C99.2652 29.9808 99.1586 30.4128 98.9452 30.7968C98.7426 31.1701 98.4332 31.5168 98.0172 31.8368H100.577C100.919 31.8368 101.18 31.7621 101.361 31.6128C101.543 31.4528 101.633 31.2501 101.633 31.0048C101.633 30.7488 101.505 30.4608 101.249 30.1408L98.4492 26.8288L99.4252 25.9168L102.257 29.2928C102.556 29.6554 102.764 29.9914 102.881 30.3008C102.999 30.6101 103.057 30.9141 103.057 31.2128C103.057 31.5008 103.004 31.7674 102.897 32.0128C102.791 32.2581 102.636 32.4714 102.433 32.6528C102.241 32.8341 101.996 32.9781 101.697 33.0848C101.399 33.1914 101.057 33.2448 100.673 33.2448H98.9132C98.4226 33.2448 97.9852 33.2288 97.6012 33.1968C97.2279 33.1648 96.9292 33.0901 96.7052 32.9728C96.5559 33.0368 96.3692 33.0901 96.1452 33.1328C95.9319 33.1648 95.7079 33.1914 95.4732 33.2128C95.2492 33.2234 95.0252 33.2341 94.8012 33.2448C94.5879 33.2448 94.4066 33.2448 94.2572 33.2448H92.5132ZM109.529 33.2448C109.091 33.2448 108.713 33.1808 108.393 33.0528C108.083 32.9141 107.827 32.7328 107.625 32.5088C107.433 32.2848 107.289 32.0234 107.193 31.7248C107.107 31.4261 107.065 31.1114 107.065 30.7808V28.5728H108.377V30.4608C108.377 30.8768 108.478 31.2128 108.681 31.4688C108.883 31.7141 109.267 31.8368 109.833 31.8368H115.081C115.902 31.8368 116.313 31.4474 116.313 30.6688V28.6208H117.625V30.9248C117.625 31.3088 117.561 31.6448 117.433 31.9328C117.305 32.2208 117.129 32.4608 116.905 32.6528C116.691 32.8448 116.441 32.9941 116.153 33.1008C115.875 33.1968 115.582 33.2448 115.273 33.2448H109.529ZM113.113 36.4448H111.545V35.0688H113.113V36.4448ZM121.746 33.2448C121.458 33.2448 121.18 33.2074 120.914 33.1328C120.647 33.0474 120.412 32.9088 120.21 32.7168C120.018 32.5248 119.863 32.2741 119.746 31.9648C119.628 31.6448 119.57 31.2501 119.57 30.7808V23.3248H120.882V30.4928C120.882 30.8981 120.967 31.2234 121.138 31.4688C121.319 31.7141 121.602 31.8368 121.986 31.8368H122.306C122.54 31.8368 122.658 32.0661 122.658 32.5248C122.658 33.0048 122.54 33.2448 122.306 33.2448H121.746ZM129.286 30.9408C129.457 31.2821 129.643 31.5168 129.846 31.6448C130.059 31.7728 130.337 31.8368 130.678 31.8368H131.67C131.809 31.8368 131.899 31.8954 131.942 32.0128C131.995 32.1194 132.022 32.2901 132.022 32.5248C132.022 32.7701 131.995 32.9514 131.942 33.0688C131.899 33.1861 131.809 33.2448 131.67 33.2448H130.598C130.246 33.2448 129.947 33.2021 129.702 33.1168C129.457 33.0208 129.249 32.8981 129.078 32.7488C128.907 32.5888 128.763 32.4021 128.646 32.1888C128.539 31.9754 128.443 31.7408 128.358 31.4848L126.918 32.3168C126.641 32.4874 126.369 32.6314 126.102 32.7488C125.835 32.8661 125.547 32.9621 125.238 33.0368C124.939 33.1114 124.609 33.1648 124.246 33.1968C123.883 33.2288 123.467 33.2448 122.998 33.2448H122.31C122.171 33.2448 122.081 33.1914 122.038 33.0848C121.985 32.9674 121.958 32.7968 121.958 32.5728C121.958 32.3168 121.985 32.1301 122.038 32.0128C122.081 31.8954 122.171 31.8368 122.31 31.8368H123.046C123.451 31.8368 123.809 31.8261 124.118 31.8048C124.438 31.7834 124.731 31.7461 124.998 31.6928C125.265 31.6394 125.515 31.5701 125.75 31.4848C125.985 31.3888 126.225 31.2714 126.47 31.1328L128.854 29.7568C128.769 29.5648 128.683 29.3994 128.598 29.2608C128.523 29.1114 128.422 28.9834 128.294 28.8768C128.166 28.7701 128.011 28.6901 127.83 28.6368C127.649 28.5834 127.419 28.5568 127.142 28.5568H123.654L123.75 27.1488H127.334C127.622 27.1488 127.91 27.1861 128.198 27.2608C128.497 27.3354 128.774 27.4848 129.03 27.7088C129.297 27.9328 129.542 28.2528 129.766 28.6688C129.99 29.0848 130.177 29.6341 130.326 30.3168L129.286 30.9408ZM127.094 25.4048H125.526V24.0288H127.094V25.4048ZM132.837 31.8368C133.669 31.8368 134.085 31.4474 134.085 30.6688V28.6208H135.397V30.6688C135.397 30.8821 135.429 31.0634 135.493 31.2128C135.568 31.3621 135.664 31.4848 135.781 31.5808C135.899 31.6661 136.032 31.7301 136.181 31.7728C136.341 31.8154 136.501 31.8368 136.661 31.8368H137.109C137.355 31.8368 137.477 32.0661 137.477 32.5248C137.477 33.0048 137.355 33.2448 137.109 33.2448H136.613C136.229 33.2448 135.867 33.1754 135.525 33.0368C135.195 32.8981 134.917 32.6261 134.693 32.2208C134.448 32.6261 134.165 32.8981 133.845 33.0368C133.536 33.1754 133.2 33.2448 132.837 33.2448H131.669C131.531 33.2448 131.44 33.1914 131.397 33.0848C131.344 32.9674 131.317 32.7968 131.317 32.5728C131.317 32.3168 131.344 32.1301 131.397 32.0128C131.44 31.8954 131.531 31.8368 131.669 31.8368H132.837ZM136.341 26.6528H134.885V25.3088H136.341V26.6528ZM134.197 26.6528H132.741V25.3088H134.197V26.6528ZM138.563 31.8368C138.947 31.8368 139.246 31.7354 139.459 31.5328C139.683 31.3301 139.795 31.0421 139.795 30.6688V28.6208H141.107V30.7328C141.107 31.5434 140.888 32.1674 140.451 32.6048C140.024 33.0314 139.427 33.2448 138.659 33.2448H137.107C136.968 33.2448 136.878 33.1914 136.835 33.0848C136.782 32.9674 136.755 32.7968 136.755 32.5728C136.755 32.3168 136.782 32.1301 136.835 32.0128C136.878 31.8954 136.968 31.8368 137.107 31.8368H138.563ZM140.659 26.6528H139.091V25.2768H140.659V26.6528ZM143.054 23.3248H144.366V33.2448H143.054V23.3248Z" fill="#5E7DBE"/>
<rect x="154.934" y="18.1057" width="21.8672" height="21.8672" rx="4.5" fill="white" stroke="#5E7DBE"/>
<path d="M159.883 29.0392L162.713 31.8692L168.383 26.2092" stroke="#5E7DBE" stroke-width="1.2" stroke-linecap="round" stroke-linejoin="round"/>
<path d="M166.18 31.8692L165.756 32.2933C165.99 32.5276 166.37 32.5279 166.604 32.2939L166.18 31.8692ZM172.274 26.6339C172.509 26.3998 172.509 26.0199 172.275 25.7853C172.041 25.5508 171.661 25.5505 171.426 25.7846L172.274 26.6339ZM164.923 31.4599L165.756 32.2933L166.605 31.4452L165.772 30.6118L164.923 31.4599ZM166.604 32.2939L172.274 26.6339L171.426 25.7846L165.756 31.4446L166.604 32.2939Z" fill="#5E7DBE"/>
<defs>
<filter id="filter0_d_189_263" x="0" y="0.293213" width="195.633" height="65.2102" filterUnits="userSpaceOnUse" color-interpolation-filters="sRGB">
<feFlood flood-opacity="0" result="BackgroundImageFix"/>
<feColorMatrix in="SourceAlpha" type="matrix" values="0 0 0 0 0 0 0 0 0 0 0 0 0 0 0 0 0 0 127 0" result="hardAlpha"/>
<feOffset dy="4"/>
<feGaussianBlur stdDeviation="4"/>
<feComposite in2="hardAlpha" operator="out"/>
<feColorMatrix type="matrix" values="0 0 0 0 0.368627 0 0 0 0 0.490196 0 0 0 0 0.745098 0 0 0 0.15 0"/>
<feBlend mode="normal" in2="BackgroundImageFix" result="effect1_dropShadow_189_263"/>
<feBlend mode="normal" in="SourceGraphic" in2="effect1_dropShadow_189_263" result="shape"/>
</filter>
</defs>
</svg>
