<svg width="31" height="31" viewBox="0 0 31 31" fill="none" xmlns="http://www.w3.org/2000/svg">
<path d="M1.46094 1.57715H3.9588C5.5092 1.57715 6.72941 2.91221 6.60021 4.44825L5.4087 18.7463C5.20773 21.0863 7.05958 23.096 9.41388 23.096H24.7025C26.7697 23.096 28.5785 21.4021 28.7364 19.3493L29.5116 8.58265C29.6839 6.19963 27.8751 4.26162 25.4777 4.26162H6.94475" stroke="white" stroke-width="2" stroke-miterlimit="10" stroke-linecap="round" stroke-linejoin="round"/>
<path d="M21.1234 30.4928C22.0782 30.4928 22.8523 29.7188 22.8523 28.7639C22.8523 27.8091 22.0782 27.035 21.1234 27.035C20.1686 27.035 19.3945 27.8091 19.3945 28.7639C19.3945 29.7188 20.1686 30.4928 21.1234 30.4928Z" fill="white"/>
<path d="M11.7289 30.4927C12.6837 30.4927 13.4577 29.7187 13.4577 28.7639C13.4577 27.8091 12.6837 27.035 11.7289 27.035C10.774 27.035 10 27.8091 10 28.7639C10 29.7187 10.774 30.4927 11.7289 30.4927Z" fill="white"/>
<path d="M11.5098 10.1904H28.7364" stroke="white" stroke-width="2" stroke-miterlimit="10" stroke-linecap="round" stroke-linejoin="round"/>
</svg>
