<svg width="27" height="27" viewBox="0 0 27 27" fill="none" xmlns="http://www.w3.org/2000/svg">
<path d="M1.45312 1.6145H3.59765C4.92873 1.6145 5.97634 2.76071 5.86542 4.07947L4.84245 16.355C4.66991 18.3639 6.2598 20.0894 8.28107 20.0894H21.407C23.1818 20.0894 24.7347 18.6351 24.8703 16.8726L25.5358 7.62902C25.6837 5.5831 24.1308 3.91924 22.0726 3.91924H6.16122" stroke="#404040" stroke-width="1.5" stroke-miterlimit="10" stroke-linecap="round" stroke-linejoin="round"/>
<path d="M18.332 26.44C19.1517 26.44 19.8163 25.7754 19.8163 24.9556C19.8163 24.1359 19.1517 23.4713 18.332 23.4713C17.5122 23.4713 16.8477 24.1359 16.8477 24.9556C16.8477 25.7754 17.5122 26.44 18.332 26.44Z" fill="#404040"/>
<path d="M10.2668 26.4399C11.0865 26.4399 11.7511 25.7754 11.7511 24.9556C11.7511 24.1359 11.0865 23.4713 10.2668 23.4713C9.44701 23.4713 8.78247 24.1359 8.78247 24.9556C8.78247 25.7754 9.44701 26.4399 10.2668 26.4399Z" fill="#404040"/>
<path d="M10.0801 9.00952H24.8699" stroke="#404040" stroke-width="1.5" stroke-miterlimit="10" stroke-linecap="round" stroke-linejoin="round"/>
</svg>
