<svg width="35" height="35" viewBox="0 0 35 35" fill="none" xmlns="http://www.w3.org/2000/svg">
<circle cx="17.7676" cy="16.6678" r="14.6387" fill="#EFEFEF"/>
<path d="M22.5411 13.5671L14.0558 22.0524C13.7659 22.3423 13.2851 22.3423 12.9952 22.0524C12.7053 21.7625 12.7053 21.2817 12.9952 20.9918L21.4805 12.5065C21.7704 12.2166 22.2512 12.2166 22.5411 12.5065C22.831 12.7964 22.831 13.2772 22.5411 13.5671Z" fill="#404040"/>
<path d="M22.5411 22.0524C22.2512 22.3423 21.7704 22.3423 21.4805 22.0524L12.9952 13.5671C12.7053 13.2772 12.7053 12.7963 12.9952 12.5064C13.2851 12.2165 13.7659 12.2165 14.0558 12.5064L22.5411 20.9917C22.831 21.2816 22.831 21.7624 22.5411 22.0524Z" fill="#404040"/>
</svg>
