<svg width="13" height="11" viewBox="0 0 13 11" fill="none" xmlns="http://www.w3.org/2000/svg">
<path d="M0.880396 5.12318C0.880396 5.12318 6.21708 2.86913 8.06793 2.07542C8.77745 1.75796 11.1836 0.742009 11.1836 0.742009C11.1836 0.742009 12.2941 0.297568 12.2016 1.37697C12.1707 1.82145 11.9239 3.37706 11.6771 5.05969C11.307 7.44078 10.9059 10.0441 10.9059 10.0441C10.9059 10.0441 10.8442 10.7743 10.3198 10.9013C9.79543 11.0282 8.93166 10.4568 8.77745 10.3298C8.65402 10.2346 6.46385 8.80591 5.66181 8.10746C5.44587 7.91698 5.1991 7.53604 5.69263 7.09155C6.80318 6.04388 8.12962 4.74224 8.93166 3.9168C9.30185 3.53581 9.67201 2.64688 8.12962 3.72628C5.93944 5.28193 3.78009 6.74233 3.78009 6.74233C3.78009 6.74233 3.28651 7.05978 2.36109 6.77405C1.43562 6.48836 0.355949 6.10737 0.355949 6.10737C0.355949 6.10737 -0.384356 5.63116 0.880396 5.12318Z" fill="white"/>
</svg>
