<svg width="21" height="20" viewBox="0 0 21 20" fill="none" xmlns="http://www.w3.org/2000/svg">
<rect x="0.195312" y="0.124023" width="19.8821" height="19.88" rx="9.94" fill="#34AADF"/>
<path d="M5.17378 9.79264C5.17378 9.79264 9.41794 8.00003 10.8899 7.3688C11.4542 7.11634 13.3677 6.30837 13.3677 6.30837C13.3677 6.30837 14.2509 5.95491 14.1773 6.81334C14.1527 7.16683 13.9565 8.40398 13.7602 9.74214C13.4658 11.6358 13.1469 13.7061 13.1469 13.7061C13.1469 13.7061 13.0978 14.2869 12.6808 14.3878C12.2637 14.4888 11.5768 14.0344 11.4542 13.9334C11.356 13.8576 9.6142 12.7214 8.97635 12.166C8.80461 12.0145 8.60836 11.7115 9.00086 11.358C9.88406 10.5248 10.939 9.48968 11.5768 8.83322C11.8712 8.53023 12.1656 7.82328 10.939 8.68171C9.19715 9.91889 7.47985 11.0803 7.47985 11.0803C7.47985 11.0803 7.08732 11.3328 6.35135 11.1055C5.61534 10.8783 4.75669 10.5753 4.75669 10.5753C4.75669 10.5753 4.16794 10.1966 5.17378 9.79264Z" fill="white"/>
</svg>
