<svg width="25" height="25" viewBox="0 0 25 25" fill="none" xmlns="http://www.w3.org/2000/svg">
<rect x="0.882812" y="12.2778" width="16.8217" height="16.8217" rx="4" transform="rotate(-45 0.882812 12.2778)" fill="#FFEDBF"/>
<path d="M13.6287 9.66975C13.6287 10.2603 13.6164 10.8016 13.5918 11.2937C13.5795 11.7736 13.5549 12.2288 13.518 12.6594C13.4934 13.09 13.4626 13.5021 13.4257 13.8958C13.3888 14.2895 13.3458 14.6894 13.2965 15.0954H12.1524C12.1155 14.6894 12.0724 14.2957 12.0232 13.9143C11.974 13.5206 11.9309 13.1084 11.894 12.6778C11.8571 12.2472 11.8263 11.7859 11.8017 11.2937C11.7771 10.8016 11.7648 10.2603 11.7648 9.66975V7.34448H13.6287V9.66975ZM12.7429 18.5279C12.3861 18.5279 12.1093 18.4418 11.9125 18.2696C11.7156 18.0973 11.6172 17.8143 11.6172 17.4206C11.6172 17.027 11.7156 16.744 11.9125 16.5717C12.1093 16.3995 12.3861 16.3134 12.7429 16.3134C13.0751 16.3134 13.3396 16.3995 13.5365 16.5717C13.7456 16.744 13.8502 17.027 13.8502 17.4206C13.8502 17.8143 13.7456 18.0973 13.5365 18.2696C13.3396 18.4418 13.0751 18.5279 12.7429 18.5279Z" fill="#E3A507"/>
</svg>
