<svg width="25" height="25" viewBox="0 0 25 25" fill="none" xmlns="http://www.w3.org/2000/svg">
<path d="M14.9062 11.5923H9.90625C9.49625 11.5923 9.15625 11.2523 9.15625 10.8423C9.15625 10.4323 9.49625 10.0923 9.90625 10.0923H14.9062C15.3162 10.0923 15.6562 10.4323 15.6562 10.8423C15.6562 11.2523 15.3162 11.5923 14.9062 11.5923Z" fill="#5E7DBE"/>
<path d="M12.4062 14.1523C11.9963 14.1523 11.6562 13.8123 11.6562 13.4023V8.40234C11.6562 7.99234 11.9963 7.65234 12.4062 7.65234C12.8162 7.65234 13.1562 7.99234 13.1562 8.40234V13.4023C13.1562 13.8123 12.8162 14.1523 12.4062 14.1523Z" fill="#5E7DBE"/>
<path d="M19.4766 22.9424C18.9666 22.9424 18.4066 22.7924 17.8666 22.4824L12.9866 19.7724C12.6966 19.6124 12.1266 19.6124 11.8366 19.7724L6.95656 22.4824C5.96656 23.0324 4.95656 23.0924 4.18656 22.6324C3.41656 22.1824 2.97656 21.2724 2.97656 20.1424V6.05238C2.97656 3.51238 5.04656 1.44238 7.58656 1.44238H17.2366C19.7766 1.44238 21.8466 3.51238 21.8466 6.05238V20.1424C21.8466 21.2724 21.4066 22.1824 20.6366 22.6324C20.2866 22.8424 19.8866 22.9424 19.4766 22.9424ZM12.4066 18.1524C12.8766 18.1524 13.3366 18.2524 13.7066 18.4624L18.5866 21.1724C19.0966 21.4624 19.5666 21.5224 19.8666 21.3424C20.1666 21.1624 20.3366 20.7324 20.3366 20.1424V6.05238C20.3366 4.34238 18.9366 2.94238 17.2266 2.94238H7.58656C5.87656 2.94238 4.47656 4.34238 4.47656 6.05238V20.1424C4.47656 20.7324 4.64656 21.1724 4.94656 21.3424C5.24656 21.5124 5.71656 21.4624 6.22656 21.1724L11.1066 18.4624C11.4766 18.2524 11.9366 18.1524 12.4066 18.1524Z" fill="#5E7DBE"/>
</svg>
