<svg width="16" height="19" viewBox="0 0 16 19" fill="none" xmlns="http://www.w3.org/2000/svg">
<path d="M10.1249 8.7763H5.98776C5.64851 8.7763 5.36719 8.49498 5.36719 8.15573C5.36719 7.81648 5.64851 7.53516 5.98776 7.53516H10.1249C10.4642 7.53516 10.7455 7.81648 10.7455 8.15573C10.7455 8.49498 10.4642 8.7763 10.1249 8.7763Z" fill="white"/>
<path d="M8.05612 10.8947C7.71687 10.8947 7.43555 10.6133 7.43555 10.2741V6.13693C7.43555 5.79768 7.71687 5.51636 8.05612 5.51636C8.39537 5.51636 8.6767 5.79768 8.6767 6.13693V10.2741C8.6767 10.6133 8.39537 10.8947 8.05612 10.8947Z" fill="white"/>
<path d="M13.9065 18.1677C13.4845 18.1677 13.0212 18.0436 12.5744 17.7871L8.5365 15.5448C8.29655 15.4124 7.82491 15.4124 7.58496 15.5448L3.54709 17.7871C2.72793 18.2422 1.89222 18.2918 1.2551 17.9112C0.617977 17.5389 0.253906 16.7859 0.253906 15.8509V4.19239C0.253906 2.09071 1.96669 0.37793 4.06837 0.37793H12.0531C14.1548 0.37793 15.8676 2.09071 15.8676 4.19239V15.8509C15.8676 16.7859 15.5035 17.5389 14.8664 17.9112C14.5768 18.085 14.2458 18.1677 13.9065 18.1677ZM8.05659 14.2043C8.44549 14.2043 8.82611 14.2871 9.13226 14.4608L13.1701 16.7032C13.5921 16.9431 13.981 16.9928 14.2292 16.8438C14.4775 16.6949 14.6181 16.3391 14.6181 15.8509V4.19239C14.6181 2.77748 13.4597 1.61908 12.0448 1.61908H4.06837C2.65346 1.61908 1.49505 2.77748 1.49505 4.19239V15.8509C1.49505 16.3391 1.63572 16.7032 1.88395 16.8438C2.13218 16.9845 2.52107 16.9431 2.94306 16.7032L6.98093 14.4608C7.28708 14.2871 7.6677 14.2043 8.05659 14.2043Z" fill="white"/>
</svg>
