<svg width="19" height="19" viewBox="0 0 19 19" fill="none" xmlns="http://www.w3.org/2000/svg">
<path d="M6.46875 1.88306V4.13306" stroke="#292D32" stroke-miterlimit="10" stroke-linecap="round" stroke-linejoin="round"/>
<path d="M12.4688 1.88306V4.13306" stroke="#292D32" stroke-miterlimit="10" stroke-linecap="round" stroke-linejoin="round"/>
<path d="M14.1187 16.4331C15.4442 16.4331 16.5187 15.3585 16.5187 14.0331C16.5187 12.7076 15.4442 11.6331 14.1187 11.6331C12.7933 11.6331 11.7188 12.7076 11.7188 14.0331C11.7188 15.3585 12.7933 16.4331 14.1187 16.4331Z" stroke="#292D32" stroke-linecap="round" stroke-linejoin="round"/>
<path d="M16.9688 16.8831L16.2188 16.1331" stroke="#292D32" stroke-linecap="round" stroke-linejoin="round"/>
<path d="M3.09375 7.20056H15.8438" stroke="#292D32" stroke-miterlimit="10" stroke-linecap="round" stroke-linejoin="round"/>
<path d="M10.4962 16.8831H6.46875C3.84375 16.8831 2.71875 15.3831 2.71875 13.1331V6.75806C2.71875 4.50806 3.84375 3.00806 6.46875 3.00806H12.4688C15.0938 3.00806 16.2188 4.50806 16.2188 6.75806V10.1331" stroke="#292D32" stroke-miterlimit="10" stroke-linecap="round" stroke-linejoin="round"/>
<path d="M9.46463 10.6581H9.47137" stroke="#292D32" stroke-width="1.5" stroke-linecap="round" stroke-linejoin="round"/>
<path d="M6.68924 10.6581H6.69598" stroke="#292D32" stroke-width="1.5" stroke-linecap="round" stroke-linejoin="round"/>
<path d="M6.68924 12.9081H6.69598" stroke="#292D32" stroke-width="1.5" stroke-linecap="round" stroke-linejoin="round"/>
</svg>
