<svg width="35" height="35" viewBox="0 0 35 35" fill="none" xmlns="http://www.w3.org/2000/svg">
<path d="M21.2618 10.0205L15.3884 15.8939C15.1877 16.0946 14.8549 16.0946 14.6542 15.8939C14.4535 15.6933 14.4535 15.3604 14.6542 15.1598L20.5277 9.2863C20.7283 9.08562 21.0612 9.08562 21.2618 9.2863C21.4625 9.48698 21.4625 9.81981 21.2618 10.0205Z" fill="#404040"/>
<path d="M21.2618 15.8939C21.0612 16.0946 20.7283 16.0946 20.5277 15.8939L14.6542 10.0204C14.4535 9.81974 14.4535 9.48691 14.6542 9.28623C14.8549 9.08555 15.1877 9.08555 15.3884 9.28623L21.2618 15.1597C21.4625 15.3604 21.4625 15.6932 21.2618 15.8939Z" fill="#404040"/>
</svg>
