<svg width="35" height="35" viewBox="0 0 35 35" fill="none" xmlns="http://www.w3.org/2000/svg">
<circle cx="17.7676" cy="17.2227" r="14.6387" fill="#EFEFEF"/>
<path d="M22.5411 14.122L14.0558 22.6072C13.7659 22.8971 13.2851 22.8971 12.9952 22.6072C12.7053 22.3173 12.7053 21.8365 12.9952 21.5466L21.4805 13.0613C21.7704 12.7714 22.2512 12.7714 22.5411 13.0613C22.831 13.3512 22.831 13.832 22.5411 14.122Z" fill="#404040"/>
<path d="M22.5411 22.6072C22.2512 22.8971 21.7704 22.8971 21.4805 22.6072L12.9952 14.1219C12.7053 13.832 12.7053 13.3511 12.9952 13.0612C13.2851 12.7713 13.7659 12.7713 14.0558 13.0612L22.5411 21.5465C22.831 21.8364 22.831 22.3173 22.5411 22.6072Z" fill="#404040"/>
</svg>
