<svg width="22" height="22" viewBox="0 0 22 22" fill="none" xmlns="http://www.w3.org/2000/svg">
<path d="M7.4149 10.8369C7.4149 8.91631 8.97099 7.35894 10.891 7.35894C12.8111 7.35894 14.368 8.91631 14.368 10.8369C14.368 12.7575 12.8111 14.3149 10.891 14.3149C8.97099 14.3149 7.4149 12.7575 7.4149 10.8369ZM5.53531 10.8369C5.53531 13.7958 7.93306 16.1942 10.891 16.1942C13.849 16.1942 16.2468 13.7958 16.2468 10.8369C16.2468 7.87809 13.849 5.47965 10.891 5.47965C7.93306 5.47965 5.53531 7.87809 5.53531 10.8369ZM15.2072 5.26723C15.2071 5.51484 15.2804 5.75693 15.4178 5.96287C15.5553 6.16881 15.7507 6.32936 15.9794 6.42421C16.208 6.51906 16.4597 6.54395 16.7025 6.49574C16.9453 6.44753 17.1684 6.32838 17.3435 6.15336C17.5186 5.97834 17.6379 5.75531 17.6863 5.51247C17.7347 5.26963 17.71 5.01789 17.6153 4.78908C17.5207 4.56027 17.3603 4.36468 17.1546 4.22703C16.9488 4.08938 16.7068 4.01585 16.4593 4.01575H16.4588C16.127 4.01591 15.8088 4.14779 15.5741 4.38244C15.3394 4.61709 15.2075 4.93532 15.2072 5.26723ZM6.67728 19.3292C5.66039 19.2829 5.10767 19.1135 4.74037 18.9703C4.25341 18.7807 3.90596 18.5548 3.54066 18.1899C3.17535 17.825 2.94923 17.4778 2.76048 16.9907C2.6173 16.6235 2.44791 16.0704 2.40169 15.0532C2.35112 13.9535 2.34103 13.6232 2.34103 10.837C2.34103 8.05087 2.35196 7.72143 2.40169 6.62078C2.448 5.60359 2.61863 5.05164 2.76048 4.68331C2.95006 4.1962 3.17585 3.84866 3.54066 3.48325C3.90546 3.11784 4.25257 2.89165 4.74037 2.70285C5.10751 2.55962 5.66039 2.39019 6.67728 2.34395C7.7767 2.29337 8.10696 2.28327 10.891 2.28327C13.6751 2.28327 14.0057 2.29421 15.1061 2.34395C16.123 2.39027 16.6747 2.56096 17.043 2.70285C17.5299 2.89165 17.8774 3.11834 18.2427 3.48325C18.608 3.84816 18.8333 4.1962 19.0229 4.68331C19.166 5.05055 19.3354 5.60359 19.3816 6.62078C19.4322 7.72143 19.4423 8.05087 19.4423 10.837C19.4423 13.6232 19.4322 13.9526 19.3816 15.0532C19.3353 16.0704 19.1651 16.6233 19.0229 16.9907C18.8333 17.4778 18.6075 17.8254 18.2427 18.1899C17.8779 18.5545 17.5299 18.7807 17.043 18.9703C16.6758 19.1136 16.123 19.283 15.1061 19.3292C14.0066 19.3798 13.6764 19.3899 10.891 19.3899C8.1057 19.3899 7.77636 19.3798 6.67728 19.3292ZM6.59092 0.466992C5.48057 0.517571 4.72184 0.693682 4.05924 0.951589C3.37302 1.21793 2.79211 1.57524 2.21161 2.15499C1.63111 2.73473 1.27482 3.31673 1.00856 4.00315C0.750728 4.66636 0.574667 5.42489 0.524102 6.53556C0.472703 7.64798 0.460938 8.00362 0.460938 10.8369C0.460938 13.6702 0.472703 14.0259 0.524102 15.1383C0.574667 16.249 0.750728 17.0075 1.00856 17.6707C1.27482 18.3567 1.6312 18.9394 2.21161 19.5189C2.79202 20.0984 3.37302 20.4552 4.05924 20.7223C4.7231 20.9802 5.48057 21.1563 6.59092 21.2069C7.7036 21.2574 8.05856 21.27 10.891 21.27C13.7235 21.27 14.0791 21.2583 15.1912 21.2069C16.3016 21.1563 17.0598 20.9802 17.7228 20.7223C18.4086 20.4552 18.99 20.0986 19.5705 19.5189C20.151 18.9391 20.5065 18.3567 20.7735 17.6707C21.0314 17.0075 21.2083 16.249 21.258 15.1383C21.3085 14.025 21.3203 13.6702 21.3203 10.8369C21.3203 8.00362 21.3085 7.64798 21.258 6.53556C21.2074 5.42481 21.0314 4.66595 20.7735 4.00315C20.5065 3.31715 20.1501 2.73565 19.5705 2.15499C18.9909 1.57432 18.4086 1.21793 17.7237 0.951589C17.0598 0.693682 16.3015 0.516737 15.192 0.466992C14.0799 0.416412 13.7244 0.403809 10.8919 0.403809C8.05939 0.403809 7.7036 0.415577 6.59092 0.466992Z" fill="#EEEEEE"/>
</svg>
