<svg width="15" height="15" viewBox="0 0 15 15" fill="none" xmlns="http://www.w3.org/2000/svg">
<path d="M5.38096 7.58599C5.38096 6.27244 6.4452 5.20732 7.75837 5.20732C9.07153 5.20732 10.1363 6.27244 10.1363 7.58599C10.1363 8.89953 9.07153 9.96465 7.75837 9.96465C6.4452 9.96465 5.38096 8.89953 5.38096 7.58599ZM4.09547 7.58599C4.09547 9.60959 5.73534 11.2499 7.75837 11.2499C9.78139 11.2499 11.4213 9.60959 11.4213 7.58599C11.4213 5.56238 9.78139 3.92203 7.75837 3.92203C5.73534 3.92203 4.09547 5.56238 4.09547 7.58599ZM10.7103 3.77675C10.7102 3.9461 10.7603 4.11167 10.8543 4.25252C10.9483 4.39337 11.082 4.50317 11.2384 4.56804C11.3948 4.63291 11.5669 4.64993 11.7329 4.61696C11.899 4.58399 12.0516 4.5025 12.1713 4.3828C12.2911 4.2631 12.3727 4.11056 12.4058 3.94448C12.4389 3.7784 12.422 3.60623 12.3572 3.44974C12.2925 3.29325 12.1829 3.15948 12.0421 3.06534C11.9014 2.9712 11.7359 2.92091 11.5666 2.92085H11.5663C11.3393 2.92095 11.1217 3.01115 10.9612 3.17163C10.8007 3.33211 10.7105 3.54975 10.7103 3.77675ZM4.87649 13.3941C4.18101 13.3624 3.803 13.2465 3.55179 13.1486C3.21875 13.0189 2.98112 12.8644 2.73128 12.6149C2.48144 12.3653 2.32679 12.1278 2.19771 11.7947C2.09978 11.5435 1.98393 11.1653 1.95232 10.4696C1.91774 9.71748 1.91083 9.49154 1.91083 7.58604C1.91083 5.68054 1.91831 5.45523 1.95232 4.70248C1.98399 4.0068 2.10069 3.62931 2.19771 3.3774C2.32736 3.04426 2.48179 2.80656 2.73128 2.55665C2.98078 2.30674 3.21818 2.15205 3.55179 2.02292C3.80289 1.92497 4.18101 1.80909 4.87649 1.77747C5.6284 1.74287 5.85427 1.73597 7.75837 1.73597C9.66246 1.73597 9.88856 1.74344 10.6411 1.77747C11.3366 1.80915 11.714 1.92588 11.9658 2.02292C12.2988 2.15205 12.5365 2.30709 12.7863 2.55665C13.0361 2.80622 13.1902 3.04426 13.3199 3.3774C13.4178 3.62857 13.5337 4.0068 13.5653 4.70248C13.5998 5.45523 13.6068 5.68054 13.6068 7.58604C13.6068 9.49154 13.5998 9.71685 13.5653 10.4696C13.5336 11.1653 13.4172 11.5434 13.3199 11.7947C13.1902 12.1278 13.0358 12.3655 12.7863 12.6149C12.5368 12.8642 12.2988 13.0189 11.9658 13.1486C11.7147 13.2465 11.3366 13.3624 10.6411 13.3941C9.88919 13.4286 9.66332 13.4356 7.75837 13.4356C5.85341 13.4356 5.62817 13.4286 4.87649 13.3941ZM4.81742 0.493774C4.05803 0.528366 3.53912 0.648812 3.08595 0.8252C2.61664 1.00735 2.21934 1.25173 1.82232 1.64823C1.42531 2.04473 1.18163 2.44277 0.99953 2.91223C0.823193 3.36581 0.702782 3.88458 0.6682 4.64419C0.633046 5.405 0.625 5.64823 0.625 7.58599C0.625 9.52374 0.633046 9.76697 0.6682 10.5278C0.702782 11.2874 0.823193 11.8062 0.99953 12.2597C1.18163 12.7289 1.42536 13.1274 1.82232 13.5237C2.21928 13.9201 2.61664 14.1641 3.08595 14.3468C3.53998 14.5232 4.05803 14.6436 4.81742 14.6782C5.57841 14.7128 5.82117 14.7214 7.75837 14.7214C9.69556 14.7214 9.93872 14.7134 10.6993 14.6782C11.4588 14.6436 11.9773 14.5232 12.4308 14.3468C12.8998 14.1641 13.2974 13.9202 13.6944 13.5237C14.0914 13.1272 14.3346 12.7289 14.5172 12.2597C14.6935 11.8062 14.8145 11.2874 14.8485 10.5278C14.8831 9.7664 14.8912 9.52374 14.8912 7.58599C14.8912 5.64823 14.8831 5.405 14.8485 4.64419C14.8139 3.88453 14.6935 3.36553 14.5172 2.91223C14.3346 2.44306 14.0908 2.04536 13.6944 1.64823C13.298 1.2511 12.8998 1.00735 12.4313 0.8252C11.9773 0.648812 11.4587 0.527795 10.6999 0.493774C9.93929 0.459181 9.69613 0.450562 7.75894 0.450562C5.82174 0.450562 5.57841 0.45861 4.81742 0.493774Z" fill="#5E7DBE"/>
<path d="M5.38096 7.58599C5.38096 6.27244 6.4452 5.20732 7.75837 5.20732C9.07153 5.20732 10.1363 6.27244 10.1363 7.58599C10.1363 8.89953 9.07153 9.96465 7.75837 9.96465C6.4452 9.96465 5.38096 8.89953 5.38096 7.58599ZM4.09547 7.58599C4.09547 9.60959 5.73534 11.2499 7.75837 11.2499C9.78139 11.2499 11.4213 9.60959 11.4213 7.58599C11.4213 5.56238 9.78139 3.92203 7.75837 3.92203C5.73534 3.92203 4.09547 5.56238 4.09547 7.58599ZM10.7103 3.77675C10.7102 3.9461 10.7603 4.11167 10.8543 4.25252C10.9483 4.39337 11.082 4.50317 11.2384 4.56804C11.3948 4.63291 11.5669 4.64993 11.7329 4.61696C11.899 4.58399 12.0516 4.5025 12.1713 4.3828C12.2911 4.2631 12.3727 4.11056 12.4058 3.94448C12.4389 3.7784 12.422 3.60623 12.3572 3.44974C12.2925 3.29325 12.1829 3.15948 12.0421 3.06534C11.9014 2.9712 11.7359 2.92091 11.5666 2.92085H11.5663C11.3393 2.92095 11.1217 3.01115 10.9612 3.17163C10.8007 3.33211 10.7105 3.54975 10.7103 3.77675ZM4.87649 13.3941C4.18101 13.3624 3.803 13.2465 3.55179 13.1486C3.21875 13.0189 2.98112 12.8644 2.73128 12.6149C2.48144 12.3653 2.32679 12.1278 2.19771 11.7947C2.09978 11.5435 1.98393 11.1653 1.95232 10.4696C1.91774 9.71748 1.91083 9.49154 1.91083 7.58604C1.91083 5.68054 1.91831 5.45523 1.95232 4.70248C1.98399 4.0068 2.10069 3.62931 2.19771 3.3774C2.32736 3.04426 2.48179 2.80656 2.73128 2.55665C2.98078 2.30674 3.21818 2.15205 3.55179 2.02292C3.80289 1.92497 4.18101 1.80909 4.87649 1.77747C5.6284 1.74287 5.85427 1.73597 7.75837 1.73597C9.66246 1.73597 9.88856 1.74344 10.6411 1.77747C11.3366 1.80915 11.714 1.92588 11.9658 2.02292C12.2988 2.15205 12.5365 2.30709 12.7863 2.55665C13.0361 2.80622 13.1902 3.04426 13.3199 3.3774C13.4178 3.62857 13.5337 4.0068 13.5653 4.70248C13.5998 5.45523 13.6068 5.68054 13.6068 7.58604C13.6068 9.49154 13.5998 9.71685 13.5653 10.4696C13.5336 11.1653 13.4172 11.5434 13.3199 11.7947C13.1902 12.1278 13.0358 12.3655 12.7863 12.6149C12.5368 12.8642 12.2988 13.0189 11.9658 13.1486C11.7147 13.2465 11.3366 13.3624 10.6411 13.3941C9.88919 13.4286 9.66332 13.4356 7.75837 13.4356C5.85341 13.4356 5.62817 13.4286 4.87649 13.3941ZM4.81742 0.493774C4.05803 0.528366 3.53912 0.648812 3.08595 0.8252C2.61664 1.00735 2.21934 1.25173 1.82232 1.64823C1.42531 2.04473 1.18163 2.44277 0.99953 2.91223C0.823193 3.36581 0.702782 3.88458 0.6682 4.64419C0.633046 5.405 0.625 5.64823 0.625 7.58599C0.625 9.52374 0.633046 9.76697 0.6682 10.5278C0.702782 11.2874 0.823193 11.8062 0.99953 12.2597C1.18163 12.7289 1.42536 13.1274 1.82232 13.5237C2.21928 13.9201 2.61664 14.1641 3.08595 14.3468C3.53998 14.5232 4.05803 14.6436 4.81742 14.6782C5.57841 14.7128 5.82117 14.7214 7.75837 14.7214C9.69556 14.7214 9.93872 14.7134 10.6993 14.6782C11.4588 14.6436 11.9773 14.5232 12.4308 14.3468C12.8998 14.1641 13.2974 13.9202 13.6944 13.5237C14.0914 13.1272 14.3346 12.7289 14.5172 12.2597C14.6935 11.8062 14.8145 11.2874 14.8485 10.5278C14.8831 9.7664 14.8912 9.52374 14.8912 7.58599C14.8912 5.64823 14.8831 5.405 14.8485 4.64419C14.8139 3.88453 14.6935 3.36553 14.5172 2.91223C14.3346 2.44306 14.0908 2.04536 13.6944 1.64823C13.298 1.2511 12.8998 1.00735 12.4313 0.8252C11.9773 0.648812 11.4587 0.527795 10.6999 0.493774C9.93929 0.459181 9.69613 0.450562 7.75894 0.450562C5.82174 0.450562 5.57841 0.45861 4.81742 0.493774Z" fill="#5E7DBE"/>
</svg>
