<svg width="7" height="11" viewBox="0 0 7 11" fill="none" xmlns="http://www.w3.org/2000/svg">
<path d="M0.982422 1.33782C1.29094 1.07751 1.65248 0.850949 2.06704 0.658128C2.48161 0.465307 2.9733 0.368896 3.54212 0.368896C3.92776 0.368896 4.27966 0.421922 4.59782 0.527974C4.91597 0.634026 5.19074 0.788282 5.42213 0.990744C5.65351 1.18357 5.83187 1.41977 5.95721 1.69936C6.08254 1.96931 6.14521 2.27783 6.14521 2.6249C6.14521 3.13588 6.03916 3.54562 5.82705 3.85414C5.62459 4.16265 5.3932 4.42296 5.1329 4.63506C4.88223 4.84717 4.64602 5.03517 4.42428 5.19907C4.20253 5.35332 4.07238 5.5365 4.03382 5.74861L3.86028 6.71753H2.7612L2.6455 5.63291C2.61658 5.42081 2.6455 5.23763 2.73227 5.08337C2.81904 4.92912 2.93474 4.7845 3.07935 4.64953C3.22397 4.51455 3.38304 4.38922 3.55658 4.27352C3.73012 4.14819 3.89402 4.01322 4.04828 3.8686C4.20253 3.71434 4.33269 3.55044 4.43874 3.37691C4.54479 3.19373 4.59782 2.9768 4.59782 2.72613C4.59782 2.3887 4.48695 2.12357 4.2652 1.93075C4.04346 1.73793 3.75423 1.64152 3.39751 1.64152C3.14684 1.64152 2.92992 1.67526 2.74674 1.74275C2.5732 1.80059 2.42376 1.86808 2.29843 1.94521C2.18273 2.0127 2.0815 2.07536 1.99473 2.13321C1.90796 2.19106 1.82601 2.21998 1.74889 2.21998C1.60427 2.21998 1.49822 2.14767 1.43073 2.00305L0.982422 1.33782ZM2.25504 9.19046C2.25504 8.91087 2.35145 8.67467 2.54427 8.48185C2.73709 8.28902 2.9733 8.19261 3.25289 8.19261C3.54212 8.19261 3.78315 8.28902 3.97597 8.48185C4.16879 8.67467 4.2652 8.91087 4.2652 9.19046C4.2652 9.47005 4.16879 9.70144 3.97597 9.88462C3.78315 10.0678 3.54212 10.1594 3.25289 10.1594C2.9733 10.1594 2.73709 10.0678 2.54427 9.88462C2.35145 9.70144 2.25504 9.47005 2.25504 9.19046Z" fill="#5E7DBE"/>
</svg>
