<svg width="13" height="11" viewBox="0 0 13 11" fill="none" xmlns="http://www.w3.org/2000/svg">
<path d="M1.36851 4.79517C1.36851 4.79517 6.67583 2.38046 8.51649 1.53018C9.22211 1.1901 11.615 0.10174 11.615 0.10174C11.615 0.10174 12.7194 -0.374376 12.6274 0.781953C12.5967 1.25812 12.3513 2.92459 12.1058 4.72715C11.7377 7.27793 11.3389 10.0668 11.3389 10.0668C11.3389 10.0668 11.2775 10.849 10.756 10.985C10.2345 11.1211 9.37547 10.5089 9.22211 10.3729C9.09936 10.2709 6.92124 8.74036 6.12361 7.99213C5.90886 7.78808 5.66344 7.37998 6.15427 6.90382C7.2587 5.78148 8.57784 4.38707 9.37547 3.5028C9.74362 3.09466 10.1117 2.14238 8.57784 3.29871C6.39972 4.96523 4.25225 6.52971 4.25225 6.52971C4.25225 6.52971 3.76139 6.86979 2.84106 6.56369C1.92069 6.25764 0.846952 5.84949 0.846952 5.84949C0.846952 5.84949 0.110721 5.33934 1.36851 4.79517Z" fill="#5E7DBE"/>
</svg>
