<svg width="18" height="16" viewBox="0 0 18 16" fill="none" xmlns="http://www.w3.org/2000/svg">
<path d="M2.02278 7.14371C2.02278 7.14371 9.51383 3.73545 12.1119 2.53532C13.1078 2.05531 16.4852 0.519135 16.4852 0.519135C16.4852 0.519135 18.0441 -0.152883 17.9142 1.47923C17.8709 2.15131 17.5245 4.50347 17.1781 7.04771C16.6584 10.648 16.0955 14.5843 16.0955 14.5843C16.0955 14.5843 16.0089 15.6885 15.2728 15.8805C14.5367 16.0725 13.3243 15.2085 13.1078 15.0164C12.9346 14.8724 9.86022 12.7122 8.73441 11.6561C8.43129 11.3681 8.0849 10.7921 8.77768 10.12C10.3365 8.53584 12.1985 6.56769 13.3243 5.31959C13.8439 4.74351 14.3635 3.39941 12.1984 5.03152C9.12412 7.38375 6.09306 9.59194 6.09306 9.59194C6.09306 9.59194 5.40023 10.0719 4.10122 9.6399C2.80215 9.20793 1.28662 8.63185 1.28662 8.63185C1.28662 8.63185 0.247465 7.91179 2.02278 7.14371Z" fill="white"/>
</svg>
