<svg width="15" height="16" viewBox="0 0 15 16" fill="none" xmlns="http://www.w3.org/2000/svg">
<path d="M9.0625 7.59998H5.9375C5.68125 7.59998 5.46875 7.37331 5.46875 7.09998C5.46875 6.82664 5.68125 6.59998 5.9375 6.59998H9.0625C9.31875 6.59998 9.53125 6.82664 9.53125 7.09998C9.53125 7.37331 9.31875 7.59998 9.0625 7.59998Z" fill="#404040"/>
<path d="M7.5 9.30672C7.24375 9.30672 7.03125 9.08006 7.03125 8.80672V5.47339C7.03125 5.20006 7.24375 4.97339 7.5 4.97339C7.75625 4.97339 7.96875 5.20006 7.96875 5.47339V8.80672C7.96875 9.08006 7.75625 9.30672 7.5 9.30672Z" fill="#404040"/>
<path d="M11.9219 15.1667C11.6031 15.1667 11.2531 15.0667 10.9156 14.86L7.86563 13.0534C7.68438 12.9467 7.32813 12.9467 7.14688 13.0534L4.09688 14.86C3.47813 15.2267 2.84688 15.2667 2.36563 14.96C1.88438 14.66 1.60938 14.0534 1.60938 13.3V3.90671C1.60938 2.21337 2.90312 0.833374 4.49062 0.833374H10.5219C12.1094 0.833374 13.4031 2.21337 13.4031 3.90671V13.3C13.4031 14.0534 13.1281 14.66 12.6469 14.96C12.4281 15.1 12.1781 15.1667 11.9219 15.1667ZM7.50313 11.9734C7.79688 11.9734 8.08438 12.04 8.31563 12.18L11.3656 13.9867C11.6844 14.18 11.9781 14.22 12.1656 14.1C12.3531 13.98 12.4594 13.6934 12.4594 13.3V3.90671C12.4594 2.76671 11.5844 1.83337 10.5156 1.83337H4.49062C3.42187 1.83337 2.54688 2.76671 2.54688 3.90671V13.3C2.54688 13.6934 2.65313 13.9867 2.84063 14.1C3.02813 14.2134 3.32188 14.18 3.64063 13.9867L6.69063 12.18C6.92188 12.04 7.20938 11.9734 7.50313 11.9734Z" fill="#404040"/>
</svg>
