<svg width="44" height="43" viewBox="0 0 44 43" fill="none" xmlns="http://www.w3.org/2000/svg">
<path d="M28.3255 16.7857L17.5826 27.5286C17.2156 27.8957 16.6068 27.8957 16.2398 27.5286C15.8727 27.1616 15.8727 26.5528 16.2398 26.1857L26.9827 15.4429C27.3497 15.0758 27.9585 15.0758 28.3255 15.4429C28.6926 15.8099 28.6926 16.4187 28.3255 16.7857Z" fill="white"/>
<path d="M28.3255 27.5286C27.9585 27.8956 27.3497 27.8956 26.9827 27.5286L16.2398 16.7857C15.8727 16.4186 15.8727 15.8099 16.2398 15.4428C16.6068 15.0758 17.2156 15.0758 17.5826 15.4428L28.3255 26.1857C28.6926 26.5528 28.6926 27.1615 28.3255 27.5286Z" fill="white"/>
</svg>
