<svg width="23" height="23" viewBox="0 0 23 23" fill="none" xmlns="http://www.w3.org/2000/svg">
<path d="M9.36484 14.4412C9.19068 14.4412 9.01651 14.3771 8.87901 14.2396C8.12734 13.4879 7.71484 12.4887 7.71484 11.4346C7.71484 9.24373 9.49318 7.46539 11.684 7.46539C12.7382 7.46539 13.7373 7.87789 14.489 8.62956C14.6173 8.75789 14.6907 8.93206 14.6907 9.11539C14.6907 9.29873 14.6173 9.47289 14.489 9.60123L9.85068 14.2396C9.71318 14.3771 9.53901 14.4412 9.36484 14.4412ZM11.684 8.84039C10.254 8.84039 9.08984 10.0046 9.08984 11.4346C9.08984 11.8929 9.20901 12.3329 9.42901 12.7179L12.9673 9.17956C12.5823 8.95956 12.1423 8.84039 11.684 8.84039Z" fill="#404040"/>
<path d="M5.81776 17.4021C5.66193 17.4021 5.49693 17.3471 5.36859 17.2371C4.38776 16.4029 3.50776 15.3762 2.75609 14.1846C1.78443 12.6721 1.78443 10.2062 2.75609 8.68456C4.99276 5.1829 8.24693 3.16623 11.6844 3.16623C13.7011 3.16623 15.6903 3.8629 17.4319 5.17373C17.7344 5.4029 17.7986 5.83373 17.5694 6.13623C17.3403 6.43873 16.9094 6.5029 16.6069 6.27373C15.1036 5.13706 13.3986 4.54123 11.6844 4.54123C8.72359 4.54123 5.89109 6.31956 3.91109 9.42706C3.22359 10.4996 3.22359 12.3696 3.91109 13.4421C4.59859 14.5146 5.38693 15.4404 6.25776 16.1921C6.54193 16.4396 6.57859 16.8704 6.33109 17.1637C6.20276 17.3196 6.01026 17.4021 5.81776 17.4021Z" fill="#404040"/>
<path d="M11.6839 19.7029C10.4648 19.7029 9.2731 19.4554 8.12727 18.9696C7.77894 18.8229 7.61394 18.4196 7.7606 18.0712C7.90727 17.7229 8.3106 17.5579 8.65894 17.7046C9.6306 18.1171 10.6481 18.3279 11.6748 18.3279C14.6356 18.3279 17.4681 16.5496 19.4481 13.4421C20.1356 12.3696 20.1356 10.4996 19.4481 9.42706C19.1639 8.97789 18.8523 8.54706 18.5223 8.14373C18.2839 7.85039 18.3298 7.41956 18.6231 7.17206C18.9164 6.93373 19.3473 6.97039 19.5948 7.27289C19.9523 7.71289 20.3006 8.18956 20.6123 8.68456C21.5839 10.1971 21.5839 12.6629 20.6123 14.1846C18.3756 17.6862 15.1214 19.7029 11.6839 19.7029Z" fill="#404040"/>
<path d="M12.3162 15.3487C11.9954 15.3487 11.702 15.1196 11.6379 14.7896C11.5645 14.4137 11.812 14.0562 12.1879 13.9921C13.1962 13.8087 14.0395 12.9654 14.2229 11.9571C14.2962 11.5812 14.6537 11.3429 15.0295 11.4071C15.4054 11.4804 15.6529 11.8379 15.5795 12.2137C15.2862 13.7996 14.0212 15.0554 12.4445 15.3487C12.3987 15.3396 12.362 15.3487 12.3162 15.3487Z" fill="#404040"/>
<path d="M2.51724 21.2888C2.34307 21.2888 2.16891 21.2246 2.03141 21.0871C1.76557 20.8213 1.76557 20.3813 2.03141 20.1154L8.87891 13.2679C9.14474 13.0021 9.58474 13.0021 9.85057 13.2679C10.1164 13.5338 10.1164 13.9738 9.85057 14.2396L3.00307 21.0871C2.86557 21.2246 2.69141 21.2888 2.51724 21.2888Z" fill="#404040"/>
<path d="M14.0036 9.80291C13.8294 9.80291 13.6552 9.73874 13.5177 9.60124C13.2519 9.33541 13.2519 8.89541 13.5177 8.62958L20.3652 1.78208C20.6311 1.51624 21.0711 1.51624 21.3369 1.78208C21.6027 2.04791 21.6027 2.48791 21.3369 2.75374L14.4894 9.60124C14.3519 9.73874 14.1777 9.80291 14.0036 9.80291Z" fill="#404040"/>
</svg>
