<svg width="31" height="32" viewBox="0 0 31 32" fill="none" xmlns="http://www.w3.org/2000/svg">
<rect x="0.335938" y="16.157" width="21.5396" height="21.5396" rx="4" transform="rotate(-45 0.335938 16.157)" fill="white"/>
<path d="M16.6538 12.8175C16.6538 13.5737 16.6381 14.2668 16.6066 14.897C16.5908 15.5114 16.5593 16.0942 16.512 16.6456C16.4805 17.197 16.4412 17.7247 16.3939 18.2288C16.3466 18.7329 16.2915 19.2449 16.2285 19.7648H14.7634C14.7161 19.2449 14.661 18.7408 14.598 18.2525C14.535 17.7484 14.4798 17.2206 14.4326 16.6692C14.3853 16.1179 14.3459 15.5271 14.3144 14.897C14.2829 14.2668 14.2672 13.5737 14.2672 12.8175V9.84009H16.6538V12.8175ZM15.5196 24.16C15.0627 24.16 14.7083 24.0498 14.4562 23.8292C14.2042 23.6087 14.0781 23.2463 14.0781 22.7422C14.0781 22.2381 14.2042 21.8758 14.4562 21.6552C14.7083 21.4347 15.0627 21.3244 15.5196 21.3244C15.9449 21.3244 16.2836 21.4347 16.5357 21.6552C16.8035 21.8758 16.9374 22.2381 16.9374 22.7422C16.9374 23.2463 16.8035 23.6087 16.5357 23.8292C16.2836 24.0498 15.9449 24.16 15.5196 24.16Z" fill="#EFBE41"/>
</svg>
