<svg width="24" height="24" viewBox="0 0 24 24" fill="none" xmlns="http://www.w3.org/2000/svg">
<rect x="0.324219" y="0.930298" width="23" height="23" rx="11.5" fill="url(#paint0_linear_479_1168)"/>
<path d="M9.76139 12.4302C9.76139 11.2894 10.6857 10.3644 11.8262 10.3644C12.9666 10.3644 13.8914 11.2894 13.8914 12.4302C13.8914 13.571 12.9666 14.4961 11.8262 14.4961C10.6857 14.4961 9.76139 13.571 9.76139 12.4302ZM8.64494 12.4302C8.64494 14.1877 10.0692 15.6124 11.8262 15.6124C13.5831 15.6124 15.0074 14.1877 15.0074 12.4302C15.0074 10.6727 13.5831 9.24811 11.8262 9.24811C10.0692 9.24811 8.64494 10.6727 8.64494 12.4302ZM14.3899 9.12194C14.3898 9.26902 14.4333 9.41281 14.515 9.53514C14.5966 9.65746 14.7127 9.75282 14.8485 9.80916C14.9843 9.8655 15.1338 9.88029 15.278 9.85165C15.4223 9.82302 15.5548 9.75224 15.6588 9.64828C15.7628 9.54432 15.8336 9.41185 15.8624 9.2676C15.8911 9.12336 15.8765 8.97383 15.8203 8.83793C15.764 8.70202 15.6688 8.58584 15.5466 8.50408C15.4244 8.42231 15.2806 8.37864 15.1336 8.37858H15.1333C14.9362 8.37868 14.7472 8.45701 14.6078 8.59639C14.4684 8.73577 14.39 8.92479 14.3899 9.12194ZM9.32325 17.4745C8.71924 17.447 8.39094 17.3464 8.17276 17.2613C7.88352 17.1487 7.67714 17.0145 7.46016 16.7978C7.24317 16.581 7.10886 16.3748 6.99675 16.0855C6.9117 15.8673 6.81109 15.5388 6.78363 14.9347C6.7536 14.2814 6.7476 14.0852 6.7476 12.4303C6.7476 10.7754 6.75409 10.5797 6.78363 9.92592C6.81114 9.32173 6.91249 8.99388 6.99675 8.7751C7.10935 8.48577 7.24347 8.27933 7.46016 8.06229C7.67684 7.84524 7.88302 7.71089 8.17276 7.59874C8.39084 7.51367 8.71924 7.41303 9.32325 7.38556C9.97629 7.35552 10.1725 7.34952 11.8262 7.34952C13.4799 7.34952 13.6762 7.35602 14.3298 7.38556C14.9338 7.41308 15.2616 7.51446 15.4803 7.59874C15.7695 7.71089 15.9759 7.84554 16.1929 8.06229C16.4099 8.27903 16.5437 8.48577 16.6563 8.7751C16.7414 8.99324 16.842 9.32173 16.8694 9.92592C16.8995 10.5797 16.9055 10.7754 16.9055 12.4303C16.9055 14.0852 16.8995 14.2809 16.8694 14.9347C16.8419 15.5388 16.7408 15.8672 16.6563 16.0855C16.5437 16.3748 16.4096 16.5812 16.1929 16.7978C15.9762 17.0143 15.7695 17.1487 15.4803 17.2613C15.2622 17.3464 14.9338 17.447 14.3298 17.4745C13.6768 17.5046 13.4806 17.5106 11.8262 17.5106C10.1717 17.5106 9.97609 17.5046 9.32325 17.4745ZM9.27196 6.27068C8.61243 6.30073 8.16176 6.40533 7.76819 6.55853C7.36059 6.71673 7.01553 6.92896 6.67073 7.27332C6.32592 7.61768 6.11429 7.96338 5.95614 8.3711C5.80299 8.76503 5.69841 9.21559 5.66838 9.8753C5.63785 10.5361 5.63086 10.7473 5.63086 12.4302C5.63086 14.1132 5.63785 14.3244 5.66838 14.9852C5.69841 15.6449 5.80299 16.0954 5.95614 16.4894C6.11429 16.8968 6.32597 17.2429 6.67073 17.5872C7.01548 17.9314 7.36059 18.1433 7.76819 18.3019C8.1625 18.4551 8.61243 18.5597 9.27196 18.5898C9.93287 18.6198 10.1437 18.6273 11.8262 18.6273C13.5086 18.6273 13.7198 18.6203 14.3803 18.5898C15.0399 18.5597 15.4903 18.4551 15.8841 18.3019C16.2915 18.1433 16.6368 17.9315 16.9816 17.5872C17.3264 17.2428 17.5376 16.8968 17.6962 16.4894C17.8493 16.0954 17.9544 15.6449 17.9839 14.9852C18.014 14.3239 18.021 14.1132 18.021 12.4302C18.021 10.7473 18.014 10.5361 17.9839 9.8753C17.9539 9.21554 17.8493 8.76479 17.6962 8.3711C17.5376 7.96363 17.3258 7.61823 16.9816 7.27332C16.6373 6.92842 16.2915 6.71673 15.8846 6.55853C15.4903 6.40533 15.0399 6.30023 14.3808 6.27068C13.7203 6.24064 13.5091 6.23315 11.8266 6.23315C10.1442 6.23315 9.93287 6.24014 9.27196 6.27068Z" fill="white"/>
<path d="M9.76139 12.4302C9.76139 11.2894 10.6857 10.3644 11.8262 10.3644C12.9666 10.3644 13.8914 11.2894 13.8914 12.4302C13.8914 13.571 12.9666 14.4961 11.8262 14.4961C10.6857 14.4961 9.76139 13.571 9.76139 12.4302ZM8.64494 12.4302C8.64494 14.1877 10.0692 15.6124 11.8262 15.6124C13.5831 15.6124 15.0074 14.1877 15.0074 12.4302C15.0074 10.6727 13.5831 9.24811 11.8262 9.24811C10.0692 9.24811 8.64494 10.6727 8.64494 12.4302ZM14.3899 9.12194C14.3898 9.26902 14.4333 9.41281 14.515 9.53514C14.5966 9.65746 14.7127 9.75282 14.8485 9.80916C14.9843 9.8655 15.1338 9.88029 15.278 9.85165C15.4223 9.82302 15.5548 9.75224 15.6588 9.64828C15.7628 9.54432 15.8336 9.41185 15.8624 9.2676C15.8911 9.12336 15.8765 8.97383 15.8203 8.83793C15.764 8.70202 15.6688 8.58584 15.5466 8.50408C15.4244 8.42231 15.2806 8.37864 15.1336 8.37858H15.1333C14.9362 8.37868 14.7472 8.45701 14.6078 8.59639C14.4684 8.73577 14.39 8.92479 14.3899 9.12194ZM9.32325 17.4745C8.71924 17.447 8.39094 17.3464 8.17276 17.2613C7.88352 17.1487 7.67714 17.0145 7.46016 16.7978C7.24317 16.581 7.10886 16.3748 6.99675 16.0855C6.9117 15.8673 6.81109 15.5388 6.78363 14.9347C6.7536 14.2814 6.7476 14.0852 6.7476 12.4303C6.7476 10.7754 6.75409 10.5797 6.78363 9.92592C6.81114 9.32173 6.91249 8.99388 6.99675 8.7751C7.10935 8.48577 7.24347 8.27933 7.46016 8.06229C7.67684 7.84524 7.88302 7.71089 8.17276 7.59874C8.39084 7.51367 8.71924 7.41303 9.32325 7.38556C9.97629 7.35552 10.1725 7.34952 11.8262 7.34952C13.4799 7.34952 13.6762 7.35602 14.3298 7.38556C14.9338 7.41308 15.2616 7.51446 15.4803 7.59874C15.7695 7.71089 15.9759 7.84554 16.1929 8.06229C16.4099 8.27903 16.5437 8.48577 16.6563 8.7751C16.7414 8.99324 16.842 9.32173 16.8694 9.92592C16.8995 10.5797 16.9055 10.7754 16.9055 12.4303C16.9055 14.0852 16.8995 14.2809 16.8694 14.9347C16.8419 15.5388 16.7408 15.8672 16.6563 16.0855C16.5437 16.3748 16.4096 16.5812 16.1929 16.7978C15.9762 17.0143 15.7695 17.1487 15.4803 17.2613C15.2622 17.3464 14.9338 17.447 14.3298 17.4745C13.6768 17.5046 13.4806 17.5106 11.8262 17.5106C10.1717 17.5106 9.97609 17.5046 9.32325 17.4745ZM9.27196 6.27068C8.61243 6.30073 8.16176 6.40533 7.76819 6.55853C7.36059 6.71673 7.01553 6.92896 6.67073 7.27332C6.32592 7.61768 6.11429 7.96338 5.95614 8.3711C5.80299 8.76503 5.69841 9.21559 5.66838 9.8753C5.63785 10.5361 5.63086 10.7473 5.63086 12.4302C5.63086 14.1132 5.63785 14.3244 5.66838 14.9852C5.69841 15.6449 5.80299 16.0954 5.95614 16.4894C6.11429 16.8968 6.32597 17.2429 6.67073 17.5872C7.01548 17.9314 7.36059 18.1433 7.76819 18.3019C8.1625 18.4551 8.61243 18.5597 9.27196 18.5898C9.93287 18.6198 10.1437 18.6273 11.8262 18.6273C13.5086 18.6273 13.7198 18.6203 14.3803 18.5898C15.0399 18.5597 15.4903 18.4551 15.8841 18.3019C16.2915 18.1433 16.6368 17.9315 16.9816 17.5872C17.3264 17.2428 17.5376 16.8968 17.6962 16.4894C17.8493 16.0954 17.9544 15.6449 17.9839 14.9852C18.014 14.3239 18.021 14.1132 18.021 12.4302C18.021 10.7473 18.014 10.5361 17.9839 9.8753C17.9539 9.21554 17.8493 8.76479 17.6962 8.3711C17.5376 7.96363 17.3258 7.61823 16.9816 7.27332C16.6373 6.92842 16.2915 6.71673 15.8846 6.55853C15.4903 6.40533 15.0399 6.30023 14.3808 6.27068C13.7203 6.24064 13.5091 6.23315 11.8266 6.23315C10.1442 6.23315 9.93287 6.24014 9.27196 6.27068Z" fill="white"/>
<defs>
<linearGradient id="paint0_linear_479_1168" x1="0.324219" y1="-5.82041" x2="9.28469" y2="42.4233" gradientUnits="userSpaceOnUse">
<stop stop-color="#DFAF34"/>
<stop offset="1" stop-color="#DC34DF"/>
</linearGradient>
</defs>
</svg>
