<svg width="24" height="24" viewBox="0 0 24 24" fill="none" xmlns="http://www.w3.org/2000/svg">
<rect x="0.398438" y="0.359741" width="23" height="23" rx="11.5" fill="#404040"/>
<path d="M14.8926 7.95715C16.0592 8.76799 16.8642 10.0572 17.0276 11.5447" stroke="white" stroke-linecap="round" stroke-linejoin="round"/>
<path d="M7.03516 11.5738C7.18682 10.0922 7.98016 8.80299 9.13516 7.98633" stroke="white" stroke-linecap="round" stroke-linejoin="round"/>
<path d="M9.77734 16.573C10.454 16.9172 11.224 17.1097 12.0348 17.1097C12.8165 17.1097 13.5515 16.9347 14.2107 16.6138" stroke="white" stroke-linecap="round" stroke-linejoin="round"/>
<path d="M12.0357 8.84966C12.9314 8.84966 13.6574 8.12361 13.6574 7.22799C13.6574 6.33237 12.9314 5.60632 12.0357 5.60632C11.1401 5.60632 10.4141 6.33237 10.4141 7.22799C10.4141 8.12361 11.1401 8.84966 12.0357 8.84966Z" stroke="white" stroke-linecap="round" stroke-linejoin="round"/>
<path d="M7.81698 15.9781C8.7126 15.9781 9.43865 15.252 9.43865 14.3564C9.43865 13.4608 8.7126 12.7347 7.81698 12.7347C6.92136 12.7347 6.19531 13.4608 6.19531 14.3564C6.19531 15.252 6.92136 15.9781 7.81698 15.9781Z" stroke="white" stroke-linecap="round" stroke-linejoin="round"/>
<path d="M16.1822 15.9781C17.0778 15.9781 17.8039 15.252 17.8039 14.3564C17.8039 13.4608 17.0778 12.7347 16.1822 12.7347C15.2866 12.7347 14.5605 13.4608 14.5605 14.3564C14.5605 15.252 15.2866 15.9781 16.1822 15.9781Z" stroke="white" stroke-linecap="round" stroke-linejoin="round"/>
</svg>
