<svg width="24" height="24" viewBox="0 0 24 24" fill="none" xmlns="http://www.w3.org/2000/svg">
<rect x="0.972656" y="0.235718" width="23" height="23" rx="11.5" fill="#34AADF"/>
<path d="M6.03169 11.8153C6.08959 11.7835 6.27973 11.6952 6.33974 11.6676C7.00414 11.3625 11.2963 9.39115 12.8654 8.65977C13.3319 8.4329 14.5955 7.84931 15.2787 7.53471C15.5809 7.39555 15.8871 7.21212 16.2188 7.23791C16.4683 7.25731 16.7117 7.41194 16.6683 7.96132C16.6399 8.4058 16.4129 9.96141 16.1859 11.644C15.9811 13.0756 15.7661 14.5875 15.6272 15.5657C15.5265 16.2745 15.6295 17.3034 14.9371 17.4856C14.4547 17.6126 13.66 17.0412 13.5181 16.9141C13.4046 16.8189 11.3896 15.3903 10.6518 14.6918C10.4531 14.5013 10.2261 14.1204 10.6801 13.6759C11.7018 12.6282 12.9221 11.3266 13.66 10.5012C14.0006 10.1202 14.3411 9.23124 12.9221 10.3106C11.5075 11.4028 10.1068 12.448 9.39779 12.9739C9.07934 13.2101 8.74772 13.4622 8.3515 13.4766C8.15478 13.4837 7.90853 13.4569 7.61509 13.3584C7.4077 13.2888 7.19189 13.2136 6.98407 13.1396C6.17457 12.8513 5.27824 12.2284 6.03169 11.8153Z" fill="white"/>
</svg>
