<svg width="13" height="12" viewBox="0 0 13 12" fill="none" xmlns="http://www.w3.org/2000/svg">
<path d="M0.946802 5.3622C0.946802 5.3622 6.28348 3.10814 8.13433 2.31443C8.84386 1.99697 11.25 0.981022 11.25 0.981022C11.25 0.981022 12.3605 0.536582 12.268 1.61598C12.2371 2.06047 11.9903 3.61607 11.7436 5.29871C11.3734 7.67979 10.9723 10.2831 10.9723 10.2831C10.9723 10.2831 10.9106 11.0133 10.3862 11.1403C9.86184 11.2673 8.99806 10.6958 8.84386 10.5688C8.72043 10.4736 6.53025 9.04492 5.72821 8.34647C5.51227 8.156 5.2655 7.77505 5.75904 7.33056C6.86958 6.28289 8.19603 4.98125 8.99806 4.15582C9.36826 3.77482 9.73841 2.8859 8.19602 3.9653C6.00585 5.52095 3.8465 6.98134 3.8465 6.98134C3.8465 6.98134 3.35292 7.2988 2.4275 7.01306C1.50203 6.72737 0.422356 6.34638 0.422356 6.34638C0.422356 6.34638 -0.317949 5.87017 0.946802 5.3622Z" fill="#5E7DBE"/>
</svg>
