<svg width="25" height="25" viewBox="0 0 25 25" fill="none" xmlns="http://www.w3.org/2000/svg">
<path d="M5.6167 10.894C4.5167 10.894 3.6167 11.794 3.6167 12.894C3.6167 13.994 4.5167 14.894 5.6167 14.894C6.7167 14.894 7.6167 13.994 7.6167 12.894C7.6167 11.794 6.7167 10.894 5.6167 10.894Z" fill="#404040"/>
<path d="M19.6167 10.894C18.5167 10.894 17.6167 11.794 17.6167 12.894C17.6167 13.994 18.5167 14.894 19.6167 14.894C20.7167 14.894 21.6167 13.994 21.6167 12.894C21.6167 11.794 20.7167 10.894 19.6167 10.894Z" fill="#404040"/>
<path d="M12.6167 10.894C11.5167 10.894 10.6167 11.794 10.6167 12.894C10.6167 13.994 11.5167 14.894 12.6167 14.894C13.7167 14.894 14.6167 13.994 14.6167 12.894C14.6167 11.794 13.7167 10.894 12.6167 10.894Z" fill="#404040"/>
</svg>
