<svg width="25" height="25" viewBox="0 0 25 25" fill="none" xmlns="http://www.w3.org/2000/svg">
<path d="M5.82031 10.2247C4.72031 10.2247 3.82031 11.1247 3.82031 12.2247C3.82031 13.3247 4.72031 14.2247 5.82031 14.2247C6.92031 14.2247 7.82031 13.3247 7.82031 12.2247C7.82031 11.1247 6.92031 10.2247 5.82031 10.2247Z" fill="white"/>
<path d="M19.8203 10.2247C18.7203 10.2247 17.8203 11.1247 17.8203 12.2247C17.8203 13.3247 18.7203 14.2247 19.8203 14.2247C20.9203 14.2247 21.8203 13.3247 21.8203 12.2247C21.8203 11.1247 20.9203 10.2247 19.8203 10.2247Z" fill="white"/>
<path d="M12.8203 10.2247C11.7203 10.2247 10.8203 11.1247 10.8203 12.2247C10.8203 13.3247 11.7203 14.2247 12.8203 14.2247C13.9203 14.2247 14.8203 13.3247 14.8203 12.2247C14.8203 11.1247 13.9203 10.2247 12.8203 10.2247Z" fill="white"/>
</svg>
