<svg width="33" height="31" viewBox="0 0 33 31" fill="none" xmlns="http://www.w3.org/2000/svg">
<path d="M3.4624 1.48901H5.96027C7.51066 1.48901 8.73088 2.82408 8.60168 4.36012L7.41017 18.6582C7.20919 20.9981 9.06104 23.0079 11.4153 23.0079H26.704C28.7712 23.0079 30.58 21.314 30.7379 19.2611L31.5131 8.49451C31.6853 6.1115 29.8765 4.17349 27.4792 4.17349H8.94622" stroke="white" stroke-width="2" stroke-miterlimit="10" stroke-linecap="round" stroke-linejoin="round"/>
<path d="M23.1249 30.4047C24.0797 30.4047 24.8538 29.6306 24.8538 28.6758C24.8538 27.7209 24.0797 26.9469 23.1249 26.9469C22.17 26.9469 21.396 27.7209 21.396 28.6758C21.396 29.6306 22.17 30.4047 23.1249 30.4047Z" fill="white"/>
<path d="M13.7303 30.4046C14.6851 30.4046 15.4592 29.6306 15.4592 28.6758C15.4592 27.7209 14.6851 26.9469 13.7303 26.9469C12.7755 26.9469 12.0015 27.7209 12.0015 28.6758C12.0015 29.6306 12.7755 30.4046 13.7303 30.4046Z" fill="white"/>
<path d="M13.5112 10.1023H30.7378" stroke="white" stroke-width="2" stroke-miterlimit="10" stroke-linecap="round" stroke-linejoin="round"/>
<circle cx="8.09852" cy="19.5867" r="6.26102" fill="#58A65C" stroke="white" stroke-width="1.7"/>
<path d="M5.65723 20.0304L6.98802 21.3612L10.5368 17.8124" stroke="white" stroke-width="1.3" stroke-linecap="round" stroke-linejoin="round"/>
</svg>
