<svg width="44" height="44" viewBox="0 0 44 44" fill="none" xmlns="http://www.w3.org/2000/svg">
<path d="M27.9427 16.8812L17.1998 27.6241C16.8328 27.9911 16.224 27.9911 15.857 27.6241C15.4899 27.257 15.4899 26.6483 15.857 26.2812L26.5999 15.5383C26.9669 15.1713 27.5757 15.1713 27.9427 15.5383C28.3098 15.9054 28.3098 16.5141 27.9427 16.8812Z" fill="white"/>
<path d="M27.9427 27.624C27.5757 27.9911 26.9669 27.9911 26.5999 27.624L15.857 16.8811C15.4899 16.5141 15.4899 15.9053 15.857 15.5383C16.224 15.1712 16.8328 15.1712 17.1998 15.5383L27.9427 26.2812C28.3098 26.6482 28.3098 27.257 27.9427 27.624Z" fill="white"/>
</svg>
