<svg width="15" height="16" viewBox="0 0 15 16" fill="none" xmlns="http://www.w3.org/2000/svg">
<path d="M2.26318 4.62549L7.41401 7.60631L12.5298 4.64297" stroke="white" stroke-linecap="round" stroke-linejoin="round"/>
<path d="M7.41406 12.8913V7.60046" stroke="white" stroke-linecap="round" stroke-linejoin="round"/>
<path d="M13.0198 7.76967V5.63465C13.0198 4.82965 12.4423 3.84966 11.7364 3.45883L8.62143 1.73215C7.95643 1.35882 6.87143 1.35882 6.20643 1.73215L3.09143 3.45883C2.38559 3.84966 1.80811 4.82965 1.80811 5.63465V8.93634C1.80811 9.74134 2.38559 10.7213 3.09143 11.1122L6.20643 12.8388C6.53893 13.0255 6.97643 13.1188 7.41393 13.1188C7.85143 13.1188 8.28893 13.0255 8.62143 12.8388" stroke="white" stroke-linecap="round" stroke-linejoin="round"/>
<path d="M11.6142 12.7689C12.6452 12.7689 13.4809 11.9331 13.4809 10.9022C13.4809 9.87126 12.6452 9.03552 11.6142 9.03552C10.5833 9.03552 9.74756 9.87126 9.74756 10.9022C9.74756 11.9331 10.5833 12.7689 11.6142 12.7689Z" stroke="white" stroke-linecap="round" stroke-linejoin="round"/>
<path d="M13.8309 13.1189L13.2476 12.5355" stroke="white" stroke-linecap="round" stroke-linejoin="round"/>
</svg>
