<svg width="21" height="21" viewBox="0 0 21 21" fill="none" xmlns="http://www.w3.org/2000/svg">
<path d="M7.22656 20.5738H13.2266C18.2266 20.5738 20.2266 18.5738 20.2266 13.5738V7.57379C20.2266 2.57379 18.2266 0.573792 13.2266 0.573792H7.22656C2.22656 0.573792 0.226562 2.57379 0.226562 7.57379V13.5738C0.226562 18.5738 2.22656 20.5738 7.22656 20.5738Z" fill="#606060"/>
<path d="M15.3722 10.1224V7.63739C15.3722 5.28656 14.8239 4.69739 12.6189 4.69739H8.2089C6.0039 4.69739 5.45557 5.28656 5.45557 7.63739V14.2057C5.45557 15.7574 6.30724 16.1249 7.33974 15.0166L7.34556 15.0107C7.82389 14.5032 8.55306 14.544 8.96723 15.0982L9.5564 15.8857" stroke="white" stroke-linecap="round" stroke-linejoin="round"/>
<path d="M8.08057 7.61401H12.7472" stroke="white" stroke-linecap="round" stroke-linejoin="round"/>
<path d="M8.66406 9.94739H12.1641" stroke="white" stroke-linecap="round" stroke-linejoin="round"/>
<path d="M14.0373 12.1467L11.9723 14.2117C11.8907 14.2934 11.8148 14.445 11.7973 14.5559L11.6865 15.3434C11.6456 15.6292 11.844 15.8275 12.1298 15.7867L12.9173 15.6759C13.0282 15.6584 13.1857 15.5825 13.2615 15.5009L15.3265 13.4359C15.6823 13.08 15.8515 12.6659 15.3265 12.1409C14.8073 11.6217 14.3931 11.7909 14.0373 12.1467Z" fill="white"/>
<path d="M13.7388 12.4442C13.9138 13.0742 14.4038 13.5642 15.0338 13.7392L13.7388 12.4442Z" fill="white"/>
<path d="M13.7388 12.4442C13.9138 13.0742 14.4038 13.5642 15.0338 13.7392" stroke="#606060" stroke-width="0.6" stroke-miterlimit="10" stroke-linecap="round" stroke-linejoin="round"/>
</svg>
