<svg width="19" height="19" viewBox="0 0 19 19" fill="none" xmlns="http://www.w3.org/2000/svg">
<path d="M17.7484 6.06152V10.3182C17.7484 10.5893 17.7348 10.8605 17.7077 11.118C17.4637 13.992 15.7691 15.429 12.6512 15.429H12.2309C11.9598 15.429 11.7022 15.551 11.5531 15.7679L10.2788 17.476C9.70943 18.2352 8.80117 18.2352 8.23181 17.476L6.9575 15.7679C6.82193 15.5917 6.51014 15.429 6.27968 15.429H5.85943C2.45677 15.429 0.762207 14.5885 0.762207 10.3318V6.07505C0.762207 2.95707 2.19918 1.26255 5.07314 1.01853C5.33071 0.991418 5.60183 0.977863 5.87296 0.977863H12.6918C16.0403 0.964307 17.7484 2.67242 17.7484 6.06152Z" stroke="#404040" stroke-width="1.5" stroke-miterlimit="10" stroke-linecap="round" stroke-linejoin="round"/>
<path d="M12.9306 8.4384H12.9401" stroke="#404040" stroke-width="2.5" stroke-miterlimit="10" stroke-linecap="round" stroke-linejoin="round"/>
<path d="M9.23968 8.4384H9.24917" stroke="#404040" stroke-width="2.5" stroke-miterlimit="10" stroke-linecap="round" stroke-linejoin="round"/>
<path d="M5.55469 8.43835H5.56487" stroke="#404040" stroke-width="2.5" stroke-miterlimit="10" stroke-linecap="round" stroke-linejoin="round"/>
</svg>
