<svg width="17" height="18" viewBox="0 0 17 18" fill="none" xmlns="http://www.w3.org/2000/svg">
<path d="M15.3349 13.5528C15.3349 13.8015 15.2796 14.0572 15.1621 14.3059C15.0447 14.5547 14.8927 14.7896 14.6923 15.0107C14.3537 15.3838 13.9806 15.6533 13.5591 15.826C13.1446 15.9987 12.6954 16.0886 12.2118 16.0886C11.507 16.0886 10.7539 15.9227 9.95928 15.5842C9.16469 15.2456 8.3701 14.7896 7.58242 14.2161C6.78783 13.6357 6.0347 12.9931 5.31611 12.2814C4.60443 11.5628 3.96185 10.8097 3.38836 10.022C2.82179 9.23435 2.36576 8.44667 2.0341 7.6659C1.70245 6.87822 1.53662 6.12508 1.53662 5.4065C1.53662 4.93665 1.61953 4.48754 1.78536 4.07297C1.95119 3.65149 2.21375 3.26456 2.57995 2.91908C3.02216 2.48379 3.50582 2.26959 4.01713 2.26959C4.21059 2.26959 4.40406 2.31105 4.57679 2.39396C4.75644 2.47688 4.91536 2.60125 5.03973 2.78089L6.64273 5.0403C6.7671 5.21303 6.85692 5.37195 6.91911 5.52396C6.9813 5.66906 7.01584 5.81416 7.01584 5.94544C7.01584 6.11127 6.96748 6.27709 6.87074 6.43601C6.78092 6.59493 6.64964 6.76076 6.48381 6.92658L5.95869 7.47243C5.88269 7.54844 5.84814 7.63826 5.84814 7.74881C5.84814 7.80409 5.85505 7.85246 5.86887 7.90773C5.8896 7.96301 5.91033 8.00446 5.92414 8.04592C6.04851 8.27393 6.26271 8.57104 6.56673 8.93034C6.87765 9.28963 7.20931 9.65583 7.5686 10.022C7.94171 10.3882 8.30101 10.7268 8.66721 11.0377C9.0265 11.3417 9.32361 11.549 9.55853 11.6734C9.59308 11.6872 9.63454 11.7079 9.6829 11.7287C9.73818 11.7494 9.79346 11.7563 9.85564 11.7563C9.9731 11.7563 10.0629 11.7149 10.1389 11.6389L10.6641 11.1206C10.8368 10.9479 11.0026 10.8166 11.1615 10.7337C11.3205 10.637 11.4794 10.5886 11.6521 10.5886C11.7834 10.5886 11.9216 10.6163 12.0736 10.6784C12.2256 10.7406 12.3845 10.8304 12.5572 10.9479L14.8443 12.5716C15.0239 12.696 15.1483 12.8411 15.2243 13.0138C15.2934 13.1866 15.3349 13.3593 15.3349 13.5528Z" stroke="#606060" stroke-miterlimit="10"/>
</svg>
