<svg width="20" height="20" viewBox="0 0 20 20" fill="none" xmlns="http://www.w3.org/2000/svg">
<path d="M0.945312 0.797119H2.57488C3.58634 0.797119 4.38239 1.66809 4.2981 2.67018L3.52078 11.998C3.38966 13.5246 4.59778 14.8357 6.1337 14.8357H16.1078C17.4564 14.8357 18.6364 13.7306 18.7394 12.3914L19.2452 5.3674C19.3575 3.81276 18.1775 2.54843 16.6135 2.54843H4.52287" stroke="#58A65C" stroke-width="1.5" stroke-miterlimit="10" stroke-linecap="round" stroke-linejoin="round"/>
<path d="M13.7724 19.6614C14.3953 19.6614 14.9003 19.1565 14.9003 18.5335C14.9003 17.9106 14.3953 17.4056 13.7724 17.4056C13.1495 17.4056 12.6445 17.9106 12.6445 18.5335C12.6445 19.1565 13.1495 19.6614 13.7724 19.6614Z" fill="#58A65C"/>
<path d="M7.64399 19.6614C8.2669 19.6614 8.77187 19.1564 8.77187 18.5335C8.77187 17.9106 8.2669 17.4056 7.64399 17.4056C7.02108 17.4056 6.51611 17.9106 6.51611 18.5335C6.51611 19.1564 7.02108 19.6614 7.64399 19.6614Z" fill="#58A65C"/>
<path d="M7.50049 6.41638H18.7389" stroke="#58A65C" stroke-width="1.5" stroke-miterlimit="10" stroke-linecap="round" stroke-linejoin="round"/>
</svg>
