<svg width="15" height="14" viewBox="0 0 15 14" fill="none" xmlns="http://www.w3.org/2000/svg">
<path d="M10.9959 12.6117C10.4825 12.7634 9.87585 12.8334 9.16419 12.8334H5.66419C4.95252 12.8334 4.34585 12.7634 3.83252 12.6117C3.96085 11.095 5.51835 9.89917 7.41419 9.89917C9.31002 9.89917 10.8675 11.095 10.9959 12.6117Z" stroke="white" stroke-linecap="round" stroke-linejoin="round"/>
<path d="M9.1639 1.16669H5.6639C2.74723 1.16669 1.58057 2.33335 1.58057 5.25002V8.75002C1.58057 10.955 2.24557 12.1625 3.83223 12.6117C3.96057 11.095 5.51807 9.89917 7.4139 9.89917C9.30973 9.89917 10.8672 11.095 10.9956 12.6117C12.5822 12.1625 13.2472 10.955 13.2472 8.75002V5.25002C13.2472 2.33335 12.0806 1.16669 9.1639 1.16669ZM7.4139 8.26584C6.2589 8.26584 5.32557 7.3267 5.32557 6.1717C5.32557 5.0167 6.2589 4.08335 7.4139 4.08335C8.5689 4.08335 9.50223 5.0167 9.50223 6.1717C9.50223 7.3267 8.5689 8.26584 7.4139 8.26584Z" stroke="white" stroke-linecap="round" stroke-linejoin="round"/>
<path d="M9.50235 6.17166C9.50235 7.32666 8.56902 8.2658 7.41402 8.2658C6.25902 8.2658 5.32568 7.32666 5.32568 6.17166C5.32568 5.01666 6.25902 4.08331 7.41402 4.08331C8.56902 4.08331 9.50235 5.01666 9.50235 6.17166Z" stroke="white" stroke-linecap="round" stroke-linejoin="round"/>
</svg>
