<svg width="37" height="36" viewBox="0 0 37 36" fill="none" xmlns="http://www.w3.org/2000/svg">
<rect x="0.867188" y="0.263794" width="36" height="35" rx="17.5" fill="#F5F5F5"/>
<path d="M21.9047 9.01379H16.8297C16.2347 9.01379 15.3947 9.3638 14.9747 9.7838L11.3872 13.3713C10.9672 13.7913 10.6172 14.6313 10.6172 15.2263V20.3013C10.6172 20.8963 10.9672 21.7363 11.3872 22.1563L14.9747 25.7438C15.3947 26.1638 16.2347 26.5138 16.8297 26.5138H21.9047C22.4997 26.5138 23.3397 26.1638 23.7597 25.7438L27.3472 22.1563C27.7672 21.7363 28.1172 20.8963 28.1172 20.3013V15.2263C28.1172 14.6313 27.7672 13.7913 27.3472 13.3713L23.7597 9.7838C23.3397 9.3638 22.4997 9.01379 21.9047 9.01379Z" stroke="#888888" stroke-width="1.5" stroke-linecap="round" stroke-linejoin="round"/>
<path d="M13.1897 23.9588L25.5622 11.5863" stroke="#888888" stroke-width="1.5" stroke-linecap="round" stroke-linejoin="round"/>
</svg>
