<svg width="66" height="36" viewBox="0 0 66 36" fill="none" xmlns="http://www.w3.org/2000/svg">
<rect x="0.359375" y="0.263794" width="65.6317" height="35.56" rx="17.78" fill="#F5F5F5"/>
<rect x="4.77344" y="4.50293" width="56.8034" height="27.0817" rx="13.5409" stroke="#58A65C"/>
<path d="M23.3151 18.9438C23.7151 18.9438 23.9951 18.8588 24.1551 18.6888C24.3151 18.5188 24.3951 18.3538 24.3951 18.1938C24.3951 18.1038 24.3751 17.9838 24.3351 17.8338C24.3051 17.6838 24.2401 17.4538 24.1401 17.1438C24.0401 16.8338 23.8951 16.4188 23.7051 15.8988C23.5151 15.3688 23.2701 14.6838 22.9701 13.8438L24.1401 13.3638L25.7151 17.8188C25.8551 18.2288 26.0201 18.5188 26.2101 18.6888C26.4001 18.8588 26.6801 18.9438 27.0501 18.9438H27.2451C27.4651 18.9438 27.5751 19.1588 27.5751 19.5888C27.5751 20.0388 27.4651 20.2638 27.2451 20.2638H27.0501C26.7201 20.2638 26.4001 20.2038 26.0901 20.0838C25.7901 19.9638 25.5151 19.6988 25.2651 19.2888C25.0551 19.6688 24.7901 19.9288 24.4701 20.0688C24.1601 20.1988 23.8201 20.2638 23.4501 20.2638H20.2251L20.1501 18.9438H23.3151ZM28.6062 18.9438C28.9662 18.9438 29.2462 18.8488 29.4462 18.6588C29.6562 18.4688 29.7612 18.1988 29.7612 17.8488V15.9288H30.9912V17.9088C30.9912 18.6688 30.7862 19.2538 30.3762 19.6638C29.9762 20.0638 29.4162 20.2638 28.6962 20.2638H27.2412C27.1112 20.2638 27.0262 20.2138 26.9862 20.1138C26.9362 20.0038 26.9112 19.8438 26.9112 19.6338C26.9112 19.3938 26.9362 19.2188 26.9862 19.1088C27.0262 18.9988 27.1112 18.9438 27.2412 18.9438H28.6062ZM30.6762 23.2338H29.3562V21.9738H30.6762V23.2338ZM28.6362 23.2338H27.3012V21.9738H28.6362V23.2338ZM35.5465 18.9438C35.9465 18.9438 36.2265 18.8588 36.3865 18.6888C36.5465 18.5188 36.6265 18.3538 36.6265 18.1938C36.6265 18.1038 36.6065 17.9838 36.5665 17.8338C36.5365 17.6838 36.4715 17.4538 36.3715 17.1438C36.2715 16.8338 36.1265 16.4188 35.9365 15.8988C35.7465 15.3688 35.5015 14.6838 35.2015 13.8438L36.3715 13.3638L37.9465 17.8188C38.0865 18.2288 38.2515 18.5188 38.4415 18.6888C38.6315 18.8588 38.9115 18.9438 39.2815 18.9438H39.4765C39.6965 18.9438 39.8065 19.1588 39.8065 19.5888C39.8065 20.0388 39.6965 20.2638 39.4765 20.2638H39.2815C38.9515 20.2638 38.6315 20.2038 38.3215 20.0838C38.0215 19.9638 37.7465 19.6988 37.4965 19.2888C37.2865 19.6688 37.0215 19.9288 36.7015 20.0688C36.3915 20.1988 36.0515 20.2638 35.6815 20.2638H32.4565L32.3815 18.9438H35.5465ZM43.7927 19.3938C43.5327 19.5538 43.2777 19.6888 43.0277 19.7988C42.7777 19.9088 42.5077 19.9988 42.2177 20.0688C41.9377 20.1388 41.6277 20.1888 41.2877 20.2188C40.9477 20.2488 40.5577 20.2638 40.1177 20.2638H39.4727C39.3427 20.2638 39.2577 20.2138 39.2177 20.1138C39.1677 20.0038 39.1427 19.8438 39.1427 19.6338C39.1427 19.3938 39.1677 19.2188 39.2177 19.1088C39.2577 18.9988 39.3427 18.9438 39.4727 18.9438H40.1627C40.5427 18.9438 40.8777 18.9338 41.1677 18.9138C41.4677 18.8938 41.7427 18.8588 41.9927 18.8088C42.2427 18.7588 42.4777 18.6938 42.6977 18.6138C42.9177 18.5238 43.1427 18.4138 43.3727 18.2838L45.6077 16.9938C45.5277 16.8138 45.4477 16.6588 45.3677 16.5288C45.2977 16.3888 45.2027 16.2688 45.0827 16.1688C44.9627 16.0688 44.8177 15.9938 44.6477 15.9438C44.4777 15.8938 44.2627 15.8688 44.0027 15.8688H40.7327L40.8227 14.5488H44.1827C44.4527 14.5488 44.7227 14.5838 44.9927 14.6538C45.2727 14.7238 45.5327 14.8638 45.7727 15.0738C46.0227 15.2838 46.2527 15.5838 46.4627 15.9738C46.6727 16.3638 46.8477 16.8788 46.9877 17.5188L43.7927 19.3938ZM43.8827 23.2638H42.4127V21.9738H43.8827V23.2638Z" fill="#58A65C"/>
</svg>
