<svg width="36" height="36" viewBox="0 0 36 36" fill="none" xmlns="http://www.w3.org/2000/svg">
<circle cx="18.1135" cy="17.9696" r="17.7776" fill="#F5F5F5"/>
<path d="M20.6836 25.3924L22.2839 26.9927L25.4845 23.7921" stroke="#888888" stroke-width="1.5" stroke-linecap="round" stroke-linejoin="round"/>
<path d="M18.2845 16.78C18.1792 16.7694 18.0529 16.7694 17.9371 16.78C15.4313 16.6957 13.4414 14.6427 13.4414 12.1159C13.4309 9.53643 15.5261 7.44128 18.1055 7.44128C20.685 7.44128 22.7801 9.53643 22.7801 12.1159C22.7801 14.6427 20.7797 16.6957 18.2845 16.78Z" stroke="#888888" stroke-width="1.5" stroke-linecap="round" stroke-linejoin="round"/>
<path d="M18.1075 28.298C16.1913 28.298 14.2857 27.8137 12.8328 26.8451C10.2849 25.1395 10.2849 22.36 12.8328 20.665C15.7281 18.7277 20.4764 18.7277 23.3717 20.665" stroke="#888888" stroke-width="1.5" stroke-linecap="round" stroke-linejoin="round"/>
</svg>
